{
.appVersion = "119";
copyright = "Copyright (C) 2004 Hoefler & Frere-Jones Typography, Inc. www.typography.com";
date = "2007-05-07 05:01:43 +0000";
familyName = "Whitney Pro";
featurePrefixes = (
{
automatic = 1;
code = "languagesystem DFLT dflt;\012";
name = Languagesystems;
}
);
features = (
{
automatic = 1;
code = "feature frac;\012feature ordn;\012";
name = aalt;
},
{
automatic = 1;
code = "sub one slash four by onequarter;\012sub one slash two by onehalf;\012sub three slash four by threequarters;\012";
name = frac;
},
{
automatic = 1;
code = "sub [zero one two three four five six seven eight nine] [A a]' by ordfeminine;\012sub [zero one two three four five six seven eight nine] [O o]' by ordmasculine;\012";
name = ordn;
},
{
automatic = 1;
code = "sub f i by fi;\012sub f l by fl;\012";
name = liga;
}
);
fontMaster = (
{
alignmentZones = (
"{715, 3}",
"{690, 13}",
"{473, 10}",
"{0, -13}"
);
ascender = 718;
capHeight = 690;
custom = Medium;
descender = -183;
horizontalStems = (
56,
59
);
id = "3C7D841C-FDC1-4B34-88F9-2F856A81F5AE";
italicAngle = 12;
verticalStems = (
65,
70
);
weightValue = 500;
widthValue = 5;
xHeight = 481;
}
);
glyphs = (
{
glyphname = A;
layers = (
{
layerId = "3C7D841C-FDC1-4B34-88F9-2F856A81F5AE";
paths = (
{
closed = 1;
nodes = (
"574 8 LINE",
"427 694 LINE",
"366 694 LINE",
"-2 0 LINE",
"69 0 LINE",
"184 223 LINE",
"461 223 LINE",
"508 -7 LINE"
);
},
{
closed = 1;
nodes = (
"449 282 LINE",
"214 282 LINE",
"383 607 LINE"
);
}
);
width = 642;
}
);
note = A;
unicode = 0041;
},
{
glyphname = Aacute;
layers = (
{
layerId = "3C7D841C-FDC1-4B34-88F9-2F856A81F5AE";
paths = (
{
closed = 1;
nodes = (
"574 8 LINE",
"427 694 LINE",
"366 694 LINE",
"-2 0 LINE",
"69 0 LINE",
"184 223 LINE",
"461 223 LINE",
"508 -7 LINE"
);
},
{
closed = 1;
nodes = (
"449 282 LINE",
"214 282 LINE",
"383 607 LINE"
);
},
{
closed = 1;
nodes = (
"583 876 LINE",
"493 895 LINE",
"374 742 LINE",
"428 742 LINE"
);
}
);
width = 642;
}
);
note = Aacute;
unicode = 00C1;
},
{
glyphname = Acircumflex;
layers = (
{
layerId = "3C7D841C-FDC1-4B34-88F9-2F856A81F5AE";
paths = (
{
closed = 1;
nodes = (
"574 8 LINE",
"427 694 LINE",
"366 694 LINE",
"-2 0 LINE",
"69 0 LINE",
"184 223 LINE",
"461 223 LINE",
"508 -7 LINE"
);
},
{
closed = 1;
nodes = (
"449 282 LINE",
"214 282 LINE",
"383 607 LINE"
);
},
{
closed = 1;
nodes = (
"531 736 LINE",
"454 877 LINE",
"393 877 LINE",
"265 732 LINE",
"309 732 LINE",
"415 815 LINE",
"497 729 LINE"
);
}
);
width = 642;
}
);
note = Acircumflex;
unicode = 00C2;
},
{
glyphname = Adieresis;
layers = (
{
layerId = "3C7D841C-FDC1-4B34-88F9-2F856A81F5AE";
paths = (
{
closed = 1;
nodes = (
"574 8 LINE",
"427 694 LINE",
"366 694 LINE",
"-2 0 LINE",
"69 0 LINE",
"184 223 LINE",
"461 223 LINE",
"508 -7 LINE"
);
},
{
closed = 1;
nodes = (
"449 282 LINE",
"214 282 LINE",
"383 607 LINE"
);
},
{
closed = 1;
nodes = (
"530 749 LINE",
"544 837 LINE",
"461 837 LINE",
"447 749 LINE"
);
},
{
closed = 1;
nodes = (
"357 749 LINE",
"372 837 LINE",
"289 837 LINE",
"275 749 LINE"
);
}
);
width = 642;
}
);
note = Adieresis;
unicode = 00C4;
},
{
glyphname = Agrave;
layers = (
{
layerId = "3C7D841C-FDC1-4B34-88F9-2F856A81F5AE";
paths = (
{
closed = 1;
nodes = (
"574 8 LINE",
"427 694 LINE",
"366 694 LINE",
"-2 0 LINE",
"69 0 LINE",
"184 223 LINE",
"461 223 LINE",
"508 -7 LINE"
);
},
{
closed = 1;
nodes = (
"449 282 LINE",
"214 282 LINE",
"383 607 LINE"
);
},
{
closed = 1;
nodes = (
"418 742 LINE",
"344 895 LINE",
"258 876 LINE",
"374 742 LINE"
);
}
);
width = 642;
}
);
note = Agrave;
unicode = 00C0;
},
{
glyphname = Aring;
layers = (
{
layerId = "3C7D841C-FDC1-4B34-88F9-2F856A81F5AE";
paths = (
{
closed = 1;
nodes = (
"574 8 LINE",
"427 694 LINE",
"366 694 LINE",
"-2 0 LINE",
"69 0 LINE",
"184 223 LINE",
"461 223 LINE",
"508 -7 LINE"
);
},
{
closed = 1;
nodes = (
"449 282 LINE",
"214 282 LINE",
"383 607 LINE"
);
},
{
closed = 1;
nodes = (
"511 891 OFFCURVE",
"470 935 OFFCURVE",
"414 935 CURVE SMOOTH",
"357 935 OFFCURVE",
"316 891 OFFCURVE",
"316 836 CURVE SMOOTH",
"316 780 OFFCURVE",
"357 740 OFFCURVE",
"414 740 CURVE SMOOTH",
"470 740 OFFCURVE",
"511 780 OFFCURVE",
"511 836 CURVE SMOOTH"
);
},
{
closed = 1;
nodes = (
"471 802 OFFCURVE",
"446 777 OFFCURVE",
"414 777 CURVE SMOOTH",
"381 777 OFFCURVE",
"356 802 OFFCURVE",
"356 836 CURVE SMOOTH",
"356 871 OFFCURVE",
"381 897 OFFCURVE",
"414 897 CURVE SMOOTH",
"446 897 OFFCURVE",
"471 871 OFFCURVE",
"471 836 CURVE SMOOTH"
);
}
);
width = 642;
}
);
note = Aring;
unicode = 00C5;
},
{
glyphname = Atilde;
layers = (
{
layerId = "3C7D841C-FDC1-4B34-88F9-2F856A81F5AE";
paths = (
{
closed = 1;
nodes = (
"574 8 LINE",
"427 694 LINE",
"366 694 LINE",
"-2 0 LINE",
"69 0 LINE",
"184 223 LINE",
"461 223 LINE",
"508 -7 LINE"
);
},
{
closed = 1;
nodes = (
"449 282 LINE",
"214 282 LINE",
"383 607 LINE"
);
},
{
closed = 1;
nodes = (
"523 861 LINE",
"509 823 OFFCURVE",
"494 808 OFFCURVE",
"479 808 CURVE SMOOTH",
"463 808 OFFCURVE",
"453 813 OFFCURVE",
"419 834 CURVE SMOOTH",
"392 850 OFFCURVE",
"376 859 OFFCURVE",
"349 859 CURVE SMOOTH",
"310 859 OFFCURVE",
"276 824 OFFCURVE",
"254 755 CURVE",
"298 746 LINE",
"313 785 OFFCURVE",
"327 799 OFFCURVE",
"342 799 CURVE SMOOTH",
"358 799 OFFCURVE",
"368 794 OFFCURVE",
"402 773 CURVE SMOOTH",
"430 757 OFFCURVE",
"446 748 OFFCURVE",
"472 748 CURVE SMOOTH",
"511 748 OFFCURVE",
"545 783 OFFCURVE",
"567 852 CURVE"
);
}
);
width = 642;
}
);
note = Atilde;
unicode = 00C3;
},
{
glyphname = AE;
layers = (
{
layerId = "3C7D841C-FDC1-4B34-88F9-2F856A81F5AE";
paths = (
{
closed = 1;
nodes = (
"867 690 LINE",
"487 690 LINE",
"-27 0 LINE",
"46 0 LINE",
"212 223 LINE",
"456 223 LINE",
"420 0 LINE",
"767 0 LINE",
"776 59 LINE",
"497 59 LINE",
"540 331 LINE",
"760 331 LINE",
"760 391 LINE",
"550 391 LINE",
"587 631 LINE",
"857 631 LINE"
);
},
{
closed = 1;
nodes = (
"522 641 LINE",
"466 283 LINE",
"257 283 LINE"
);
}
);
width = 853;
}
);
note = AE;
unicode = 00C6;
},
{
glyphname = B;
layers = (
{
layerId = "3C7D841C-FDC1-4B34-88F9-2F856A81F5AE";
paths = (
{
closed = 1;
nodes = (
"492 633 OFFCURVE",
"421 690 OFFCURVE",
"303 690 CURVE SMOOTH",
"159 690 LINE",
"49 0 LINE",
"218 0 LINE SMOOTH",
"368 0 OFFCURVE",
"473 78 OFFCURVE",
"473 213 CURVE SMOOTH",
"473 290 OFFCURVE",
"426 337 OFFCURVE",
"361 363 CURVE",
"435 390 OFFCURVE",
"492 448 OFFCURVE",
"492 536 CURVE SMOOTH"
);
},
{
closed = 1;
nodes = (
"424 444 OFFCURVE",
"350 390 OFFCURVE",
"254 390 CURVE SMOOTH",
"178 390 LINE",
"216 633 LINE",
"300 633 LINE SMOOTH",
"378 633 OFFCURVE",
"424 595 OFFCURVE",
"424 529 CURVE SMOOTH"
);
},
{
closed = 1;
nodes = (
"405 114 OFFCURVE",
"335 57 OFFCURVE",
"225 57 CURVE SMOOTH",
"124 57 LINE",
"169 334 LINE",
"245 334 LINE SMOOTH",
"348 334 OFFCURVE",
"405 286 OFFCURVE",
"405 209 CURVE SMOOTH"
);
}
);
width = 526;
}
);
note = B;
unicode = 0042;
},
{
glyphname = C;
layers = (
{
layerId = "3C7D841C-FDC1-4B34-88F9-2F856A81F5AE";
paths = (
{
closed = 1;
nodes = (
"582 641 LINE",
"539 678 OFFCURVE",
"482 702 OFFCURVE",
"402 702 CURVE SMOOTH",
"204 702 OFFCURVE",
"62 502 OFFCURVE",
"62 281 CURVE SMOOTH",
"62 94 OFFCURVE",
"169 -12 OFFCURVE",
"318 -12 CURVE SMOOTH",
"387 -12 OFFCURVE",
"447 7 OFFCURVE",
"501 41 CURVE",
"501 109 LINE",
"445 69 OFFCURVE",
"385 49 OFFCURVE",
"322 49 CURVE SMOOTH",
"210 49 OFFCURVE",
"131 133 OFFCURVE",
"131 285 CURVE SMOOTH",
"131 473 OFFCURVE",
"240 641 OFFCURVE",
"399 641 CURVE SMOOTH",
"464 641 OFFCURVE",
"518 615 OFFCURVE",
"565 571 CURVE"
);
}
);
width = 580;
}
);
note = C;
unicode = 0043;
},
{
glyphname = Ccedilla;
layers = (
{
layerId = "3C7D841C-FDC1-4B34-88F9-2F856A81F5AE";
paths = (
{
closed = 1;
nodes = (
"582 641 LINE",
"539 678 OFFCURVE",
"482 702 OFFCURVE",
"402 702 CURVE SMOOTH",
"204 702 OFFCURVE",
"62 502 OFFCURVE",
"62 281 CURVE SMOOTH",
"62 94 OFFCURVE",
"169 -12 OFFCURVE",
"318 -12 CURVE SMOOTH",
"387 -12 OFFCURVE",
"447 7 OFFCURVE",
"501 41 CURVE",
"501 109 LINE",
"445 69 OFFCURVE",
"385 49 OFFCURVE",
"322 49 CURVE SMOOTH",
"210 49 OFFCURVE",
"131 133 OFFCURVE",
"131 285 CURVE SMOOTH",
"131 473 OFFCURVE",
"240 641 OFFCURVE",
"399 641 CURVE SMOOTH",
"464 641 OFFCURVE",
"518 615 OFFCURVE",
"565 571 CURVE"
);
},
{
closed = 1;
nodes = (
"343 -70 LINE",
"260 -50 LINE",
"154 -185 LINE",
"203 -185 LINE"
);
}
);
width = 580;
}
);
note = Ccedilla;
unicode = 00C7;
},
{
glyphname = D;
layers = (
{
layerId = "3C7D841C-FDC1-4B34-88F9-2F856A81F5AE";
paths = (
{
closed = 1;
nodes = (
"614 582 OFFCURVE",
"511 690 OFFCURVE",
"322 690 CURVE SMOOTH",
"159 690 LINE",
"49 0 LINE",
"223 0 LINE SMOOTH",
"335 0 OFFCURVE",
"430 39 OFFCURVE",
"499 108 CURVE SMOOTH",
"572 180 OFFCURVE",
"614 283 OFFCURVE",
"614 406 CURVE SMOOTH"
);
},
{
closed = 1;
nodes = (
"543 294 OFFCURVE",
"508 204 OFFCURVE",
"447 144 CURVE SMOOTH",
"392 90 OFFCURVE",
"318 59 OFFCURVE",
"229 59 CURVE SMOOTH",
"126 59 LINE",
"217 631 LINE",
"314 631 LINE SMOOTH",
"467 631 OFFCURVE",
"543 546 OFFCURVE",
"543 402 CURVE SMOOTH"
);
}
);
width = 644;
}
);
note = D;
unicode = 0044;
},
{
glyphname = Eth;
layers = (
{
layerId = "3C7D841C-FDC1-4B34-88F9-2F856A81F5AE";
paths = (
{
closed = 1;
nodes = (
"639 582 OFFCURVE",
"535 690 OFFCURVE",
"346 690 CURVE SMOOTH",
"184 690 LINE",
"136 392 LINE",
"49 392 LINE",
"49 331 LINE",
"127 331 LINE",
"74 0 LINE",
"247 0 LINE SMOOTH",
"359 0 OFFCURVE",
"455 39 OFFCURVE",
"524 108 CURVE SMOOTH",
"596 180 OFFCURVE",
"639 283 OFFCURVE",
"639 406 CURVE SMOOTH"
);
},
{
closed = 1;
nodes = (
"568 294 OFFCURVE",
"532 204 OFFCURVE",
"471 144 CURVE SMOOTH",
"417 90 OFFCURVE",
"342 59 OFFCURVE",
"254 59 CURVE SMOOTH",
"150 59 LINE",
"194 331 LINE",
"366 331 LINE",
"375 392 LINE",
"204 392 LINE",
"242 631 LINE",
"339 631 LINE SMOOTH",
"491 631 OFFCURVE",
"568 546 OFFCURVE",
"568 402 CURVE SMOOTH"
);
}
);
width = 669;
}
);
note = Eth;
unicode = 00D0;
},
{
glyphname = E;
layers = (
{
layerId = "3C7D841C-FDC1-4B34-88F9-2F856A81F5AE";
paths = (
{
closed = 1;
nodes = (
"496 690 LINE",
"159 690 LINE",
"49 0 LINE",
"396 0 LINE",
"405 59 LINE",
"126 59 LINE",
"169 331 LINE",
"389 331 LINE",
"389 391 LINE",
"179 391 LINE",
"217 631 LINE",
"486 631 LINE"
);
}
);
width = 472;
}
);
note = E;
unicode = 0045;
},
{
glyphname = Eacute;
layers = (
{
layerId = "3C7D841C-FDC1-4B34-88F9-2F856A81F5AE";
paths = (
{
closed = 1;
nodes = (
"496 690 LINE",
"159 690 LINE",
"49 0 LINE",
"396 0 LINE",
"405 59 LINE",
"126 59 LINE",
"169 331 LINE",
"389 331 LINE",
"389 391 LINE",
"179 391 LINE",
"217 631 LINE",
"486 631 LINE"
);
},
{
closed = 1;
nodes = (
"484 875 LINE",
"394 894 LINE",
"275 741 LINE",
"329 741 LINE"
);
}
);
width = 472;
}
);
note = Eacute;
unicode = 00C9;
},
{
glyphname = Ecircumflex;
layers = (
{
layerId = "3C7D841C-FDC1-4B34-88F9-2F856A81F5AE";
paths = (
{
closed = 1;
nodes = (
"496 690 LINE",
"159 690 LINE",
"49 0 LINE",
"396 0 LINE",
"405 59 LINE",
"126 59 LINE",
"169 331 LINE",
"389 331 LINE",
"389 391 LINE",
"179 391 LINE",
"217 631 LINE",
"486 631 LINE"
);
},
{
closed = 1;
nodes = (
"462 745 LINE",
"385 886 LINE",
"324 886 LINE",
"196 741 LINE",
"240 741 LINE",
"346 824 LINE",
"428 738 LINE"
);
}
);
width = 472;
}
);
note = Ecircumflex;
unicode = 00CA;
},
{
glyphname = Edieresis;
layers = (
{
layerId = "3C7D841C-FDC1-4B34-88F9-2F856A81F5AE";
paths = (
{
closed = 1;
nodes = (
"496 690 LINE",
"159 690 LINE",
"49 0 LINE",
"396 0 LINE",
"405 59 LINE",
"126 59 LINE",
"169 331 LINE",
"389 331 LINE",
"389 391 LINE",
"179 391 LINE",
"217 631 LINE",
"486 631 LINE"
);
},
{
closed = 1;
nodes = (
"461 748 LINE",
"475 836 LINE",
"392 836 LINE",
"378 748 LINE"
);
},
{
closed = 1;
nodes = (
"288 748 LINE",
"303 836 LINE",
"220 836 LINE",
"206 748 LINE"
);
}
);
width = 472;
}
);
note = Edieresis;
unicode = 00CB;
},
{
glyphname = Egrave;
layers = (
{
layerId = "3C7D841C-FDC1-4B34-88F9-2F856A81F5AE";
paths = (
{
closed = 1;
nodes = (
"496 690 LINE",
"159 690 LINE",
"49 0 LINE",
"396 0 LINE",
"405 59 LINE",
"126 59 LINE",
"169 331 LINE",
"389 331 LINE",
"389 391 LINE",
"179 391 LINE",
"217 631 LINE",
"486 631 LINE"
);
},
{
closed = 1;
nodes = (
"376 741 LINE",
"302 894 LINE",
"216 875 LINE",
"332 741 LINE"
);
}
);
width = 472;
}
);
note = Egrave;
unicode = 00C8;
},
{
glyphname = F;
layers = (
{
layerId = "3C7D841C-FDC1-4B34-88F9-2F856A81F5AE";
paths = (
{
closed = 1;
nodes = (
"483 690 LINE",
"159 690 LINE",
"49 0 LINE",
"117 0 LINE",
"167 320 LINE",
"379 320 LINE",
"379 380 LINE",
"177 380 LINE",
"217 631 LINE",
"473 631 LINE"
);
}
);
width = 446;
}
);
note = F;
unicode = 0046;
},
{
glyphname = G;
layers = (
{
layerId = "3C7D841C-FDC1-4B34-88F9-2F856A81F5AE";
paths = (
{
closed = 1;
nodes = (
"586 362 LINE",
"347 362 LINE",
"347 302 LINE",
"510 302 LINE",
"475 85 LINE",
"440 64 OFFCURVE",
"392 48 OFFCURVE",
"332 48 CURVE SMOOTH",
"217 48 OFFCURVE",
"131 133 OFFCURVE",
"131 284 CURVE SMOOTH",
"131 475 OFFCURVE",
"247 641 OFFCURVE",
"401 641 CURVE SMOOTH",
"470 641 OFFCURVE",
"534 615 OFFCURVE",
"580 573 CURVE",
"597 643 LINE",
"552 679 OFFCURVE",
"488 702 OFFCURVE",
"408 702 CURVE SMOOTH",
"208 702 OFFCURVE",
"61 501 OFFCURVE",
"61 280 CURVE SMOOTH",
"61 104 OFFCURVE",
"170 -12 OFFCURVE",
"328 -12 CURVE SMOOTH",
"407 -12 OFFCURVE",
"472 11 OFFCURVE",
"535 49 CURVE"
);
}
);
width = 637;
}
);
note = G;
unicode = 0047;
},
{
glyphname = H;
layers = (
{
layerId = "3C7D841C-FDC1-4B34-88F9-2F856A81F5AE";
paths = (
{
closed = 1;
nodes = (
"643 690 LINE",
"576 690 LINE",
"529 391 LINE",
"179 391 LINE",
"226 690 LINE",
"159 690 LINE",
"49 0 LINE",
"117 0 LINE",
"169 331 LINE",
"519 331 LINE",
"467 0 LINE",
"534 0 LINE"
);
}
);
width = 659;
}
);
note = H;
unicode = 0048;
},
{
glyphname = I;
layers = (
{
layerId = "3C7D841C-FDC1-4B34-88F9-2F856A81F5AE";
paths = (
{
closed = 1;
nodes = (
"233 690 LINE",
"166 690 LINE",
"56 0 LINE",
"123 0 LINE"
);
}
);
width = 256;
}
);
note = I;
unicode = 0049;
},
{
glyphname = Iacute;
layers = (
{
layerId = "3C7D841C-FDC1-4B34-88F9-2F856A81F5AE";
paths = (
{
closed = 1;
nodes = (
"233 690 LINE",
"166 690 LINE",
"56 0 LINE",
"123 0 LINE"
);
},
{
closed = 1;
nodes = (
"385 875 LINE",
"295 894 LINE",
"176 741 LINE",
"230 741 LINE"
);
}
);
width = 255;
}
);
note = Iacute;
unicode = 00CD;
},
{
glyphname = Icircumflex;
layers = (
{
layerId = "3C7D841C-FDC1-4B34-88F9-2F856A81F5AE";
paths = (
{
closed = 1;
nodes = (
"233 690 LINE",
"166 690 LINE",
"56 0 LINE",
"123 0 LINE"
);
},
{
closed = 1;
nodes = (
"335 736 LINE",
"258 877 LINE",
"197 877 LINE",
"69 732 LINE",
"113 732 LINE",
"219 815 LINE",
"301 729 LINE"
);
}
);
width = 255;
}
);
note = Icircumflex;
unicode = 00CE;
},
{
glyphname = Idieresis;
layers = (
{
layerId = "3C7D841C-FDC1-4B34-88F9-2F856A81F5AE";
paths = (
{
closed = 1;
nodes = (
"233 690 LINE",
"166 690 LINE",
"56 0 LINE",
"123 0 LINE"
);
},
{
closed = 1;
nodes = (
"334 748 LINE",
"348 836 LINE",
"265 836 LINE",
"251 748 LINE"
);
},
{
closed = 1;
nodes = (
"161 748 LINE",
"176 836 LINE",
"93 836 LINE",
"79 748 LINE"
);
}
);
width = 255;
}
);
note = Idieresis;
unicode = 00CF;
},
{
glyphname = Igrave;
layers = (
{
layerId = "3C7D841C-FDC1-4B34-88F9-2F856A81F5AE";
paths = (
{
closed = 1;
nodes = (
"233 690 LINE",
"166 690 LINE",
"56 0 LINE",
"123 0 LINE"
);
},
{
closed = 1;
nodes = (
"226 741 LINE",
"152 894 LINE",
"66 875 LINE",
"182 741 LINE"
);
}
);
width = 255;
}
);
note = Igrave;
unicode = 00CC;
},
{
glyphname = J;
layers = (
{
layerId = "3C7D841C-FDC1-4B34-88F9-2F856A81F5AE";
paths = (
{
closed = 1;
nodes = (
"339 690 LINE",
"272 690 LINE",
"192 179 LINE SMOOTH",
"177 87 OFFCURVE",
"135 54 OFFCURVE",
"69 54 CURVE SMOOTH",
"43 54 OFFCURVE",
"20 59 OFFCURVE",
"-2 65 CURVE",
"-2 2 LINE",
"16 -1 OFFCURVE",
"40 -6 OFFCURVE",
"70 -6 CURVE SMOOTH",
"172 -6 OFFCURVE",
"238 49 OFFCURVE",
"258 176 CURVE SMOOTH"
);
}
);
width = 351;
}
);
note = J;
unicode = 004A;
},
{
glyphname = K;
layers = (
{
layerId = "3C7D841C-FDC1-4B34-88F9-2F856A81F5AE";
paths = (
{
closed = 1;
nodes = (
"602 690 LINE",
"517 690 LINE",
"176 376 LINE",
"226 690 LINE",
"159 690 LINE",
"49 0 LINE",
"117 0 LINE",
"173 356 LINE",
"444 -7 LINE",
"514 9 LINE",
"245 366 LINE"
);
}
);
width = 569;
}
);
note = K;
unicode = 004B;
},
{
glyphname = L;
layers = (
{
layerId = "3C7D841C-FDC1-4B34-88F9-2F856A81F5AE";
paths = (
{
closed = 1;
nodes = (
"373 0 LINE",
"373 59 LINE",
"125 59 LINE",
"226 690 LINE",
"159 690 LINE",
"49 0 LINE"
);
}
);
width = 437;
}
);
note = L;
unicode = 004C;
},
{
glyphname = Lslash;
layers = (
{
layerId = "3C7D841C-FDC1-4B34-88F9-2F856A81F5AE";
paths = (
{
closed = 1;
nodes = (
"407 0 LINE",
"407 61 LINE",
"150 61 LINE",
"194 338 LINE",
"360 373 LINE",
"369 434 LINE",
"204 399 LINE",
"249 690 LINE",
"182 690 LINE",
"134 385 LINE",
"43 366 LINE",
"44 307 LINE",
"124 324 LINE",
"73 0 LINE"
);
}
);
width = 470;
}
);
note = Lslash;
unicode = 0141;
},
{
glyphname = M;
layers = (
{
layerId = "3C7D841C-FDC1-4B34-88F9-2F856A81F5AE";
paths = (
{
closed = 1;
nodes = (
"807 690 LINE",
"723 690 LINE",
"408 95 LINE",
"281 690 LINE",
"199 690 LINE",
"35 0 LINE",
"97 0 LINE",
"235 589 LINE",
"368 -4 LINE",
"415 -4 LINE",
"735 589 LINE",
"687 0 LINE",
"752 0 LINE"
);
}
);
width = 861;
}
);
note = M;
unicode = 004D;
},
{
glyphname = N;
layers = (
{
layerId = "3C7D841C-FDC1-4B34-88F9-2F856A81F5AE";
paths = (
{
closed = 1;
nodes = (
"643 690 LINE",
"581 690 LINE",
"494 137 LINE",
"223 690 LINE",
"159 690 LINE",
"49 0 LINE",
"112 0 LINE",
"204 586 LINE",
"492 0 LINE",
"533 0 LINE"
);
}
);
width = 658;
}
);
note = N;
unicode = 004E;
},
{
glyphname = Ntilde;
layers = (
{
layerId = "3C7D841C-FDC1-4B34-88F9-2F856A81F5AE";
paths = (
{
closed = 1;
nodes = (
"643 690 LINE",
"581 690 LINE",
"494 137 LINE",
"223 690 LINE",
"159 690 LINE",
"49 0 LINE",
"112 0 LINE",
"204 586 LINE",
"492 0 LINE",
"533 0 LINE"
);
},
{
closed = 1;
nodes = (
"535 851 LINE",
"521 813 OFFCURVE",
"506 798 OFFCURVE",
"491 798 CURVE SMOOTH",
"475 798 OFFCURVE",
"465 803 OFFCURVE",
"431 824 CURVE SMOOTH",
"404 840 OFFCURVE",
"388 849 OFFCURVE",
"361 849 CURVE SMOOTH",
"322 849 OFFCURVE",
"288 814 OFFCURVE",
"266 745 CURVE",
"310 736 LINE",
"325 775 OFFCURVE",
"339 789 OFFCURVE",
"354 789 CURVE SMOOTH",
"370 789 OFFCURVE",
"380 784 OFFCURVE",
"414 763 CURVE SMOOTH",
"442 747 OFFCURVE",
"458 738 OFFCURVE",
"484 738 CURVE SMOOTH",
"523 738 OFFCURVE",
"557 773 OFFCURVE",
"579 842 CURVE"
);
}
);
width = 658;
}
);
note = Ntilde;
unicode = 00D1;
},
{
glyphname = O;
layers = (
{
layerId = "3C7D841C-FDC1-4B34-88F9-2F856A81F5AE";
paths = (
{
closed = 1;
nodes = (
"660 575 OFFCURVE",
"566 703 OFFCURVE",
"398 703 CURVE SMOOTH",
"211 703 OFFCURVE",
"62 518 OFFCURVE",
"62 286 CURVE SMOOTH",
"62 115 OFFCURVE",
"156 -13 OFFCURVE",
"323 -13 CURVE SMOOTH",
"511 -13 OFFCURVE",
"660 172 OFFCURVE",
"660 404 CURVE SMOOTH"
);
},
{
closed = 1;
nodes = (
"590 201 OFFCURVE",
"474 46 OFFCURVE",
"326 46 CURVE SMOOTH",
"207 46 OFFCURVE",
"132 142 OFFCURVE",
"132 288 CURVE SMOOTH",
"132 489 OFFCURVE",
"248 644 OFFCURVE",
"395 644 CURVE SMOOTH",
"515 644 OFFCURVE",
"590 548 OFFCURVE",
"590 402 CURVE SMOOTH"
);
}
);
width = 690;
}
);
note = O;
unicode = 004F;
},
{
glyphname = Oacute;
layers = (
{
layerId = "3C7D841C-FDC1-4B34-88F9-2F856A81F5AE";
paths = (
{
closed = 1;
nodes = (
"660 575 OFFCURVE",
"566 703 OFFCURVE",
"398 703 CURVE SMOOTH",
"211 703 OFFCURVE",
"62 518 OFFCURVE",
"62 286 CURVE SMOOTH",
"62 115 OFFCURVE",
"156 -13 OFFCURVE",
"323 -13 CURVE SMOOTH",
"511 -13 OFFCURVE",
"660 172 OFFCURVE",
"660 404 CURVE SMOOTH"
);
},
{
closed = 1;
nodes = (
"590 201 OFFCURVE",
"474 46 OFFCURVE",
"326 46 CURVE SMOOTH",
"207 46 OFFCURVE",
"132 142 OFFCURVE",
"132 288 CURVE SMOOTH",
"132 489 OFFCURVE",
"248 644 OFFCURVE",
"395 644 CURVE SMOOTH",
"515 644 OFFCURVE",
"590 548 OFFCURVE",
"590 402 CURVE SMOOTH"
);
},
{
closed = 1;
nodes = (
"588 885 LINE",
"498 904 LINE",
"379 751 LINE",
"433 751 LINE"
);
}
);
width = 690;
}
);
note = Oacute;
unicode = 00D3;
},
{
glyphname = Ocircumflex;
layers = (
{
layerId = "3C7D841C-FDC1-4B34-88F9-2F856A81F5AE";
paths = (
{
closed = 1;
nodes = (
"660 575 OFFCURVE",
"566 703 OFFCURVE",
"398 703 CURVE SMOOTH",
"211 703 OFFCURVE",
"62 518 OFFCURVE",
"62 286 CURVE SMOOTH",
"62 115 OFFCURVE",
"156 -13 OFFCURVE",
"323 -13 CURVE SMOOTH",
"511 -13 OFFCURVE",
"660 172 OFFCURVE",
"660 404 CURVE SMOOTH"
);
},
{
closed = 1;
nodes = (
"590 201 OFFCURVE",
"474 46 OFFCURVE",
"326 46 CURVE SMOOTH",
"207 46 OFFCURVE",
"132 142 OFFCURVE",
"132 288 CURVE SMOOTH",
"132 489 OFFCURVE",
"248 644 OFFCURVE",
"395 644 CURVE SMOOTH",
"515 644 OFFCURVE",
"590 548 OFFCURVE",
"590 402 CURVE SMOOTH"
);
},
{
closed = 1;
nodes = (
"552 750 LINE",
"475 891 LINE",
"414 891 LINE",
"286 746 LINE",
"330 746 LINE",
"436 829 LINE",
"518 743 LINE"
);
}
);
width = 690;
}
);
note = Ocircumflex;
unicode = 00D4;
},
{
glyphname = Odieresis;
layers = (
{
layerId = "3C7D841C-FDC1-4B34-88F9-2F856A81F5AE";
paths = (
{
closed = 1;
nodes = (
"660 575 OFFCURVE",
"566 703 OFFCURVE",
"398 703 CURVE SMOOTH",
"211 703 OFFCURVE",
"62 518 OFFCURVE",
"62 286 CURVE SMOOTH",
"62 115 OFFCURVE",
"156 -13 OFFCURVE",
"323 -13 CURVE SMOOTH",
"511 -13 OFFCURVE",
"660 172 OFFCURVE",
"660 404 CURVE SMOOTH"
);
},
{
closed = 1;
nodes = (
"590 201 OFFCURVE",
"474 46 OFFCURVE",
"326 46 CURVE SMOOTH",
"207 46 OFFCURVE",
"132 142 OFFCURVE",
"132 288 CURVE SMOOTH",
"132 489 OFFCURVE",
"248 644 OFFCURVE",
"395 644 CURVE SMOOTH",
"515 644 OFFCURVE",
"590 548 OFFCURVE",
"590 402 CURVE SMOOTH"
);
},
{
closed = 1;
nodes = (
"551 758 LINE",
"565 846 LINE",
"482 846 LINE",
"468 758 LINE"
);
},
{
closed = 1;
nodes = (
"378 758 LINE",
"393 846 LINE",
"310 846 LINE",
"296 758 LINE"
);
}
);
width = 690;
}
);
note = Odieresis;
unicode = 00D6;
},
{
glyphname = Ograve;
layers = (
{
layerId = "3C7D841C-FDC1-4B34-88F9-2F856A81F5AE";
paths = (
{
closed = 1;
nodes = (
"660 575 OFFCURVE",
"566 703 OFFCURVE",
"398 703 CURVE SMOOTH",
"211 703 OFFCURVE",
"62 518 OFFCURVE",
"62 286 CURVE SMOOTH",
"62 115 OFFCURVE",
"156 -13 OFFCURVE",
"323 -13 CURVE SMOOTH",
"511 -13 OFFCURVE",
"660 172 OFFCURVE",
"660 404 CURVE SMOOTH"
);
},
{
closed = 1;
nodes = (
"590 201 OFFCURVE",
"474 46 OFFCURVE",
"326 46 CURVE SMOOTH",
"207 46 OFFCURVE",
"132 142 OFFCURVE",
"132 288 CURVE SMOOTH",
"132 489 OFFCURVE",
"248 644 OFFCURVE",
"395 644 CURVE SMOOTH",
"515 644 OFFCURVE",
"590 548 OFFCURVE",
"590 402 CURVE SMOOTH"
);
},
{
closed = 1;
nodes = (
"458 751 LINE",
"384 904 LINE",
"298 885 LINE",
"414 751 LINE"
);
}
);
width = 690;
}
);
note = Ograve;
unicode = 00D2;
},
{
glyphname = Oslash;
layers = (
{
layerId = "3C7D841C-FDC1-4B34-88F9-2F856A81F5AE";
paths = (
{
closed = 1;
nodes = (
"566 535 LINE",
"582 499 OFFCURVE",
"591 454 OFFCURVE",
"591 404 CURVE SMOOTH",
"591 201 OFFCURVE",
"474 45 OFFCURVE",
"328 45 CURVE SMOOTH",
"268 45 OFFCURVE",
"220 68 OFFCURVE",
"186 108 CURVE"
);
},
{
closed = 1;
nodes = (
"140 190 OFFCURVE",
"131 235 OFFCURVE",
"131 286 CURVE SMOOTH",
"131 490 OFFCURVE",
"248 645 OFFCURVE",
"393 645 CURVE SMOOTH",
"454 645 OFFCURVE",
"503 622 OFFCURVE",
"537 580 CURVE",
"537 581 OFFCURVE",
"157 153 OFFCURVE",
"157 153 CURVE"
);
},
{
closed = 1;
nodes = (
"22 5 LINE",
"82 -8 LINE",
"142 59 LINE",
"186 14 OFFCURVE",
"248 -13 OFFCURVE",
"326 -13 CURVE SMOOTH",
"511 -13 OFFCURVE",
"660 172 OFFCURVE",
"660 404 CURVE SMOOTH",
"660 474 OFFCURVE",
"644 538 OFFCURVE",
"613 588 CURVE",
"701 685 LINE",
"641 698 LINE",
"581 630 LINE",
"536 676 OFFCURVE",
"474 703 OFFCURVE",
"396 703 CURVE SMOOTH",
"211 703 OFFCURVE",
"62 518 OFFCURVE",
"62 286 CURVE SMOOTH",
"62 215 OFFCURVE",
"78 151 OFFCURVE",
"109 101 CURVE"
);
}
);
width = 690;
}
);
note = Oslash;
unicode = 00D8;
},
{
glyphname = Otilde;
layers = (
{
layerId = "3C7D841C-FDC1-4B34-88F9-2F856A81F5AE";
paths = (
{
closed = 1;
nodes = (
"660 575 OFFCURVE",
"566 703 OFFCURVE",
"398 703 CURVE SMOOTH",
"211 703 OFFCURVE",
"62 518 OFFCURVE",
"62 286 CURVE SMOOTH",
"62 115 OFFCURVE",
"156 -13 OFFCURVE",
"323 -13 CURVE SMOOTH",
"511 -13 OFFCURVE",
"660 172 OFFCURVE",
"660 404 CURVE SMOOTH"
);
},
{
closed = 1;
nodes = (
"590 201 OFFCURVE",
"474 46 OFFCURVE",
"326 46 CURVE SMOOTH",
"207 46 OFFCURVE",
"132 142 OFFCURVE",
"132 288 CURVE SMOOTH",
"132 489 OFFCURVE",
"248 644 OFFCURVE",
"395 644 CURVE SMOOTH",
"515 644 OFFCURVE",
"590 548 OFFCURVE",
"590 402 CURVE SMOOTH"
);
},
{
closed = 1;
nodes = (
"544 874 LINE",
"530 836 OFFCURVE",
"515 821 OFFCURVE",
"500 821 CURVE SMOOTH",
"484 821 OFFCURVE",
"474 826 OFFCURVE",
"440 847 CURVE SMOOTH",
"413 863 OFFCURVE",
"397 872 OFFCURVE",
"370 872 CURVE SMOOTH",
"331 872 OFFCURVE",
"297 837 OFFCURVE",
"275 768 CURVE",
"319 759 LINE",
"334 798 OFFCURVE",
"348 812 OFFCURVE",
"363 812 CURVE SMOOTH",
"379 812 OFFCURVE",
"389 807 OFFCURVE",
"423 786 CURVE SMOOTH",
"451 770 OFFCURVE",
"467 761 OFFCURVE",
"493 761 CURVE SMOOTH",
"532 761 OFFCURVE",
"566 796 OFFCURVE",
"588 865 CURVE"
);
}
);
width = 690;
}
);
note = Otilde;
unicode = 00D5;
},
{
glyphname = OE;
layers = (
{
layerId = "3C7D841C-FDC1-4B34-88F9-2F856A81F5AE";
paths = (
{
closed = 1;
nodes = (
"867 690 LINE",
"456 690 LINE SMOOTH",
"228 690 OFFCURVE",
"64 526 OFFCURVE",
"64 284 CURVE SMOOTH",
"64 108 OFFCURVE",
"168 0 OFFCURVE",
"356 0 CURVE SMOOTH",
"767 0 LINE",
"777 59 LINE",
"498 59 LINE",
"541 331 LINE",
"761 331 LINE",
"761 391 LINE",
"551 391 LINE",
"588 631 LINE",
"858 631 LINE"
);
},
{
closed = 1;
nodes = (
"522 631 LINE",
"431 59 LINE",
"364 59 LINE SMOOTH",
"211 59 OFFCURVE",
"135 144 OFFCURVE",
"135 288 CURVE SMOOTH",
"135 493 OFFCURVE",
"262 631 OFFCURVE",
"449 631 CURVE SMOOTH"
);
}
);
width = 844;
}
);
note = OE;
unicode = 0152;
},
{
glyphname = P;
layers = (
{
layerId = "3C7D841C-FDC1-4B34-88F9-2F856A81F5AE";
paths = (
{
closed = 1;
nodes = (
"504 628 OFFCURVE",
"427 690 OFFCURVE",
"288 690 CURVE SMOOTH",
"159 690 LINE",
"49 0 LINE",
"117 0 LINE",
"163 291 LINE",
"241 291 LINE SMOOTH",
"403 291 OFFCURVE",
"504 380 OFFCURVE",
"504 511 CURVE SMOOTH"
);
},
{
closed = 1;
nodes = (
"437 419 OFFCURVE",
"376 351 OFFCURVE",
"252 351 CURVE SMOOTH",
"173 351 LINE",
"217 631 LINE",
"287 631 LINE SMOOTH",
"388 631 OFFCURVE",
"437 585 OFFCURVE",
"437 505 CURVE SMOOTH"
);
}
);
width = 503;
}
);
note = P;
unicode = 0050;
},
{
glyphname = Thorn;
layers = (
{
layerId = "3C7D841C-FDC1-4B34-88F9-2F856A81F5AE";
paths = (
{
closed = 1;
nodes = (
"482 490 OFFCURVE",
"405 552 OFFCURVE",
"267 552 CURVE SMOOTH",
"205 552 LINE",
"226 690 LINE",
"159 690 LINE",
"49 0 LINE",
"117 0 LINE",
"141 154 LINE",
"218 154 LINE SMOOTH",
"381 154 OFFCURVE",
"482 243 OFFCURVE",
"482 374 CURVE SMOOTH"
);
},
{
closed = 1;
nodes = (
"415 282 OFFCURVE",
"354 214 OFFCURVE",
"230 214 CURVE SMOOTH",
"150 214 LINE",
"195 494 LINE",
"265 494 LINE SMOOTH",
"366 494 OFFCURVE",
"415 448 OFFCURVE",
"415 367 CURVE SMOOTH"
);
}
);
width = 507;
}
);
note = Thorn;
unicode = 00DE;
},
{
glyphname = Q;
layers = (
{
layerId = "3C7D841C-FDC1-4B34-88F9-2F856A81F5AE";
paths = (
{
closed = 1;
nodes = (
"571 -80 LINE",
"391 -1 LINE",
"548 39 OFFCURVE",
"660 200 OFFCURVE",
"660 406 CURVE SMOOTH",
"660 574 OFFCURVE",
"566 703 OFFCURVE",
"398 703 CURVE SMOOTH",
"211 703 OFFCURVE",
"62 518 OFFCURVE",
"62 286 CURVE SMOOTH",
"62 136 OFFCURVE",
"122 51 OFFCURVE",
"251 -7 CURVE SMOOTH",
"553 -145 LINE"
);
},
{
closed = 1;
nodes = (
"590 201 OFFCURVE",
"474 45 OFFCURVE",
"326 45 CURVE SMOOTH",
"207 45 OFFCURVE",
"132 142 OFFCURVE",
"132 288 CURVE SMOOTH",
"132 489 OFFCURVE",
"248 644 OFFCURVE",
"395 644 CURVE SMOOTH",
"515 644 OFFCURVE",
"590 548 OFFCURVE",
"590 402 CURVE SMOOTH"
);
}
);
width = 690;
}
);
note = Q;
unicode = 0051;
},
{
glyphname = R;
layers = (
{
layerId = "3C7D841C-FDC1-4B34-88F9-2F856A81F5AE";
paths = (
{
closed = 1;
nodes = (
"505 634 OFFCURVE",
"423 690 OFFCURVE",
"292 690 CURVE SMOOTH",
"159 690 LINE",
"49 0 LINE",
"117 0 LINE",
"165 305 LINE",
"243 305 LINE",
"417 -7 LINE",
"486 8 LINE",
"317 313 LINE",
"432 334 OFFCURVE",
"505 411 OFFCURVE",
"505 521 CURVE SMOOTH"
);
},
{
closed = 1;
nodes = (
"437 425 OFFCURVE",
"371 363 OFFCURVE",
"254 363 CURVE SMOOTH",
"175 363 LINE",
"217 631 LINE",
"291 631 LINE SMOOTH",
"387 631 OFFCURVE",
"437 591 OFFCURVE",
"437 515 CURVE SMOOTH"
);
}
);
width = 540;
}
);
note = R;
unicode = 0052;
},
{
glyphname = S;
layers = (
{
layerId = "3C7D841C-FDC1-4B34-88F9-2F856A81F5AE";
paths = (
{
closed = 1;
nodes = (
"471 656 LINE",
"433 679 OFFCURVE",
"378 699 OFFCURVE",
"312 699 CURVE SMOOTH",
"189 699 OFFCURVE",
"107 618 OFFCURVE",
"107 512 CURVE SMOOTH",
"107 430 OFFCURVE",
"150 387 OFFCURVE",
"259 322 CURVE SMOOTH",
"343 272 OFFCURVE",
"367 241 OFFCURVE",
"367 182 CURVE SMOOTH",
"367 102 OFFCURVE",
"303 49 OFFCURVE",
"219 49 CURVE SMOOTH",
"154 49 OFFCURVE",
"90 76 OFFCURVE",
"41 112 CURVE",
"25 46 LINE",
"68 17 OFFCURVE",
"140 -9 OFFCURVE",
"215 -9 CURVE SMOOTH",
"336 -9 OFFCURVE",
"436 66 OFFCURVE",
"436 191 CURVE SMOOTH",
"436 271 OFFCURVE",
"399 321 OFFCURVE",
"288 387 CURVE SMOOTH",
"205 436 OFFCURVE",
"174 469 OFFCURVE",
"174 520 CURVE SMOOTH",
"174 584 OFFCURVE",
"220 641 OFFCURVE",
"306 641 CURVE SMOOTH",
"363 641 OFFCURVE",
"413 619 OFFCURVE",
"455 590 CURVE"
);
}
);
width = 490;
}
);
note = S;
unicode = 0053;
},
{
glyphname = Scaron;
layers = (
{
layerId = "3C7D841C-FDC1-4B34-88F9-2F856A81F5AE";
paths = (
{
closed = 1;
nodes = (
"471 656 LINE",
"433 679 OFFCURVE",
"378 699 OFFCURVE",
"312 699 CURVE SMOOTH",
"189 699 OFFCURVE",
"107 618 OFFCURVE",
"107 512 CURVE SMOOTH",
"107 430 OFFCURVE",
"150 387 OFFCURVE",
"259 322 CURVE SMOOTH",
"343 272 OFFCURVE",
"367 241 OFFCURVE",
"367 182 CURVE SMOOTH",
"367 102 OFFCURVE",
"303 49 OFFCURVE",
"219 49 CURVE SMOOTH",
"154 49 OFFCURVE",
"90 76 OFFCURVE",
"41 112 CURVE",
"25 46 LINE",
"68 17 OFFCURVE",
"140 -9 OFFCURVE",
"215 -9 CURVE SMOOTH",
"336 -9 OFFCURVE",
"436 66 OFFCURVE",
"436 191 CURVE SMOOTH",
"436 271 OFFCURVE",
"399 321 OFFCURVE",
"288 387 CURVE SMOOTH",
"205 436 OFFCURVE",
"174 469 OFFCURVE",
"174 520 CURVE SMOOTH",
"174 584 OFFCURVE",
"220 641 OFFCURVE",
"306 641 CURVE SMOOTH",
"363 641 OFFCURVE",
"413 619 OFFCURVE",
"455 590 CURVE"
);
},
{
closed = 1;
nodes = (
"474 896 LINE",
"430 896 LINE",
"326 812 LINE",
"244 899 LINE",
"209 891 LINE",
"286 751 LINE",
"347 751 LINE"
);
}
);
width = 490;
}
);
note = Scaron;
unicode = 0160;
},
{
glyphname = T;
layers = (
{
layerId = "3C7D841C-FDC1-4B34-88F9-2F856A81F5AE";
paths = (
{
closed = 1;
nodes = (
"580 631 LINE",
"580 690 LINE",
"102 690 LINE",
"92 631 LINE",
"301 631 LINE",
"201 0 LINE",
"269 0 LINE",
"368 631 LINE"
);
}
);
width = 541;
}
);
note = T;
unicode = 0054;
},
{
glyphname = U;
layers = (
{
layerId = "3C7D841C-FDC1-4B34-88F9-2F856A81F5AE";
paths = (
{
closed = 1;
nodes = (
"652 690 LINE",
"585 690 LINE",
"515 251 LINE SMOOTH",
"495 123 OFFCURVE",
"428 49 OFFCURVE",
"313 49 CURVE SMOOTH",
"206 49 OFFCURVE",
"147 111 OFFCURVE",
"147 215 CURVE SMOOTH",
"147 233 OFFCURVE",
"149 256 OFFCURVE",
"152 276 CURVE SMOOTH",
"217 690 LINE",
"150 690 LINE",
"86 285 LINE SMOOTH",
"82 260 OFFCURVE",
"80 232 OFFCURVE",
"80 210 CURVE SMOOTH",
"80 66 OFFCURVE",
"171 -11 OFFCURVE",
"309 -11 CURVE SMOOTH",
"454 -11 OFFCURVE",
"555 77 OFFCURVE",
"581 239 CURVE SMOOTH"
);
}
);
width = 658;
}
);
note = U;
unicode = 0055;
},
{
glyphname = Uacute;
layers = (
{
layerId = "3C7D841C-FDC1-4B34-88F9-2F856A81F5AE";
paths = (
{
closed = 1;
nodes = (
"652 690 LINE",
"585 690 LINE",
"515 251 LINE SMOOTH",
"495 123 OFFCURVE",
"428 49 OFFCURVE",
"313 49 CURVE SMOOTH",
"206 49 OFFCURVE",
"147 111 OFFCURVE",
"147 215 CURVE SMOOTH",
"147 233 OFFCURVE",
"149 256 OFFCURVE",
"152 276 CURVE SMOOTH",
"217 690 LINE",
"150 690 LINE",
"86 285 LINE SMOOTH",
"82 260 OFFCURVE",
"80 232 OFFCURVE",
"80 210 CURVE SMOOTH",
"80 66 OFFCURVE",
"171 -11 OFFCURVE",
"309 -11 CURVE SMOOTH",
"454 -11 OFFCURVE",
"555 77 OFFCURVE",
"581 239 CURVE SMOOTH"
);
},
{
closed = 1;
nodes = (
"551 862 LINE",
"461 881 LINE",
"342 728 LINE",
"396 728 LINE"
);
}
);
width = 658;
}
);
note = Uacute;
unicode = 00DA;
},
{
glyphname = Ucircumflex;
layers = (
{
layerId = "3C7D841C-FDC1-4B34-88F9-2F856A81F5AE";
paths = (
{
closed = 1;
nodes = (
"652 690 LINE",
"585 690 LINE",
"515 251 LINE SMOOTH",
"495 123 OFFCURVE",
"428 49 OFFCURVE",
"313 49 CURVE SMOOTH",
"206 49 OFFCURVE",
"147 111 OFFCURVE",
"147 215 CURVE SMOOTH",
"147 233 OFFCURVE",
"149 256 OFFCURVE",
"152 276 CURVE SMOOTH",
"217 690 LINE",
"150 690 LINE",
"86 285 LINE SMOOTH",
"82 260 OFFCURVE",
"80 232 OFFCURVE",
"80 210 CURVE SMOOTH",
"80 66 OFFCURVE",
"171 -11 OFFCURVE",
"309 -11 CURVE SMOOTH",
"454 -11 OFFCURVE",
"555 77 OFFCURVE",
"581 239 CURVE SMOOTH"
);
},
{
closed = 1;
nodes = (
"529 736 LINE",
"452 877 LINE",
"391 877 LINE",
"263 732 LINE",
"307 732 LINE",
"413 815 LINE",
"495 729 LINE"
);
}
);
width = 658;
}
);
note = Ucircumflex;
unicode = 00DB;
},
{
glyphname = Udieresis;
layers = (
{
layerId = "3C7D841C-FDC1-4B34-88F9-2F856A81F5AE";
paths = (
{
closed = 1;
nodes = (
"652 690 LINE",
"585 690 LINE",
"515 251 LINE SMOOTH",
"495 123 OFFCURVE",
"428 49 OFFCURVE",
"313 49 CURVE SMOOTH",
"206 49 OFFCURVE",
"147 111 OFFCURVE",
"147 215 CURVE SMOOTH",
"147 233 OFFCURVE",
"149 256 OFFCURVE",
"152 276 CURVE SMOOTH",
"217 690 LINE",
"150 690 LINE",
"86 285 LINE SMOOTH",
"82 260 OFFCURVE",
"80 232 OFFCURVE",
"80 210 CURVE SMOOTH",
"80 66 OFFCURVE",
"171 -11 OFFCURVE",
"309 -11 CURVE SMOOTH",
"454 -11 OFFCURVE",
"555 77 OFFCURVE",
"581 239 CURVE SMOOTH"
);
},
{
closed = 1;
nodes = (
"536 739 LINE",
"550 827 LINE",
"467 827 LINE",
"453 739 LINE"
);
},
{
closed = 1;
nodes = (
"363 739 LINE",
"378 827 LINE",
"295 827 LINE",
"281 739 LINE"
);
}
);
width = 658;
}
);
note = Udieresis;
unicode = 00DC;
},
{
glyphname = Ugrave;
layers = (
{
layerId = "3C7D841C-FDC1-4B34-88F9-2F856A81F5AE";
paths = (
{
closed = 1;
nodes = (
"652 690 LINE",
"585 690 LINE",
"515 251 LINE SMOOTH",
"495 123 OFFCURVE",
"428 49 OFFCURVE",
"313 49 CURVE SMOOTH",
"206 49 OFFCURVE",
"147 111 OFFCURVE",
"147 215 CURVE SMOOTH",
"147 233 OFFCURVE",
"149 256 OFFCURVE",
"152 276 CURVE SMOOTH",
"217 690 LINE",
"150 690 LINE",
"86 285 LINE SMOOTH",
"82 260 OFFCURVE",
"80 232 OFFCURVE",
"80 210 CURVE SMOOTH",
"80 66 OFFCURVE",
"171 -11 OFFCURVE",
"309 -11 CURVE SMOOTH",
"454 -11 OFFCURVE",
"555 77 OFFCURVE",
"581 239 CURVE SMOOTH"
);
},
{
closed = 1;
nodes = (
"439 728 LINE",
"365 881 LINE",
"279 862 LINE",
"395 728 LINE"
);
}
);
width = 658;
}
);
note = Ugrave;
unicode = 00D9;
},
{
glyphname = V;
layers = (
{
layerId = "3C7D841C-FDC1-4B34-88F9-2F856A81F5AE";
paths = (
{
closed = 1;
nodes = (
"671 690 LINE",
"599 690 LINE",
"292 93 LINE",
"171 697 LINE",
"104 682 LINE",
"250 -4 LINE",
"304 -4 LINE"
);
}
);
width = 634;
}
);
note = V;
unicode = 0056;
},
{
glyphname = W;
layers = (
{
layerId = "3C7D841C-FDC1-4B34-88F9-2F856A81F5AE";
paths = (
{
closed = 1;
nodes = (
"1013 690 LINE",
"941 690 LINE",
"689 113 LINE",
"597 690 LINE",
"530 690 LINE",
"255 113 LINE",
"185 697 LINE",
"115 682 LINE",
"207 0 LINE",
"261 0 LINE",
"547 590 LINE",
"646 0 LINE",
"700 0 LINE"
);
}
);
width = 983;
}
);
note = W;
unicode = 0057;
},
{
glyphname = X;
layers = (
{
layerId = "3C7D841C-FDC1-4B34-88F9-2F856A81F5AE";
paths = (
{
closed = 1;
nodes = (
"613 690 LINE",
"536 690 LINE",
"325 415 LINE",
"195 695 LINE",
"127 681 LINE",
"282 362 LINE",
"-5 0 LINE",
"72 0 LINE",
"309 307 LINE",
"455 -6 LINE",
"524 9 LINE",
"354 361 LINE"
);
}
);
width = 597;
}
);
note = X;
unicode = 0058;
},
{
glyphname = Y;
layers = (
{
layerId = "3C7D841C-FDC1-4B34-88F9-2F856A81F5AE";
paths = (
{
closed = 1;
nodes = (
"634 690 LINE",
"558 690 LINE",
"312 347 LINE",
"170 697 LINE",
"101 683 LINE",
"269 286 LINE",
"224 0 LINE",
"291 0 LINE",
"336 287 LINE"
);
}
);
width = 589;
}
);
note = Y;
unicode = 0059;
},
{
glyphname = Yacute;
layers = (
{
layerId = "3C7D841C-FDC1-4B34-88F9-2F856A81F5AE";
paths = (
{
closed = 1;
nodes = (
"634 690 LINE",
"558 690 LINE",
"312 347 LINE",
"170 697 LINE",
"101 683 LINE",
"269 286 LINE",
"224 0 LINE",
"291 0 LINE",
"336 287 LINE"
);
},
{
closed = 1;
nodes = (
"535 857 LINE",
"445 876 LINE",
"326 723 LINE",
"380 723 LINE"
);
}
);
width = 589;
}
);
note = Yacute;
unicode = 00DD;
},
{
glyphname = Ydieresis;
layers = (
{
layerId = "3C7D841C-FDC1-4B34-88F9-2F856A81F5AE";
paths = (
{
closed = 1;
nodes = (
"634 690 LINE",
"558 690 LINE",
"312 347 LINE",
"170 697 LINE",
"101 683 LINE",
"269 286 LINE",
"224 0 LINE",
"291 0 LINE",
"336 287 LINE"
);
},
{
closed = 1;
nodes = (
"499 739 LINE",
"513 827 LINE",
"430 827 LINE",
"416 739 LINE"
);
},
{
closed = 1;
nodes = (
"326 739 LINE",
"341 827 LINE",
"258 827 LINE",
"244 739 LINE"
);
}
);
width = 589;
}
);
note = Ydieresis;
unicode = 0178;
},
{
glyphname = Z;
layers = (
{
layerId = "3C7D841C-FDC1-4B34-88F9-2F856A81F5AE";
paths = (
{
closed = 1;
nodes = (
"586 690 LINE",
"145 690 LINE",
"145 632 LINE",
"494 632 LINE",
"25 47 LINE",
"18 0 LINE",
"486 0 LINE",
"486 58 LINE",
"111 58 LINE",
"579 643 LINE"
);
}
);
width = 572;
}
);
note = Z;
unicode = 005A;
},
{
glyphname = Zcaron;
layers = (
{
layerId = "3C7D841C-FDC1-4B34-88F9-2F856A81F5AE";
paths = (
{
closed = 1;
nodes = (
"586 690 LINE",
"145 690 LINE",
"145 632 LINE",
"494 632 LINE",
"25 47 LINE",
"18 0 LINE",
"486 0 LINE",
"486 58 LINE",
"111 58 LINE",
"579 643 LINE"
);
},
{
closed = 1;
nodes = (
"520 886 LINE",
"476 886 LINE",
"372 802 LINE",
"290 889 LINE",
"255 881 LINE",
"332 741 LINE",
"393 741 LINE"
);
}
);
width = 572;
}
);
note = Zcaron;
unicode = 017D;
},
{
glyphname = a;
layers = (
{
layerId = "3C7D841C-FDC1-4B34-88F9-2F856A81F5AE";
paths = (
{
closed = 1;
nodes = (
"334 0 LINE",
"390 0 LINE",
"393 137 LINE",
"444 450 LINE",
"398 469 OFFCURVE",
"356 480 OFFCURVE",
"307 480 CURVE SMOOTH",
"163 480 OFFCURVE",
"39 341 OFFCURVE",
"39 149 CURVE SMOOTH",
"39 47 OFFCURVE",
"87 -10 OFFCURVE",
"162 -10 CURVE SMOOTH",
"218 -10 OFFCURVE",
"271 33 OFFCURVE",
"332 97 CURVE"
);
},
{
closed = 1;
nodes = (
"334 163 LINE",
"260 84 OFFCURVE",
"215 46 OFFCURVE",
"173 46 CURVE SMOOTH",
"130 46 OFFCURVE",
"104 84 OFFCURVE",
"104 155 CURVE SMOOTH",
"104 315 OFFCURVE",
"198 425 OFFCURVE",
"299 425 CURVE SMOOTH",
"332 425 OFFCURVE",
"351 421 OFFCURVE",
"374 411 CURVE"
);
}
);
width = 484;
}
);
note = a;
unicode = 0061;
},
{
glyphname = aacute;
layers = (
{
layerId = "3C7D841C-FDC1-4B34-88F9-2F856A81F5AE";
paths = (
{
closed = 1;
nodes = (
"334 0 LINE",
"390 0 LINE",
"393 137 LINE",
"444 450 LINE",
"398 469 OFFCURVE",
"356 480 OFFCURVE",
"307 480 CURVE SMOOTH",
"163 480 OFFCURVE",
"39 341 OFFCURVE",
"39 149 CURVE SMOOTH",
"39 47 OFFCURVE",
"87 -10 OFFCURVE",
"162 -10 CURVE SMOOTH",
"218 -10 OFFCURVE",
"271 33 OFFCURVE",
"332 97 CURVE"
);
},
{
closed = 1;
nodes = (
"334 163 LINE",
"260 84 OFFCURVE",
"215 46 OFFCURVE",
"173 46 CURVE SMOOTH",
"130 46 OFFCURVE",
"104 84 OFFCURVE",
"104 155 CURVE SMOOTH",
"104 315 OFFCURVE",
"198 425 OFFCURVE",
"299 425 CURVE SMOOTH",
"332 425 OFFCURVE",
"351 421 OFFCURVE",
"374 411 CURVE"
);
},
{
closed = 1;
nodes = (
"464 684 LINE",
"374 703 LINE",
"255 550 LINE",
"309 550 LINE"
);
}
);
width = 484;
}
);
note = aacute;
unicode = 00E1;
},
{
glyphname = acircumflex;
layers = (
{
layerId = "3C7D841C-FDC1-4B34-88F9-2F856A81F5AE";
paths = (
{
closed = 1;
nodes = (
"334 0 LINE",
"390 0 LINE",
"393 137 LINE",
"444 450 LINE",
"398 469 OFFCURVE",
"356 480 OFFCURVE",
"307 480 CURVE SMOOTH",
"163 480 OFFCURVE",
"39 341 OFFCURVE",
"39 149 CURVE SMOOTH",
"39 47 OFFCURVE",
"87 -10 OFFCURVE",
"162 -10 CURVE SMOOTH",
"218 -10 OFFCURVE",
"271 33 OFFCURVE",
"332 97 CURVE"
);
},
{
closed = 1;
nodes = (
"334 163 LINE",
"260 84 OFFCURVE",
"215 46 OFFCURVE",
"173 46 CURVE SMOOTH",
"130 46 OFFCURVE",
"104 84 OFFCURVE",
"104 155 CURVE SMOOTH",
"104 315 OFFCURVE",
"198 425 OFFCURVE",
"299 425 CURVE SMOOTH",
"332 425 OFFCURVE",
"351 421 OFFCURVE",
"374 411 CURVE"
);
},
{
closed = 1;
nodes = (
"428 554 LINE",
"351 695 LINE",
"290 695 LINE",
"162 550 LINE",
"206 550 LINE",
"312 633 LINE",
"394 547 LINE"
);
}
);
width = 484;
}
);
note = acircumflex;
unicode = 00E2;
},
{
glyphname = adieresis;
layers = (
{
layerId = "3C7D841C-FDC1-4B34-88F9-2F856A81F5AE";
paths = (
{
closed = 1;
nodes = (
"334 0 LINE",
"390 0 LINE",
"393 137 LINE",
"444 450 LINE",
"398 469 OFFCURVE",
"356 480 OFFCURVE",
"307 480 CURVE SMOOTH",
"163 480 OFFCURVE",
"39 341 OFFCURVE",
"39 149 CURVE SMOOTH",
"39 47 OFFCURVE",
"87 -10 OFFCURVE",
"162 -10 CURVE SMOOTH",
"218 -10 OFFCURVE",
"271 33 OFFCURVE",
"332 97 CURVE"
);
},
{
closed = 1;
nodes = (
"334 163 LINE",
"260 84 OFFCURVE",
"215 46 OFFCURVE",
"173 46 CURVE SMOOTH",
"130 46 OFFCURVE",
"104 84 OFFCURVE",
"104 155 CURVE SMOOTH",
"104 315 OFFCURVE",
"198 425 OFFCURVE",
"299 425 CURVE SMOOTH",
"332 425 OFFCURVE",
"351 421 OFFCURVE",
"374 411 CURVE"
);
},
{
closed = 1;
nodes = (
"427 557 LINE",
"441 645 LINE",
"358 645 LINE",
"344 557 LINE"
);
},
{
closed = 1;
nodes = (
"254 557 LINE",
"269 645 LINE",
"186 645 LINE",
"172 557 LINE"
);
}
);
width = 484;
}
);
note = adieresis;
unicode = 00E4;
},
{
glyphname = agrave;
layers = (
{
layerId = "3C7D841C-FDC1-4B34-88F9-2F856A81F5AE";
paths = (
{
closed = 1;
nodes = (
"334 0 LINE",
"390 0 LINE",
"393 137 LINE",
"444 450 LINE",
"398 469 OFFCURVE",
"356 480 OFFCURVE",
"307 480 CURVE SMOOTH",
"163 480 OFFCURVE",
"39 341 OFFCURVE",
"39 149 CURVE SMOOTH",
"39 47 OFFCURVE",
"87 -10 OFFCURVE",
"162 -10 CURVE SMOOTH",
"218 -10 OFFCURVE",
"271 33 OFFCURVE",
"332 97 CURVE"
);
},
{
closed = 1;
nodes = (
"334 163 LINE",
"260 84 OFFCURVE",
"215 46 OFFCURVE",
"173 46 CURVE SMOOTH",
"130 46 OFFCURVE",
"104 84 OFFCURVE",
"104 155 CURVE SMOOTH",
"104 315 OFFCURVE",
"198 425 OFFCURVE",
"299 425 CURVE SMOOTH",
"332 425 OFFCURVE",
"351 421 OFFCURVE",
"374 411 CURVE"
);
},
{
closed = 1;
nodes = (
"330 550 LINE",
"256 703 LINE",
"170 684 LINE",
"286 550 LINE"
);
}
);
width = 484;
}
);
note = agrave;
unicode = 00E0;
},
{
glyphname = aring;
layers = (
{
layerId = "3C7D841C-FDC1-4B34-88F9-2F856A81F5AE";
paths = (
{
closed = 1;
nodes = (
"334 0 LINE",
"390 0 LINE",
"393 137 LINE",
"444 450 LINE",
"398 469 OFFCURVE",
"356 480 OFFCURVE",
"307 480 CURVE SMOOTH",
"163 480 OFFCURVE",
"39 341 OFFCURVE",
"39 149 CURVE SMOOTH",
"39 47 OFFCURVE",
"87 -10 OFFCURVE",
"162 -10 CURVE SMOOTH",
"218 -10 OFFCURVE",
"271 33 OFFCURVE",
"332 97 CURVE"
);
},
{
closed = 1;
nodes = (
"334 163 LINE",
"260 84 OFFCURVE",
"215 46 OFFCURVE",
"173 46 CURVE SMOOTH",
"130 46 OFFCURVE",
"104 84 OFFCURVE",
"104 155 CURVE SMOOTH",
"104 315 OFFCURVE",
"198 425 OFFCURVE",
"299 425 CURVE SMOOTH",
"332 425 OFFCURVE",
"351 421 OFFCURVE",
"374 411 CURVE"
);
},
{
closed = 1;
nodes = (
"408 699 OFFCURVE",
"367 743 OFFCURVE",
"311 743 CURVE SMOOTH",
"254 743 OFFCURVE",
"213 699 OFFCURVE",
"213 644 CURVE SMOOTH",
"213 588 OFFCURVE",
"254 548 OFFCURVE",
"311 548 CURVE SMOOTH",
"367 548 OFFCURVE",
"408 588 OFFCURVE",
"408 644 CURVE SMOOTH"
);
},
{
closed = 1;
nodes = (
"368 610 OFFCURVE",
"343 585 OFFCURVE",
"311 585 CURVE SMOOTH",
"278 585 OFFCURVE",
"253 610 OFFCURVE",
"253 644 CURVE SMOOTH",
"253 679 OFFCURVE",
"278 705 OFFCURVE",
"311 705 CURVE SMOOTH",
"343 705 OFFCURVE",
"368 679 OFFCURVE",
"368 644 CURVE SMOOTH"
);
}
);
width = 484;
}
);
note = aring;
unicode = 00E5;
},
{
glyphname = atilde;
layers = (
{
layerId = "3C7D841C-FDC1-4B34-88F9-2F856A81F5AE";
paths = (
{
closed = 1;
nodes = (
"334 0 LINE",
"390 0 LINE",
"393 137 LINE",
"444 450 LINE",
"398 469 OFFCURVE",
"356 480 OFFCURVE",
"307 480 CURVE SMOOTH",
"163 480 OFFCURVE",
"39 341 OFFCURVE",
"39 149 CURVE SMOOTH",
"39 47 OFFCURVE",
"87 -10 OFFCURVE",
"162 -10 CURVE SMOOTH",
"218 -10 OFFCURVE",
"271 33 OFFCURVE",
"332 97 CURVE"
);
},
{
closed = 1;
nodes = (
"334 163 LINE",
"260 84 OFFCURVE",
"215 46 OFFCURVE",
"173 46 CURVE SMOOTH",
"130 46 OFFCURVE",
"104 84 OFFCURVE",
"104 155 CURVE SMOOTH",
"104 315 OFFCURVE",
"198 425 OFFCURVE",
"299 425 CURVE SMOOTH",
"332 425 OFFCURVE",
"351 421 OFFCURVE",
"374 411 CURVE"
);
},
{
closed = 1;
nodes = (
"420 669 LINE",
"406 631 OFFCURVE",
"391 616 OFFCURVE",
"376 616 CURVE SMOOTH",
"360 616 OFFCURVE",
"350 621 OFFCURVE",
"316 642 CURVE SMOOTH",
"289 658 OFFCURVE",
"273 667 OFFCURVE",
"246 667 CURVE SMOOTH",
"207 667 OFFCURVE",
"173 632 OFFCURVE",
"151 563 CURVE",
"195 554 LINE",
"210 593 OFFCURVE",
"224 607 OFFCURVE",
"239 607 CURVE SMOOTH",
"255 607 OFFCURVE",
"265 602 OFFCURVE",
"299 581 CURVE SMOOTH",
"327 565 OFFCURVE",
"343 556 OFFCURVE",
"369 556 CURVE SMOOTH",
"408 556 OFFCURVE",
"442 591 OFFCURVE",
"464 660 CURVE"
);
}
);
width = 484;
}
);
note = atilde;
unicode = 00E3;
},
{
glyphname = ae;
layers = (
{
layerId = "3C7D841C-FDC1-4B34-88F9-2F856A81F5AE";
paths = (
{
closed = 1;
nodes = (
"392 284 LINE",
"416 375 OFFCURVE",
"475 432 OFFCURVE",
"532 432 CURVE SMOOTH",
"599 432 OFFCURVE",
"626 376 OFFCURVE",
"619 284 CURVE"
);
},
{
closed = 1;
nodes = (
"318 232 OFFCURVE",
"316 210 OFFCURVE",
"316 187 CURVE SMOOTH",
"316 166 OFFCURVE",
"318 146 OFFCURVE",
"322 128 CURVE",
"261 76 OFFCURVE",
"207 45 OFFCURVE",
"161 45 CURVE SMOOTH",
"115 45 OFFCURVE",
"87 69 OFFCURVE",
"87 115 CURVE SMOOTH",
"87 180 OFFCURVE",
"139 236 OFFCURVE",
"321 252 CURVE"
);
},
{
closed = 1;
nodes = (
"330 299 LINE",
"92 281 OFFCURVE",
"22 204 OFFCURVE",
"22 110 CURVE SMOOTH",
"22 31 OFFCURVE",
"76 -9 OFFCURVE",
"148 -9 CURVE SMOOTH",
"210 -9 OFFCURVE",
"278 28 OFFCURVE",
"338 80 CURVE",
"366 22 OFFCURVE",
"419 -10 OFFCURVE",
"491 -10 CURVE SMOOTH",
"551 -10 OFFCURVE",
"600 9 OFFCURVE",
"650 44 CURVE",
"650 105 LINE",
"594 65 OFFCURVE",
"552 45 OFFCURVE",
"500 45 CURVE SMOOTH",
"425 45 OFFCURVE",
"381 98 OFFCURVE",
"381 193 CURVE SMOOTH",
"381 208 OFFCURVE",
"382 222 OFFCURVE",
"383 235 CURVE",
"678 235 LINE",
"682 258 OFFCURVE",
"685 284 OFFCURVE",
"685 307 CURVE SMOOTH",
"685 419 OFFCURVE",
"631 483 OFFCURVE",
"535 483 CURVE SMOOTH",
"482 483 OFFCURVE",
"431 455 OFFCURVE",
"392 406 CURVE",
"379 455 OFFCURVE",
"338 483 OFFCURVE",
"262 483 CURVE SMOOTH",
"207 483 OFFCURVE",
"155 466 OFFCURVE",
"108 445 CURVE",
"108 386 LINE",
"163 413 OFFCURVE",
"210 428 OFFCURVE",
"255 428 CURVE SMOOTH",
"319 428 OFFCURVE",
"345 397 OFFCURVE",
"334 325 CURVE SMOOTH"
);
}
);
width = 723;
}
);
note = ae;
unicode = 00E6;
},
{
glyphname = b;
layers = (
{
layerId = "3C7D841C-FDC1-4B34-88F9-2F856A81F5AE";
paths = (
{
closed = 1;
nodes = (
"42 27 LINE",
"88 8 OFFCURVE",
"139 -6 OFFCURVE",
"188 -6 CURVE SMOOTH",
"332 -6 OFFCURVE",
"449 121 OFFCURVE",
"449 309 CURVE SMOOTH",
"449 421 OFFCURVE",
"395 483 OFFCURVE",
"313 483 CURVE SMOOTH",
"255 483 OFFCURVE",
"210 447 OFFCURVE",
"164 398 CURVE",
"215 718 LINE",
"150 706 LINE"
);
},
{
closed = 1;
nodes = (
"153 325 LINE",
"215 393 OFFCURVE",
"258 427 OFFCURVE",
"302 427 CURVE SMOOTH",
"354 427 OFFCURVE",
"384 380 OFFCURVE",
"384 302 CURVE SMOOTH",
"384 142 OFFCURVE",
"296 48 OFFCURVE",
"197 48 CURVE SMOOTH",
"165 48 OFFCURVE",
"139 54 OFFCURVE",
"112 66 CURVE"
);
}
);
width = 488;
}
);
note = b;
unicode = 0062;
},
{
glyphname = c;
layers = (
{
layerId = "3C7D841C-FDC1-4B34-88F9-2F856A81F5AE";
paths = (
{
closed = 1;
nodes = (
"403 443 LINE",
"370 466 OFFCURVE",
"331 483 OFFCURVE",
"275 483 CURVE SMOOTH",
"141 483 OFFCURVE",
"41 347 OFFCURVE",
"41 189 CURVE SMOOTH",
"41 63 OFFCURVE",
"115 -10 OFFCURVE",
"222 -10 CURVE SMOOTH",
"268 -10 OFFCURVE",
"310 5 OFFCURVE",
"348 31 CURVE",
"348 91 LINE",
"303 60 OFFCURVE",
"269 46 OFFCURVE",
"229 46 CURVE SMOOTH",
"154 46 OFFCURVE",
"105 99 OFFCURVE",
"105 193 CURVE SMOOTH",
"105 317 OFFCURVE",
"181 427 OFFCURVE",
"271 427 CURVE SMOOTH",
"317 427 OFFCURVE",
"350 409 OFFCURVE",
"386 380 CURVE"
);
}
);
width = 414;
}
);
note = c;
unicode = 0063;
},
{
glyphname = ccedilla;
layers = (
{
layerId = "3C7D841C-FDC1-4B34-88F9-2F856A81F5AE";
paths = (
{
closed = 1;
nodes = (
"403 443 LINE",
"370 466 OFFCURVE",
"331 483 OFFCURVE",
"275 483 CURVE SMOOTH",
"141 483 OFFCURVE",
"41 347 OFFCURVE",
"41 189 CURVE SMOOTH",
"41 63 OFFCURVE",
"115 -10 OFFCURVE",
"222 -10 CURVE SMOOTH",
"268 -10 OFFCURVE",
"310 5 OFFCURVE",
"348 31 CURVE",
"348 91 LINE",
"303 60 OFFCURVE",
"269 46 OFFCURVE",
"229 46 CURVE SMOOTH",
"154 46 OFFCURVE",
"105 99 OFFCURVE",
"105 193 CURVE SMOOTH",
"105 317 OFFCURVE",
"181 427 OFFCURVE",
"271 427 CURVE SMOOTH",
"317 427 OFFCURVE",
"350 409 OFFCURVE",
"386 380 CURVE"
);
},
{
closed = 1;
nodes = (
"252 -70 LINE",
"169 -50 LINE",
"63 -185 LINE",
"112 -185 LINE"
);
}
);
width = 414;
}
);
note = ccedilla;
unicode = 00E7;
},
{
glyphname = d;
layers = (
{
layerId = "3C7D841C-FDC1-4B34-88F9-2F856A81F5AE";
paths = (
{
closed = 1;
nodes = (
"489 718 LINE",
"423 706 LINE",
"386 464 LINE",
"361 472 OFFCURVE",
"333 480 OFFCURVE",
"298 480 CURVE SMOOTH",
"156 480 OFFCURVE",
"39 352 OFFCURVE",
"39 165 CURVE SMOOTH",
"39 53 OFFCURVE",
"93 -10 OFFCURVE",
"175 -10 CURVE SMOOTH",
"234 -10 OFFCURVE",
"282 28 OFFCURVE",
"335 87 CURVE",
"337 0 LINE",
"394 0 LINE",
"397 133 LINE"
);
},
{
closed = 1;
nodes = (
"335 148 LINE",
"273 81 OFFCURVE",
"230 46 OFFCURVE",
"186 46 CURVE SMOOTH",
"134 46 OFFCURVE",
"104 93 OFFCURVE",
"104 171 CURVE SMOOTH",
"104 331 OFFCURVE",
"193 425 OFFCURVE",
"292 425 CURVE SMOOTH",
"324 425 OFFCURVE",
"348 419 OFFCURVE",
"377 407 CURVE"
);
}
);
width = 488;
}
);
note = d;
unicode = 0064;
},
{
glyphname = eth;
layers = (
{
layerId = "3C7D841C-FDC1-4B34-88F9-2F856A81F5AE";
paths = (
{
closed = 1;
nodes = (
"368 159 OFFCURVE",
"296 42 OFFCURVE",
"210 42 CURVE SMOOTH",
"147 42 OFFCURVE",
"106 89 OFFCURVE",
"106 179 CURVE SMOOTH",
"106 295 OFFCURVE",
"167 394 OFFCURVE",
"248 394 CURVE SMOOTH",
"306 394 OFFCURVE",
"345 364 OFFCURVE",
"387 310 CURVE"
);
},
{
closed = 1;
nodes = (
"338 574 LINE",
"373 529 OFFCURVE",
"392 470 OFFCURVE",
"392 388 CURVE SMOOTH",
"392 384 OFFCURVE",
"392 380 OFFCURVE",
"392 376 CURVE",
"354 418 OFFCURVE",
"311 447 OFFCURVE",
"250 447 CURVE SMOOTH",
"134 447 OFFCURVE",
"41 326 OFFCURVE",
"41 181 CURVE SMOOTH",
"41 55 OFFCURVE",
"114 -10 OFFCURVE",
"204 -10 CURVE SMOOTH",
"257 -10 OFFCURVE",
"302 13 OFFCURVE",
"337 48 CURVE SMOOTH",
"410 121 OFFCURVE",
"454 245 OFFCURVE",
"454 386 CURVE SMOOTH",
"454 487 OFFCURVE",
"426 564 OFFCURVE",
"374 621 CURVE",
"440 706 LINE",
"390 718 LINE",
"340 652 LINE",
"306 680 OFFCURVE",
"265 702 OFFCURVE",
"217 719 CURVE",
"205 662 LINE",
"245 647 OFFCURVE",
"279 629 OFFCURVE",
"306 607 CURVE",
"233 511 LINE",
"289 511 LINE"
);
}
);
width = 493;
}
);
note = eth;
unicode = 00F0;
},
{
glyphname = e;
layers = (
{
layerId = "3C7D841C-FDC1-4B34-88F9-2F856A81F5AE";
paths = (
{
closed = 1;
nodes = (
"116 284 LINE",
"140 376 OFFCURVE",
"199 432 OFFCURVE",
"256 432 CURVE SMOOTH",
"323 432 OFFCURVE",
"350 376 OFFCURVE",
"343 284 CURVE"
);
},
{
closed = 1;
nodes = (
"402 235 LINE",
"406 258 OFFCURVE",
"409 284 OFFCURVE",
"409 307 CURVE SMOOTH",
"409 419 OFFCURVE",
"355 483 OFFCURVE",
"259 483 CURVE SMOOTH",
"149 483 OFFCURVE",
"40 366 OFFCURVE",
"40 187 CURVE SMOOTH",
"40 63 OFFCURVE",
"107 -10 OFFCURVE",
"215 -10 CURVE SMOOTH",
"275 -10 OFFCURVE",
"324 9 OFFCURVE",
"374 44 CURVE",
"374 105 LINE",
"318 65 OFFCURVE",
"276 45 OFFCURVE",
"224 45 CURVE SMOOTH",
"149 45 OFFCURVE",
"105 99 OFFCURVE",
"105 191 CURVE SMOOTH",
"105 206 OFFCURVE",
"106 221 OFFCURVE",
"107 235 CURVE"
);
}
);
width = 447;
}
);
note = e;
unicode = 0065;
},
{
glyphname = eacute;
layers = (
{
layerId = "3C7D841C-FDC1-4B34-88F9-2F856A81F5AE";
paths = (
{
closed = 1;
nodes = (
"444 684 LINE",
"354 703 LINE",
"235 550 LINE",
"289 550 LINE"
);
},
{
closed = 1;
nodes = (
"116 284 LINE",
"140 376 OFFCURVE",
"199 432 OFFCURVE",
"256 432 CURVE SMOOTH",
"323 432 OFFCURVE",
"350 376 OFFCURVE",
"343 284 CURVE"
);
},
{
closed = 1;
nodes = (
"402 235 LINE",
"406 258 OFFCURVE",
"409 284 OFFCURVE",
"409 307 CURVE SMOOTH",
"409 419 OFFCURVE",
"355 483 OFFCURVE",
"259 483 CURVE SMOOTH",
"149 483 OFFCURVE",
"40 366 OFFCURVE",
"40 187 CURVE SMOOTH",
"40 63 OFFCURVE",
"107 -10 OFFCURVE",
"215 -10 CURVE SMOOTH",
"275 -10 OFFCURVE",
"324 9 OFFCURVE",
"374 44 CURVE",
"374 105 LINE",
"318 65 OFFCURVE",
"276 45 OFFCURVE",
"224 45 CURVE SMOOTH",
"149 45 OFFCURVE",
"105 99 OFFCURVE",
"105 191 CURVE SMOOTH",
"105 206 OFFCURVE",
"106 221 OFFCURVE",
"107 235 CURVE"
);
}
);
width = 447;
}
);
note = eacute;
unicode = 00E9;
},
{
glyphname = ecircumflex;
layers = (
{
layerId = "3C7D841C-FDC1-4B34-88F9-2F856A81F5AE";
paths = (
{
closed = 1;
nodes = (
"410 554 LINE",
"333 695 LINE",
"272 695 LINE",
"144 550 LINE",
"188 550 LINE",
"294 633 LINE",
"376 547 LINE"
);
},
{
closed = 1;
nodes = (
"116 284 LINE",
"140 376 OFFCURVE",
"199 432 OFFCURVE",
"256 432 CURVE SMOOTH",
"323 432 OFFCURVE",
"350 376 OFFCURVE",
"343 284 CURVE"
);
},
{
closed = 1;
nodes = (
"402 235 LINE",
"406 258 OFFCURVE",
"409 284 OFFCURVE",
"409 307 CURVE SMOOTH",
"409 419 OFFCURVE",
"355 483 OFFCURVE",
"259 483 CURVE SMOOTH",
"149 483 OFFCURVE",
"40 366 OFFCURVE",
"40 187 CURVE SMOOTH",
"40 63 OFFCURVE",
"107 -10 OFFCURVE",
"215 -10 CURVE SMOOTH",
"275 -10 OFFCURVE",
"324 9 OFFCURVE",
"374 44 CURVE",
"374 105 LINE",
"318 65 OFFCURVE",
"276 45 OFFCURVE",
"224 45 CURVE SMOOTH",
"149 45 OFFCURVE",
"105 99 OFFCURVE",
"105 191 CURVE SMOOTH",
"105 206 OFFCURVE",
"106 221 OFFCURVE",
"107 235 CURVE"
);
}
);
width = 447;
}
);
note = ecircumflex;
unicode = 00EA;
},
{
glyphname = edieresis;
layers = (
{
layerId = "3C7D841C-FDC1-4B34-88F9-2F856A81F5AE";
paths = (
{
closed = 1;
nodes = (
"409 557 LINE",
"423 645 LINE",
"340 645 LINE",
"326 557 LINE"
);
},
{
closed = 1;
nodes = (
"236 557 LINE",
"251 645 LINE",
"168 645 LINE",
"154 557 LINE"
);
},
{
closed = 1;
nodes = (
"116 284 LINE",
"140 376 OFFCURVE",
"199 432 OFFCURVE",
"256 432 CURVE SMOOTH",
"323 432 OFFCURVE",
"350 376 OFFCURVE",
"343 284 CURVE"
);
},
{
closed = 1;
nodes = (
"402 235 LINE",
"406 258 OFFCURVE",
"409 284 OFFCURVE",
"409 307 CURVE SMOOTH",
"409 419 OFFCURVE",
"355 483 OFFCURVE",
"259 483 CURVE SMOOTH",
"149 483 OFFCURVE",
"40 366 OFFCURVE",
"40 187 CURVE SMOOTH",
"40 63 OFFCURVE",
"107 -10 OFFCURVE",
"215 -10 CURVE SMOOTH",
"275 -10 OFFCURVE",
"324 9 OFFCURVE",
"374 44 CURVE",
"374 105 LINE",
"318 65 OFFCURVE",
"276 45 OFFCURVE",
"224 45 CURVE SMOOTH",
"149 45 OFFCURVE",
"105 99 OFFCURVE",
"105 191 CURVE SMOOTH",
"105 206 OFFCURVE",
"106 221 OFFCURVE",
"107 235 CURVE"
);
}
);
width = 447;
}
);
note = edieresis;
unicode = 00EB;
},
{
glyphname = egrave;
layers = (
{
layerId = "3C7D841C-FDC1-4B34-88F9-2F856A81F5AE";
paths = (
{
closed = 1;
nodes = (
"307 550 LINE",
"233 703 LINE",
"147 684 LINE",
"263 550 LINE"
);
},
{
closed = 1;
nodes = (
"116 284 LINE",
"140 376 OFFCURVE",
"199 432 OFFCURVE",
"256 432 CURVE SMOOTH",
"323 432 OFFCURVE",
"350 376 OFFCURVE",
"343 284 CURVE"
);
},
{
closed = 1;
nodes = (
"402 235 LINE",
"406 258 OFFCURVE",
"409 284 OFFCURVE",
"409 307 CURVE SMOOTH",
"409 419 OFFCURVE",
"355 483 OFFCURVE",
"259 483 CURVE SMOOTH",
"149 483 OFFCURVE",
"40 366 OFFCURVE",
"40 187 CURVE SMOOTH",
"40 63 OFFCURVE",
"107 -10 OFFCURVE",
"215 -10 CURVE SMOOTH",
"275 -10 OFFCURVE",
"324 9 OFFCURVE",
"374 44 CURVE",
"374 105 LINE",
"318 65 OFFCURVE",
"276 45 OFFCURVE",
"224 45 CURVE SMOOTH",
"149 45 OFFCURVE",
"105 99 OFFCURVE",
"105 191 CURVE SMOOTH",
"105 206 OFFCURVE",
"106 221 OFFCURVE",
"107 235 CURVE"
);
}
);
width = 447;
}
);
note = egrave;
unicode = 00E8;
},
{
glyphname = f;
layers = (
{
layerId = "3C7D841C-FDC1-4B34-88F9-2F856A81F5AE";
paths = (
{
closed = 1;
nodes = (
"333 712 LINE",
"323 714 OFFCURVE",
"308 715 OFFCURVE",
"290 715 CURVE SMOOTH",
"212 715 OFFCURVE",
"165 681 OFFCURVE",
"152 599 CURVE SMOOTH",
"132 473 LINE",
"61 473 LINE",
"53 419 LINE",
"123 419 LINE",
"28 -183 LINE",
"94 -172 LINE",
"187 419 LINE",
"290 419 LINE",
"290 473 LINE",
"195 473 LINE",
"214 590 LINE SMOOTH",
"221 635 OFFCURVE",
"245 659 OFFCURVE",
"289 659 CURVE SMOOTH",
"307 659 OFFCURVE",
"323 657 OFFCURVE",
"333 655 CURVE"
);
}
);
width = 280;
}
);
note = f;
unicode = 0066;
},
{
glyphname = g;
layers = (
{
layerId = "3C7D841C-FDC1-4B34-88F9-2F856A81F5AE";
paths = (
{
closed = 1;
nodes = (
"446 446 LINE",
"401 465 OFFCURVE",
"349 480 OFFCURVE",
"300 480 CURVE SMOOTH",
"156 480 OFFCURVE",
"40 351 OFFCURVE",
"40 166 CURVE SMOOTH",
"40 62 OFFCURVE",
"94 0 OFFCURVE",
"176 0 CURVE SMOOTH",
"235 0 OFFCURVE",
"280 36 OFFCURVE",
"326 86 CURVE",
"314 12 LINE SMOOTH",
"300 -75 OFFCURVE",
"256 -124 OFFCURVE",
"174 -124 CURVE SMOOTH",
"126 -124 OFFCURVE",
"75 -110 OFFCURVE",
"27 -87 CURVE",
"11 -144 LINE",
"56 -164 OFFCURVE",
"114 -180 OFFCURVE",
"169 -180 CURVE SMOOTH",
"287 -180 OFFCURVE",
"358 -116 OFFCURVE",
"379 18 CURVE SMOOTH"
);
},
{
closed = 1;
nodes = (
"337 158 LINE",
"277 91 OFFCURVE",
"233 56 OFFCURVE",
"188 56 CURVE SMOOTH",
"136 56 OFFCURVE",
"105 98 OFFCURVE",
"105 173 CURVE SMOOTH",
"105 329 OFFCURVE",
"193 425 OFFCURVE",
"292 425 CURVE SMOOTH",
"324 425 OFFCURVE",
"348 419 OFFCURVE",
"377 407 CURVE"
);
}
);
width = 488;
}
);
note = g;
unicode = 0067;
},
{
glyphname = h;
layers = (
{
layerId = "3C7D841C-FDC1-4B34-88F9-2F856A81F5AE";
paths = (
{
closed = 1;
nodes = (
"441 446 OFFCURVE",
"401 483 OFFCURVE",
"331 483 CURVE SMOOTH",
"275 483 OFFCURVE",
"218 438 OFFCURVE",
"160 375 CURVE",
"215 718 LINE",
"150 706 LINE",
"38 0 LINE",
"102 0 LINE",
"148 297 LINE",
"218 379 OFFCURVE",
"274 425 OFFCURVE",
"317 425 CURVE SMOOTH",
"357 425 OFFCURVE",
"375 402 OFFCURVE",
"375 362 CURVE SMOOTH",
"375 354 OFFCURVE",
"374 340 OFFCURVE",
"372 330 CURVE",
"320 0 LINE",
"384 0 LINE",
"438 341 LINE SMOOTH",
"440 352 OFFCURVE",
"441 371 OFFCURVE",
"441 380 CURVE SMOOTH"
);
}
);
width = 488;
}
);
note = h;
unicode = 0068;
},
{
glyphname = i;
layers = (
{
layerId = "3C7D841C-FDC1-4B34-88F9-2F856A81F5AE";
paths = (
{
closed = 1;
nodes = (
"222 661 OFFCURVE",
"201 682 OFFCURVE",
"175 682 CURVE SMOOTH",
"149 682 OFFCURVE",
"128 661 OFFCURVE",
"128 634 CURVE SMOOTH",
"128 608 OFFCURVE",
"149 587 OFFCURVE",
"175 587 CURVE SMOOTH",
"201 587 OFFCURVE",
"222 608 OFFCURVE",
"222 634 CURVE SMOOTH"
);
},
{
closed = 1;
nodes = (
"182 473 LINE",
"118 473 LINE",
"42 0 LINE",
"106 0 LINE"
);
}
);
width = 224;
}
);
note = i;
unicode = 0069;
},
{
glyphname = idotless;
layers = (
{
layerId = "3C7D841C-FDC1-4B34-88F9-2F856A81F5AE";
paths = (
{
closed = 1;
nodes = (
"182 473 LINE",
"118 473 LINE",
"42 0 LINE",
"106 0 LINE"
);
}
);
width = 224;
}
);
note = dotlessi;
unicode = 0131;
},
{
glyphname = iacute;
layers = (
{
layerId = "3C7D841C-FDC1-4B34-88F9-2F856A81F5AE";
paths = (
{
closed = 1;
nodes = (
"319 684 LINE",
"241 703 LINE",
"138 550 LINE",
"186 550 LINE"
);
},
{
closed = 1;
nodes = (
"182 473 LINE",
"118 473 LINE",
"42 0 LINE",
"106 0 LINE"
);
}
);
width = 224;
}
);
note = iacute;
unicode = 00ED;
},
{
glyphname = icircumflex;
layers = (
{
layerId = "3C7D841C-FDC1-4B34-88F9-2F856A81F5AE";
paths = (
{
closed = 1;
nodes = (
"279 554 LINE",
"212 695 LINE",
"158 695 LINE",
"40 550 LINE",
"80 550 LINE",
"176 632 LINE",
"249 547 LINE"
);
},
{
closed = 1;
nodes = (
"182 473 LINE",
"118 473 LINE",
"42 0 LINE",
"106 0 LINE"
);
}
);
width = 224;
}
);
note = icircumflex;
unicode = 00EE;
},
{
glyphname = idieresis;
layers = (
{
layerId = "3C7D841C-FDC1-4B34-88F9-2F856A81F5AE";
paths = (
{
closed = 1;
nodes = (
"279 557 LINE",
"293 645 LINE",
"217 645 LINE",
"202 557 LINE"
);
},
{
closed = 1;
nodes = (
"125 557 LINE",
"139 645 LINE",
"63 645 LINE",
"49 557 LINE"
);
},
{
closed = 1;
nodes = (
"182 473 LINE",
"118 473 LINE",
"42 0 LINE",
"106 0 LINE"
);
}
);
width = 224;
}
);
note = idieresis;
unicode = 00EF;
},
{
glyphname = igrave;
layers = (
{
layerId = "3C7D841C-FDC1-4B34-88F9-2F856A81F5AE";
paths = (
{
closed = 1;
nodes = (
"180 550 LINE",
"117 703 LINE",
"42 684 LINE",
"140 550 LINE"
);
},
{
closed = 1;
nodes = (
"182 473 LINE",
"118 473 LINE",
"42 0 LINE",
"106 0 LINE"
);
}
);
width = 224;
}
);
note = igrave;
unicode = 00EC;
},
{
glyphname = j;
layers = (
{
layerId = "3C7D841C-FDC1-4B34-88F9-2F856A81F5AE";
paths = (
{
closed = 1;
nodes = (
"222 661 OFFCURVE",
"201 682 OFFCURVE",
"175 682 CURVE SMOOTH",
"149 682 OFFCURVE",
"128 661 OFFCURVE",
"128 634 CURVE SMOOTH",
"128 608 OFFCURVE",
"149 587 OFFCURVE",
"175 587 CURVE SMOOTH",
"201 587 OFFCURVE",
"222 608 OFFCURVE",
"222 634 CURVE SMOOTH"
);
},
{
closed = 1;
nodes = (
"182 473 LINE",
"118 473 LINE",
"33 -64 LINE SMOOTH",
"26 -105 OFFCURVE",
"5 -124 OFFCURVE",
"-27 -124 CURVE SMOOTH",
"-40 -124 OFFCURVE",
"-54 -122 OFFCURVE",
"-66 -119 CURVE",
"-66 -176 LINE",
"-57 -177 OFFCURVE",
"-39 -180 OFFCURVE",
"-23 -180 CURVE SMOOTH",
"41 -180 OFFCURVE",
"82 -152 OFFCURVE",
"95 -73 CURVE SMOOTH"
);
}
);
width = 224;
}
);
note = j;
unicode = 006A;
},
{
glyphname = k;
layers = (
{
layerId = "3C7D841C-FDC1-4B34-88F9-2F856A81F5AE";
paths = (
{
closed = 1;
nodes = (
"445 473 LINE",
"360 473 LINE",
"145 270 LINE",
"215 718 LINE",
"150 706 LINE",
"38 0 LINE",
"102 0 LINE",
"142 251 LINE",
"319 -7 LINE",
"388 6 LINE",
"210 259 LINE"
);
}
);
width = 437;
}
);
note = k;
unicode = 006B;
},
{
glyphname = l;
layers = (
{
layerId = "3C7D841C-FDC1-4B34-88F9-2F856A81F5AE";
paths = (
{
closed = 1;
nodes = (
"220 718 LINE",
"154 706 LINE",
"42 0 LINE",
"106 0 LINE"
);
}
);
width = 224;
}
);
note = l;
unicode = 006C;
},
{
glyphname = lslash;
layers = (
{
layerId = "3C7D841C-FDC1-4B34-88F9-2F856A81F5AE";
paths = (
{
closed = 1;
nodes = (
"186 353 LINE",
"275 372 LINE",
"285 431 LINE",
"197 412 LINE",
"244 718 LINE",
"177 706 LINE",
"129 399 LINE",
"37 380 LINE",
"38 322 LINE",
"120 339 LINE",
"66 0 LINE",
"130 0 LINE"
);
}
);
width = 271;
}
);
note = lslash;
unicode = 0142;
},
{
glyphname = m;
layers = (
{
layerId = "3C7D841C-FDC1-4B34-88F9-2F856A81F5AE";
paths = (
{
closed = 1;
nodes = (
"425 297 LINE",
"494 379 OFFCURVE",
"550 425 OFFCURVE",
"590 425 CURVE SMOOTH",
"631 425 OFFCURVE",
"647 402 OFFCURVE",
"647 362 CURVE SMOOTH",
"647 354 OFFCURVE",
"645 342 OFFCURVE",
"643 330 CURVE SMOOTH",
"591 0 LINE",
"655 0 LINE",
"709 341 LINE SMOOTH",
"711 354 OFFCURVE",
"712 368 OFFCURVE",
"712 380 CURVE SMOOTH",
"712 446 OFFCURVE",
"674 483 OFFCURVE",
"605 483 CURVE SMOOTH",
"551 483 OFFCURVE",
"494 441 OFFCURVE",
"435 376 CURVE",
"435 377 OFFCURVE",
"435 379 OFFCURVE",
"435 380 CURVE SMOOTH",
"435 446 OFFCURVE",
"400 483 OFFCURVE",
"330 483 CURVE SMOOTH",
"274 483 OFFCURVE",
"214 435 OFFCURVE",
"153 368 CURVE",
"151 473 LINE",
"95 473 LINE",
"92 340 LINE",
"38 0 LINE",
"102 0 LINE",
"148 297 LINE",
"217 379 OFFCURVE",
"274 425 OFFCURVE",
"315 425 CURVE SMOOTH",
"356 425 OFFCURVE",
"370 402 OFFCURVE",
"370 362 CURVE SMOOTH",
"370 354 OFFCURVE",
"368 342 OFFCURVE",
"366 330 CURVE SMOOTH",
"314 0 LINE",
"378 0 LINE"
);
}
);
width = 759;
}
);
note = m;
unicode = 006D;
},
{
glyphname = n;
layers = (
{
layerId = "3C7D841C-FDC1-4B34-88F9-2F856A81F5AE";
paths = (
{
closed = 1;
nodes = (
"441 446 OFFCURVE",
"401 483 OFFCURVE",
"331 483 CURVE SMOOTH",
"273 483 OFFCURVE",
"214 435 OFFCURVE",
"153 368 CURVE",
"151 473 LINE",
"95 473 LINE",
"92 340 LINE",
"38 0 LINE",
"102 0 LINE",
"148 297 LINE",
"218 379 OFFCURVE",
"274 425 OFFCURVE",
"317 425 CURVE SMOOTH",
"357 425 OFFCURVE",
"375 402 OFFCURVE",
"375 362 CURVE SMOOTH",
"375 354 OFFCURVE",
"374 341 OFFCURVE",
"372 330 CURVE SMOOTH",
"320 0 LINE",
"384 0 LINE",
"438 341 LINE SMOOTH",
"440 352 OFFCURVE",
"441 371 OFFCURVE",
"441 380 CURVE SMOOTH"
);
}
);
width = 488;
}
);
note = n;
unicode = 006E;
},
{
glyphname = ntilde;
layers = (
{
layerId = "3C7D841C-FDC1-4B34-88F9-2F856A81F5AE";
paths = (
{
closed = 1;
nodes = (
"441 446 OFFCURVE",
"401 483 OFFCURVE",
"331 483 CURVE SMOOTH",
"273 483 OFFCURVE",
"214 435 OFFCURVE",
"153 368 CURVE",
"151 473 LINE",
"95 473 LINE",
"92 340 LINE",
"38 0 LINE",
"102 0 LINE",
"148 297 LINE",
"218 379 OFFCURVE",
"274 425 OFFCURVE",
"317 425 CURVE SMOOTH",
"357 425 OFFCURVE",
"375 402 OFFCURVE",
"375 362 CURVE SMOOTH",
"375 354 OFFCURVE",
"374 341 OFFCURVE",
"372 330 CURVE SMOOTH",
"320 0 LINE",
"384 0 LINE",
"438 341 LINE SMOOTH",
"440 352 OFFCURVE",
"441 371 OFFCURVE",
"441 380 CURVE SMOOTH"
);
},
{
closed = 1;
nodes = (
"416 669 LINE",
"402 631 OFFCURVE",
"387 616 OFFCURVE",
"372 616 CURVE SMOOTH",
"356 616 OFFCURVE",
"346 621 OFFCURVE",
"312 642 CURVE SMOOTH",
"285 658 OFFCURVE",
"269 667 OFFCURVE",
"242 667 CURVE SMOOTH",
"203 667 OFFCURVE",
"169 632 OFFCURVE",
"147 563 CURVE",
"191 554 LINE",
"206 593 OFFCURVE",
"220 607 OFFCURVE",
"235 607 CURVE SMOOTH",
"251 607 OFFCURVE",
"261 602 OFFCURVE",
"295 581 CURVE SMOOTH",
"323 565 OFFCURVE",
"339 556 OFFCURVE",
"365 556 CURVE SMOOTH",
"404 556 OFFCURVE",
"438 591 OFFCURVE",
"460 660 CURVE"
);
}
);
width = 488;
}
);
note = ntilde;
unicode = 00F1;
},
{
glyphname = o;
layers = (
{
layerId = "3C7D841C-FDC1-4B34-88F9-2F856A81F5AE";
paths = (
{
closed = 1;
nodes = (
"437 409 OFFCURVE",
"372 483 OFFCURVE",
"267 483 CURVE SMOOTH",
"135 483 OFFCURVE",
"41 345 OFFCURVE",
"41 191 CURVE SMOOTH",
"41 64 OFFCURVE",
"105 -10 OFFCURVE",
"210 -10 CURVE SMOOTH",
"343 -10 OFFCURVE",
"437 128 OFFCURVE",
"437 282 CURVE SMOOTH"
);
},
{
closed = 1;
nodes = (
"372 163 OFFCURVE",
"309 43 OFFCURVE",
"215 43 CURVE SMOOTH",
"155 43 OFFCURVE",
"105 86 OFFCURVE",
"105 194 CURVE SMOOTH",
"105 310 OFFCURVE",
"169 430 OFFCURVE",
"263 430 CURVE SMOOTH",
"322 430 OFFCURVE",
"372 387 OFFCURVE",
"372 280 CURVE SMOOTH"
);
}
);
width = 477;
}
);
note = o;
unicode = 006F;
},
{
glyphname = oacute;
layers = (
{
layerId = "3C7D841C-FDC1-4B34-88F9-2F856A81F5AE";
paths = (
{
closed = 1;
nodes = (
"466 684 LINE",
"376 703 LINE",
"257 550 LINE",
"311 550 LINE"
);
},
{
closed = 1;
nodes = (
"437 409 OFFCURVE",
"372 483 OFFCURVE",
"267 483 CURVE SMOOTH",
"135 483 OFFCURVE",
"41 345 OFFCURVE",
"41 191 CURVE SMOOTH",
"41 64 OFFCURVE",
"105 -10 OFFCURVE",
"210 -10 CURVE SMOOTH",
"343 -10 OFFCURVE",
"437 128 OFFCURVE",
"437 282 CURVE SMOOTH"
);
},
{
closed = 1;
nodes = (
"372 163 OFFCURVE",
"309 43 OFFCURVE",
"215 43 CURVE SMOOTH",
"155 43 OFFCURVE",
"105 86 OFFCURVE",
"105 194 CURVE SMOOTH",
"105 310 OFFCURVE",
"169 430 OFFCURVE",
"263 430 CURVE SMOOTH",
"322 430 OFFCURVE",
"372 387 OFFCURVE",
"372 280 CURVE SMOOTH"
);
}
);
width = 477;
}
);
note = oacute;
unicode = 00F3;
},
{
glyphname = ocircumflex;
layers = (
{
layerId = "3C7D841C-FDC1-4B34-88F9-2F856A81F5AE";
paths = (
{
closed = 1;
nodes = (
"437 409 OFFCURVE",
"372 483 OFFCURVE",
"267 483 CURVE SMOOTH",
"135 483 OFFCURVE",
"41 345 OFFCURVE",
"41 191 CURVE SMOOTH",
"41 64 OFFCURVE",
"105 -10 OFFCURVE",
"210 -10 CURVE SMOOTH",
"343 -10 OFFCURVE",
"437 128 OFFCURVE",
"437 282 CURVE SMOOTH"
);
},
{
closed = 1;
nodes = (
"372 163 OFFCURVE",
"309 43 OFFCURVE",
"215 43 CURVE SMOOTH",
"155 43 OFFCURVE",
"105 86 OFFCURVE",
"105 194 CURVE SMOOTH",
"105 310 OFFCURVE",
"169 430 OFFCURVE",
"263 430 CURVE SMOOTH",
"322 430 OFFCURVE",
"372 387 OFFCURVE",
"372 280 CURVE SMOOTH"
);
},
{
closed = 1;
nodes = (
"418 554 LINE",
"341 695 LINE",
"280 695 LINE",
"152 550 LINE",
"196 550 LINE",
"302 633 LINE",
"384 547 LINE"
);
}
);
width = 477;
}
);
note = ocircumflex;
unicode = 00F4;
},
{
glyphname = odieresis;
layers = (
{
layerId = "3C7D841C-FDC1-4B34-88F9-2F856A81F5AE";
paths = (
{
closed = 1;
nodes = (
"437 409 OFFCURVE",
"372 483 OFFCURVE",
"267 483 CURVE SMOOTH",
"135 483 OFFCURVE",
"41 345 OFFCURVE",
"41 191 CURVE SMOOTH",
"41 64 OFFCURVE",
"105 -10 OFFCURVE",
"210 -10 CURVE SMOOTH",
"343 -10 OFFCURVE",
"437 128 OFFCURVE",
"437 282 CURVE SMOOTH"
);
},
{
closed = 1;
nodes = (
"372 163 OFFCURVE",
"309 43 OFFCURVE",
"215 43 CURVE SMOOTH",
"155 43 OFFCURVE",
"105 86 OFFCURVE",
"105 194 CURVE SMOOTH",
"105 310 OFFCURVE",
"169 430 OFFCURVE",
"263 430 CURVE SMOOTH",
"322 430 OFFCURVE",
"372 387 OFFCURVE",
"372 280 CURVE SMOOTH"
);
},
{
closed = 1;
nodes = (
"417 557 LINE",
"431 645 LINE",
"348 645 LINE",
"334 557 LINE"
);
},
{
closed = 1;
nodes = (
"244 557 LINE",
"259 645 LINE",
"176 645 LINE",
"162 557 LINE"
);
}
);
width = 477;
}
);
note = odieresis;
unicode = 00F6;
},
{
glyphname = ograve;
layers = (
{
layerId = "3C7D841C-FDC1-4B34-88F9-2F856A81F5AE";
paths = (
{
closed = 1;
nodes = (
"437 409 OFFCURVE",
"372 483 OFFCURVE",
"267 483 CURVE SMOOTH",
"135 483 OFFCURVE",
"41 345 OFFCURVE",
"41 191 CURVE SMOOTH",
"41 64 OFFCURVE",
"105 -10 OFFCURVE",
"210 -10 CURVE SMOOTH",
"343 -10 OFFCURVE",
"437 128 OFFCURVE",
"437 282 CURVE SMOOTH"
);
},
{
closed = 1;
nodes = (
"372 163 OFFCURVE",
"309 43 OFFCURVE",
"215 43 CURVE SMOOTH",
"155 43 OFFCURVE",
"105 86 OFFCURVE",
"105 194 CURVE SMOOTH",
"105 310 OFFCURVE",
"169 430 OFFCURVE",
"263 430 CURVE SMOOTH",
"322 430 OFFCURVE",
"372 387 OFFCURVE",
"372 280 CURVE SMOOTH"
);
},
{
closed = 1;
nodes = (
"313 550 LINE",
"239 703 LINE",
"153 684 LINE",
"269 550 LINE"
);
}
);
width = 477;
}
);
note = ograve;
unicode = 00F2;
},
{
glyphname = oslash;
layers = (
{
layerId = "3C7D841C-FDC1-4B34-88F9-2F856A81F5AE";
paths = (
{
closed = 1;
nodes = (
"365 349 LINE",
"371 329 OFFCURVE",
"374 306 OFFCURVE",
"374 278 CURVE SMOOTH",
"374 162 OFFCURVE",
"310 41 OFFCURVE",
"214 41 CURVE SMOOTH",
"182 41 OFFCURVE",
"155 52 OFFCURVE",
"135 78 CURVE"
);
},
{
closed = 1;
nodes = (
"112 125 LINE",
"107 145 OFFCURVE",
"104 169 OFFCURVE",
"104 197 CURVE SMOOTH",
"104 311 OFFCURVE",
"168 431 OFFCURVE",
"264 431 CURVE SMOOTH",
"295 431 OFFCURVE",
"324 420 OFFCURVE",
"343 394 CURVE"
);
},
{
closed = 1;
nodes = (
"7 5 LINE",
"60 -7 LINE",
"95 33 LINE",
"124 5 OFFCURVE",
"163 -10 OFFCURVE",
"210 -10 CURVE SMOOTH",
"343 -10 OFFCURVE",
"437 128 OFFCURVE",
"437 282 CURVE SMOOTH",
"437 329 OFFCURVE",
"428 369 OFFCURVE",
"411 400 CURVE",
"471 469 LINE",
"418 481 LINE",
"382 440 LINE",
"353 468 OFFCURVE",
"314 483 OFFCURVE",
"267 483 CURVE SMOOTH",
"135 483 OFFCURVE",
"41 345 OFFCURVE",
"41 191 CURVE SMOOTH",
"41 144 OFFCURVE",
"50 104 OFFCURVE",
"66 73 CURVE"
);
}
);
width = 477;
}
);
note = oslash;
unicode = 00F8;
},
{
glyphname = otilde;
layers = (
{
layerId = "3C7D841C-FDC1-4B34-88F9-2F856A81F5AE";
paths = (
{
closed = 1;
nodes = (
"437 409 OFFCURVE",
"372 483 OFFCURVE",
"267 483 CURVE SMOOTH",
"135 483 OFFCURVE",
"41 345 OFFCURVE",
"41 191 CURVE SMOOTH",
"41 64 OFFCURVE",
"105 -10 OFFCURVE",
"210 -10 CURVE SMOOTH",
"343 -10 OFFCURVE",
"437 128 OFFCURVE",
"437 282 CURVE SMOOTH"
);
},
{
closed = 1;
nodes = (
"372 163 OFFCURVE",
"309 43 OFFCURVE",
"215 43 CURVE SMOOTH",
"155 43 OFFCURVE",
"105 86 OFFCURVE",
"105 194 CURVE SMOOTH",
"105 310 OFFCURVE",
"169 430 OFFCURVE",
"263 430 CURVE SMOOTH",
"322 430 OFFCURVE",
"372 387 OFFCURVE",
"372 280 CURVE SMOOTH"
);
},
{
closed = 1;
nodes = (
"411 669 LINE",
"397 631 OFFCURVE",
"382 616 OFFCURVE",
"367 616 CURVE SMOOTH",
"351 616 OFFCURVE",
"341 621 OFFCURVE",
"307 642 CURVE SMOOTH",
"280 658 OFFCURVE",
"264 667 OFFCURVE",
"237 667 CURVE SMOOTH",
"198 667 OFFCURVE",
"164 632 OFFCURVE",
"142 563 CURVE",
"186 554 LINE",
"201 593 OFFCURVE",
"215 607 OFFCURVE",
"230 607 CURVE SMOOTH",
"246 607 OFFCURVE",
"256 602 OFFCURVE",
"290 581 CURVE SMOOTH",
"318 565 OFFCURVE",
"334 556 OFFCURVE",
"360 556 CURVE SMOOTH",
"399 556 OFFCURVE",
"433 591 OFFCURVE",
"455 660 CURVE"
);
}
);
width = 477;
}
);
note = otilde;
unicode = 00F5;
},
{
glyphname = oe;
layers = (
{
layerId = "3C7D841C-FDC1-4B34-88F9-2F856A81F5AE";
paths = (
{
closed = 1;
nodes = (
"441 284 LINE",
"466 376 OFFCURVE",
"524 432 OFFCURVE",
"581 432 CURVE SMOOTH",
"648 432 OFFCURVE",
"676 376 OFFCURVE",
"668 284 CURVE"
);
},
{
closed = 1;
nodes = (
"372 164 OFFCURVE",
"310 43 OFFCURVE",
"215 43 CURVE SMOOTH",
"157 43 OFFCURVE",
"105 86 OFFCURVE",
"105 191 CURVE SMOOTH",
"105 309 OFFCURVE",
"167 430 OFFCURVE",
"263 430 CURVE SMOOTH",
"320 430 OFFCURVE",
"372 388 OFFCURVE",
"372 283 CURVE SMOOTH"
);
},
{
closed = 1;
nodes = (
"407 29 OFFCURVE",
"461 -10 OFFCURVE",
"541 -10 CURVE SMOOTH",
"600 -10 OFFCURVE",
"650 9 OFFCURVE",
"699 44 CURVE",
"699 105 LINE",
"643 65 OFFCURVE",
"602 45 OFFCURVE",
"550 45 CURVE SMOOTH",
"474 45 OFFCURVE",
"430 99 OFFCURVE",
"430 191 CURVE SMOOTH",
"430 206 OFFCURVE",
"431 221 OFFCURVE",
"432 235 CURVE",
"728 235 LINE",
"732 258 OFFCURVE",
"735 284 OFFCURVE",
"735 307 CURVE SMOOTH",
"735 419 OFFCURVE",
"681 483 OFFCURVE",
"584 483 CURVE SMOOTH",
"521 483 OFFCURVE",
"459 443 OFFCURVE",
"418 375 CURVE",
"395 444 OFFCURVE",
"342 483 OFFCURVE",
"266 483 CURVE SMOOTH",
"134 483 OFFCURVE",
"41 345 OFFCURVE",
"41 191 CURVE SMOOTH",
"41 64 OFFCURVE",
"106 -10 OFFCURVE",
"210 -10 CURVE SMOOTH",
"284 -10 OFFCURVE",
"345 33 OFFCURVE",
"384 98 CURVE"
);
}
);
width = 772;
}
);
note = oe;
unicode = 0153;
},
{
glyphname = p;
layers = (
{
layerId = "3C7D841C-FDC1-4B34-88F9-2F856A81F5AE";
paths = (
{
closed = 1;
nodes = (
"9 -183 LINE",
"74 -171 LINE",
"103 9 LINE",
"127 1 OFFCURVE",
"155 -6 OFFCURVE",
"190 -6 CURVE SMOOTH",
"332 -6 OFFCURVE",
"450 121 OFFCURVE",
"450 309 CURVE SMOOTH",
"450 421 OFFCURVE",
"395 483 OFFCURVE",
"314 483 CURVE SMOOTH",
"254 483 OFFCURVE",
"206 445 OFFCURVE",
"153 387 CURVE",
"151 473 LINE",
"95 473 LINE",
"92 340 LINE"
);
},
{
closed = 1;
nodes = (
"153 325 LINE",
"215 393 OFFCURVE",
"258 427 OFFCURVE",
"302 427 CURVE SMOOTH",
"355 427 OFFCURVE",
"384 380 OFFCURVE",
"384 302 CURVE SMOOTH",
"384 142 OFFCURVE",
"296 48 OFFCURVE",
"197 48 CURVE SMOOTH",
"165 48 OFFCURVE",
"140 54 OFFCURVE",
"112 66 CURVE"
);
}
);
width = 488;
}
);
note = p;
unicode = 0070;
},
{
glyphname = thorn;
layers = (
{
layerId = "3C7D841C-FDC1-4B34-88F9-2F856A81F5AE";
paths = (
{
closed = 1;
nodes = (
"452 421 OFFCURVE",
"398 483 OFFCURVE",
"315 483 CURVE SMOOTH",
"255 483 OFFCURVE",
"210 447 OFFCURVE",
"164 398 CURVE",
"215 718 LINE",
"150 706 LINE",
"9 -183 LINE",
"74 -172 LINE",
"103 8 LINE",
"127 1 OFFCURVE",
"156 -6 OFFCURVE",
"191 -6 CURVE SMOOTH",
"333 -6 OFFCURVE",
"452 120 OFFCURVE",
"452 309 CURVE SMOOTH"
);
},
{
closed = 1;
nodes = (
"386 140 OFFCURVE",
"296 48 OFFCURVE",
"197 48 CURVE SMOOTH",
"165 48 OFFCURVE",
"139 54 OFFCURVE",
"112 66 CURVE",
"153 324 LINE",
"215 392 OFFCURVE",
"258 427 OFFCURVE",
"302 427 CURVE SMOOTH",
"355 427 OFFCURVE",
"386 380 OFFCURVE",
"386 301 CURVE SMOOTH"
);
}
);
width = 490;
}
);
note = thorn;
unicode = 00FE;
},
{
glyphname = q;
layers = (
{
layerId = "3C7D841C-FDC1-4B34-88F9-2F856A81F5AE";
paths = (
{
closed = 1;
nodes = (
"446 446 LINE",
"401 465 OFFCURVE",
"349 480 OFFCURVE",
"300 480 CURVE SMOOTH",
"156 480 OFFCURVE",
"39 352 OFFCURVE",
"39 165 CURVE SMOOTH",
"39 53 OFFCURVE",
"93 -10 OFFCURVE",
"175 -10 CURVE SMOOTH",
"233 -10 OFFCURVE",
"278 26 OFFCURVE",
"324 76 CURVE",
"283 -183 LINE",
"348 -172 LINE"
);
},
{
closed = 1;
nodes = (
"335 148 LINE",
"273 81 OFFCURVE",
"230 46 OFFCURVE",
"186 46 CURVE SMOOTH",
"134 46 OFFCURVE",
"104 93 OFFCURVE",
"104 171 CURVE SMOOTH",
"104 331 OFFCURVE",
"193 425 OFFCURVE",
"292 425 CURVE SMOOTH",
"324 425 OFFCURVE",
"348 419 OFFCURVE",
"377 407 CURVE"
);
}
);
width = 488;
}
);
note = q;
unicode = 0071;
},
{
glyphname = r;
layers = (
{
layerId = "3C7D841C-FDC1-4B34-88F9-2F856A81F5AE";
paths = (
{
closed = 1;
nodes = (
"328 481 LINE",
"257 481 OFFCURVE",
"199 426 OFFCURVE",
"153 356 CURVE",
"151 473 LINE",
"95 473 LINE",
"92 340 LINE",
"38 0 LINE",
"102 0 LINE",
"147 282 LINE",
"196 358 OFFCURVE",
"250 409 OFFCURVE",
"328 417 CURVE"
);
}
);
width = 317;
}
);
note = r;
unicode = 0072;
},
{
glyphname = s;
layers = (
{
layerId = "3C7D841C-FDC1-4B34-88F9-2F856A81F5AE";
paths = (
{
closed = 1;
nodes = (
"350 448 LINE",
"314 468 OFFCURVE",
"270 483 OFFCURVE",
"219 483 CURVE SMOOTH",
"132 483 OFFCURVE",
"67 431 OFFCURVE",
"67 348 CURVE SMOOTH",
"67 286 OFFCURVE",
"104 256 OFFCURVE",
"185 215 CURVE SMOOTH",
"248 183 OFFCURVE",
"269 164 OFFCURVE",
"269 125 CURVE SMOOTH",
"269 77 OFFCURVE",
"227 45 OFFCURVE",
"176 45 CURVE SMOOTH",
"117 45 OFFCURVE",
"65 70 OFFCURVE",
"25 101 CURVE",
"8 41 LINE",
"47 13 OFFCURVE",
"105 -10 OFFCURVE",
"168 -10 CURVE SMOOTH",
"260 -10 OFFCURVE",
"331 39 OFFCURVE",
"331 134 CURVE SMOOTH",
"331 201 OFFCURVE",
"296 232 OFFCURVE",
"205 278 CURVE SMOOTH",
"148 306 OFFCURVE",
"128 323 OFFCURVE",
"128 358 CURVE SMOOTH",
"128 396 OFFCURVE",
"161 428 OFFCURVE",
"213 428 CURVE SMOOTH",
"257 428 OFFCURVE",
"297 411 OFFCURVE",
"334 386 CURVE"
);
}
);
width = 381;
}
);
note = s;
unicode = 0073;
},
{
glyphname = scaron;
layers = (
{
layerId = "3C7D841C-FDC1-4B34-88F9-2F856A81F5AE";
paths = (
{
closed = 1;
nodes = (
"350 448 LINE",
"314 468 OFFCURVE",
"270 483 OFFCURVE",
"219 483 CURVE SMOOTH",
"132 483 OFFCURVE",
"67 431 OFFCURVE",
"67 348 CURVE SMOOTH",
"67 286 OFFCURVE",
"104 256 OFFCURVE",
"185 215 CURVE SMOOTH",
"248 183 OFFCURVE",
"269 164 OFFCURVE",
"269 125 CURVE SMOOTH",
"269 77 OFFCURVE",
"227 45 OFFCURVE",
"176 45 CURVE SMOOTH",
"117 45 OFFCURVE",
"65 70 OFFCURVE",
"25 101 CURVE",
"8 41 LINE",
"47 13 OFFCURVE",
"105 -10 OFFCURVE",
"168 -10 CURVE SMOOTH",
"260 -10 OFFCURVE",
"331 39 OFFCURVE",
"331 134 CURVE SMOOTH",
"331 201 OFFCURVE",
"296 232 OFFCURVE",
"205 278 CURVE SMOOTH",
"148 306 OFFCURVE",
"128 323 OFFCURVE",
"128 358 CURVE SMOOTH",
"128 396 OFFCURVE",
"161 428 OFFCURVE",
"213 428 CURVE SMOOTH",
"257 428 OFFCURVE",
"297 411 OFFCURVE",
"334 386 CURVE"
);
},
{
closed = 1;
nodes = (
"393 695 LINE",
"349 695 LINE",
"245 611 LINE",
"163 698 LINE",
"128 690 LINE",
"205 550 LINE",
"266 550 LINE"
);
}
);
width = 381;
}
);
note = scaron;
unicode = 0161;
},
{
glyphname = germandbls;
layers = (
{
layerId = "3C7D841C-FDC1-4B34-88F9-2F856A81F5AE";
paths = (
{
closed = 1;
nodes = (
"522 250 OFFCURVE",
"453 307 OFFCURVE",
"335 340 CURVE",
"414 420 OFFCURVE",
"464 486 OFFCURVE",
"464 581 CURVE SMOOTH",
"464 661 OFFCURVE",
"411 715 OFFCURVE",
"324 715 CURVE SMOOTH",
"225 715 OFFCURVE",
"159 649 OFFCURVE",
"142 540 CURVE SMOOTH",
"132 473 LINE",
"61 473 LINE",
"53 419 LINE",
"123 419 LINE",
"28 -183 LINE",
"94 -172 LINE",
"204 532 LINE SMOOTH",
"216 610 OFFCURVE",
"254 659 OFFCURVE",
"317 659 CURVE SMOOTH",
"367 659 OFFCURVE",
"398 626 OFFCURVE",
"398 574 CURVE SMOOTH",
"398 499 OFFCURVE",
"358 438 OFFCURVE",
"272 348 CURVE",
"272 302 LINE",
"401 269 OFFCURVE",
"458 224 OFFCURVE",
"458 152 CURVE SMOOTH",
"458 87 OFFCURVE",
"413 45 OFFCURVE",
"348 45 CURVE SMOOTH",
"304 45 OFFCURVE",
"262 59 OFFCURVE",
"219 84 CURVE",
"203 28 LINE",
"246 5 OFFCURVE",
"291 -9 OFFCURVE",
"342 -9 CURVE SMOOTH",
"445 -9 OFFCURVE",
"522 53 OFFCURVE",
"522 159 CURVE SMOOTH"
);
}
);
width = 568;
}
);
note = germandbls;
unicode = 00DF;
},
{
glyphname = t;
layers = (
{
layerId = "3C7D841C-FDC1-4B34-88F9-2F856A81F5AE";
paths = (
{
closed = 1;
nodes = (
"305 419 LINE",
"305 473 LINE",
"196 473 LINE",
"223 648 LINE",
"157 637 LINE",
"132 473 LINE",
"61 473 LINE",
"52 419 LINE",
"123 419 LINE",
"78 134 LINE SMOOTH",
"76 122 OFFCURVE",
"73 95 OFFCURVE",
"73 83 CURVE SMOOTH",
"73 18 OFFCURVE",
"114 -8 OFFCURVE",
"178 -8 CURVE SMOOTH",
"204 -8 OFFCURVE",
"228 -5 OFFCURVE",
"243 -1 CURVE",
"243 53 LINE",
"230 50 OFFCURVE",
"213 47 OFFCURVE",
"195 47 CURVE SMOOTH",
"158 47 OFFCURVE",
"139 64 OFFCURVE",
"139 96 CURVE SMOOTH",
"139 104 OFFCURVE",
"142 131 OFFCURVE",
"143 138 CURVE SMOOTH",
"187 419 LINE"
);
}
);
width = 315;
}
);
note = t;
unicode = 0074;
},
{
glyphname = u;
layers = (
{
layerId = "3C7D841C-FDC1-4B34-88F9-2F856A81F5AE";
paths = (
{
closed = 1;
nodes = (
"450 473 LINE",
"386 473 LINE",
"340 176 LINE",
"270 94 OFFCURVE",
"214 48 OFFCURVE",
"171 48 CURVE SMOOTH",
"131 48 OFFCURVE",
"112 71 OFFCURVE",
"112 111 CURVE SMOOTH",
"112 119 OFFCURVE",
"114 133 OFFCURVE",
"116 143 CURVE",
"168 473 LINE",
"104 473 LINE",
"50 132 LINE SMOOTH",
"48 121 OFFCURVE",
"47 103 OFFCURVE",
"47 93 CURVE SMOOTH",
"47 27 OFFCURVE",
"87 -10 OFFCURVE",
"157 -10 CURVE SMOOTH",
"215 -10 OFFCURVE",
"274 38 OFFCURVE",
"334 105 CURVE",
"337 0 LINE",
"393 0 LINE",
"396 133 LINE"
);
}
);
width = 488;
}
);
note = u;
unicode = 0075;
},
{
glyphname = uacute;
layers = (
{
layerId = "3C7D841C-FDC1-4B34-88F9-2F856A81F5AE";
paths = (
{
closed = 1;
nodes = (
"450 473 LINE",
"386 473 LINE",
"340 176 LINE",
"270 94 OFFCURVE",
"214 48 OFFCURVE",
"171 48 CURVE SMOOTH",
"131 48 OFFCURVE",
"112 71 OFFCURVE",
"112 111 CURVE SMOOTH",
"112 119 OFFCURVE",
"114 133 OFFCURVE",
"116 143 CURVE",
"168 473 LINE",
"104 473 LINE",
"50 132 LINE SMOOTH",
"48 121 OFFCURVE",
"47 103 OFFCURVE",
"47 93 CURVE SMOOTH",
"47 27 OFFCURVE",
"87 -10 OFFCURVE",
"157 -10 CURVE SMOOTH",
"215 -10 OFFCURVE",
"274 38 OFFCURVE",
"334 105 CURVE",
"337 0 LINE",
"393 0 LINE",
"396 133 LINE"
);
},
{
closed = 1;
nodes = (
"458 684 LINE",
"368 703 LINE",
"249 550 LINE",
"303 550 LINE"
);
}
);
width = 488;
}
);
note = uacute;
unicode = 00FA;
},
{
glyphname = ucircumflex;
layers = (
{
layerId = "3C7D841C-FDC1-4B34-88F9-2F856A81F5AE";
paths = (
{
closed = 1;
nodes = (
"450 473 LINE",
"386 473 LINE",
"340 176 LINE",
"270 94 OFFCURVE",
"214 48 OFFCURVE",
"171 48 CURVE SMOOTH",
"131 48 OFFCURVE",
"112 71 OFFCURVE",
"112 111 CURVE SMOOTH",
"112 119 OFFCURVE",
"114 133 OFFCURVE",
"116 143 CURVE",
"168 473 LINE",
"104 473 LINE",
"50 132 LINE SMOOTH",
"48 121 OFFCURVE",
"47 103 OFFCURVE",
"47 93 CURVE SMOOTH",
"47 27 OFFCURVE",
"87 -10 OFFCURVE",
"157 -10 CURVE SMOOTH",
"215 -10 OFFCURVE",
"274 38 OFFCURVE",
"334 105 CURVE",
"337 0 LINE",
"393 0 LINE",
"396 133 LINE"
);
},
{
closed = 1;
nodes = (
"423 554 LINE",
"346 695 LINE",
"285 695 LINE",
"157 550 LINE",
"201 550 LINE",
"307 633 LINE",
"389 547 LINE"
);
}
);
width = 488;
}
);
note = ucircumflex;
unicode = 00FB;
},
{
glyphname = udieresis;
layers = (
{
layerId = "3C7D841C-FDC1-4B34-88F9-2F856A81F5AE";
paths = (
{
closed = 1;
nodes = (
"450 473 LINE",
"386 473 LINE",
"340 176 LINE",
"270 94 OFFCURVE",
"214 48 OFFCURVE",
"171 48 CURVE SMOOTH",
"131 48 OFFCURVE",
"112 71 OFFCURVE",
"112 111 CURVE SMOOTH",
"112 119 OFFCURVE",
"114 133 OFFCURVE",
"116 143 CURVE",
"168 473 LINE",
"104 473 LINE",
"50 132 LINE SMOOTH",
"48 121 OFFCURVE",
"47 103 OFFCURVE",
"47 93 CURVE SMOOTH",
"47 27 OFFCURVE",
"87 -10 OFFCURVE",
"157 -10 CURVE SMOOTH",
"215 -10 OFFCURVE",
"274 38 OFFCURVE",
"334 105 CURVE",
"337 0 LINE",
"393 0 LINE",
"396 133 LINE"
);
},
{
closed = 1;
nodes = (
"423 557 LINE",
"437 645 LINE",
"354 645 LINE",
"340 557 LINE"
);
},
{
closed = 1;
nodes = (
"250 557 LINE",
"265 645 LINE",
"182 645 LINE",
"168 557 LINE"
);
}
);
width = 488;
}
);
note = udieresis;
unicode = 00FC;
},
{
glyphname = ugrave;
layers = (
{
layerId = "3C7D841C-FDC1-4B34-88F9-2F856A81F5AE";
paths = (
{
closed = 1;
nodes = (
"450 473 LINE",
"386 473 LINE",
"340 176 LINE",
"270 94 OFFCURVE",
"214 48 OFFCURVE",
"171 48 CURVE SMOOTH",
"131 48 OFFCURVE",
"112 71 OFFCURVE",
"112 111 CURVE SMOOTH",
"112 119 OFFCURVE",
"114 133 OFFCURVE",
"116 143 CURVE",
"168 473 LINE",
"104 473 LINE",
"50 132 LINE SMOOTH",
"48 121 OFFCURVE",
"47 103 OFFCURVE",
"47 93 CURVE SMOOTH",
"47 27 OFFCURVE",
"87 -10 OFFCURVE",
"157 -10 CURVE SMOOTH",
"215 -10 OFFCURVE",
"274 38 OFFCURVE",
"334 105 CURVE",
"337 0 LINE",
"393 0 LINE",
"396 133 LINE"
);
},
{
closed = 1;
nodes = (
"318 550 LINE",
"244 703 LINE",
"158 684 LINE",
"274 550 LINE"
);
}
);
width = 488;
}
);
note = ugrave;
unicode = 00F9;
},
{
glyphname = v;
layers = (
{
layerId = "3C7D841C-FDC1-4B34-88F9-2F856A81F5AE";
paths = (
{
closed = 1;
nodes = (
"447 473 LINE",
"380 473 LINE",
"194 82 LINE",
"128 479 LINE",
"64 467 LINE",
"153 -4 LINE",
"208 -4 LINE"
);
}
);
width = 438;
}
);
note = v;
unicode = 0076;
},
{
glyphname = w;
layers = (
{
layerId = "3C7D841C-FDC1-4B34-88F9-2F856A81F5AE";
paths = (
{
closed = 1;
nodes = (
"697 473 LINE",
"633 473 LINE",
"460 93 LINE",
"410 475 LINE",
"355 475 LINE",
"185 93 LINE",
"130 481 LINE",
"68 469 LINE",
"146 -3 LINE",
"196 -3 LINE",
"367 379 LINE",
"419 -3 LINE",
"469 -3 LINE"
);
}
);
width = 690;
}
);
note = w;
unicode = 0077;
},
{
glyphname = x;
layers = (
{
layerId = "3C7D841C-FDC1-4B34-88F9-2F856A81F5AE";
paths = (
{
closed = 1;
nodes = (
"436 473 LINE",
"364 473 LINE",
"227 294 LINE",
"142 481 LINE",
"79 468 LINE",
"188 245 LINE",
"-5 0 LINE",
"67 0 LINE",
"214 194 LINE",
"309 -7 LINE",
"372 5 LINE",
"254 243 LINE"
);
}
);
width = 440;
}
);
note = x;
unicode = 0078;
},
{
glyphname = y;
layers = (
{
layerId = "3C7D841C-FDC1-4B34-88F9-2F856A81F5AE";
paths = (
{
closed = 1;
nodes = (
"457 473 LINE",
"390 473 LINE",
"203 80 LINE",
"128 479 LINE",
"64 467 LINE",
"160 3 LINE",
"127 -59 LINE SMOOTH",
"103 -104 OFFCURVE",
"78 -124 OFFCURVE",
"42 -124 CURVE SMOOTH",
"27 -124 OFFCURVE",
"17 -122 OFFCURVE",
"6 -120 CURVE",
"6 -177 LINE",
"14 -178 OFFCURVE",
"25 -180 OFFCURVE",
"34 -180 CURVE SMOOTH",
"101 -180 OFFCURVE",
"143 -152 OFFCURVE",
"186 -66 CURVE SMOOTH"
);
}
);
width = 447;
}
);
note = y;
unicode = 0079;
},
{
glyphname = yacute;
layers = (
{
layerId = "3C7D841C-FDC1-4B34-88F9-2F856A81F5AE";
paths = (
{
closed = 1;
nodes = (
"457 473 LINE",
"390 473 LINE",
"203 80 LINE",
"128 479 LINE",
"64 467 LINE",
"160 3 LINE",
"127 -59 LINE SMOOTH",
"103 -104 OFFCURVE",
"78 -124 OFFCURVE",
"42 -124 CURVE SMOOTH",
"27 -124 OFFCURVE",
"17 -122 OFFCURVE",
"6 -120 CURVE",
"6 -177 LINE",
"14 -178 OFFCURVE",
"25 -180 OFFCURVE",
"34 -180 CURVE SMOOTH",
"101 -180 OFFCURVE",
"143 -152 OFFCURVE",
"186 -66 CURVE SMOOTH"
);
},
{
closed = 1;
nodes = (
"443 675 LINE",
"353 694 LINE",
"234 541 LINE",
"288 541 LINE"
);
}
);
width = 447;
}
);
note = yacute;
unicode = 00FD;
},
{
glyphname = ydieresis;
layers = (
{
layerId = "3C7D841C-FDC1-4B34-88F9-2F856A81F5AE";
paths = (
{
closed = 1;
nodes = (
"457 473 LINE",
"390 473 LINE",
"203 80 LINE",
"128 479 LINE",
"64 467 LINE",
"160 3 LINE",
"127 -59 LINE SMOOTH",
"103 -104 OFFCURVE",
"78 -124 OFFCURVE",
"42 -124 CURVE SMOOTH",
"27 -124 OFFCURVE",
"17 -122 OFFCURVE",
"6 -120 CURVE",
"6 -177 LINE",
"14 -178 OFFCURVE",
"25 -180 OFFCURVE",
"34 -180 CURVE SMOOTH",
"101 -180 OFFCURVE",
"143 -152 OFFCURVE",
"186 -66 CURVE SMOOTH"
);
},
{
closed = 1;
nodes = (
"403 557 LINE",
"417 645 LINE",
"334 645 LINE",
"320 557 LINE"
);
},
{
closed = 1;
nodes = (
"230 557 LINE",
"245 645 LINE",
"162 645 LINE",
"148 557 LINE"
);
}
);
width = 447;
}
);
note = ydieresis;
unicode = 00FF;
},
{
glyphname = z;
layers = (
{
layerId = "3C7D841C-FDC1-4B34-88F9-2F856A81F5AE";
paths = (
{
closed = 1;
nodes = (
"414 473 LINE",
"89 473 LINE",
"89 420 LINE",
"329 420 LINE",
"9 50 LINE",
"1 0 LINE",
"348 0 LINE",
"348 53 LINE",
"86 53 LINE",
"405 424 LINE"
);
}
);
width = 427;
}
);
note = z;
unicode = 007A;
},
{
glyphname = zcaron;
layers = (
{
layerId = "3C7D841C-FDC1-4B34-88F9-2F856A81F5AE";
paths = (
{
closed = 1;
nodes = (
"414 473 LINE",
"89 473 LINE",
"89 420 LINE",
"329 420 LINE",
"9 50 LINE",
"1 0 LINE",
"348 0 LINE",
"348 53 LINE",
"86 53 LINE",
"405 424 LINE"
);
},
{
closed = 1;
nodes = (
"420 695 LINE",
"376 695 LINE",
"272 611 LINE",
"190 698 LINE",
"155 690 LINE",
"232 550 LINE",
"293 550 LINE"
);
}
);
width = 427;
}
);
note = zcaron;
unicode = 017E;
},
{
glyphname = fi;
layers = (
{
layerId = "3C7D841C-FDC1-4B34-88F9-2F856A81F5AE";
paths = (
{
closed = 1;
nodes = (
"333 712 LINE",
"323 714 OFFCURVE",
"308 715 OFFCURVE",
"290 715 CURVE SMOOTH",
"212 715 OFFCURVE",
"165 681 OFFCURVE",
"152 599 CURVE SMOOTH",
"132 473 LINE",
"61 473 LINE",
"53 419 LINE",
"123 419 LINE",
"28 -183 LINE",
"94 -172 LINE",
"187 419 LINE",
"290 419 LINE",
"290 473 LINE",
"195 473 LINE",
"214 590 LINE SMOOTH",
"221 635 OFFCURVE",
"245 659 OFFCURVE",
"289 659 CURVE SMOOTH",
"307 659 OFFCURVE",
"323 657 OFFCURVE",
"333 655 CURVE"
);
},
{
closed = 1;
nodes = (
"502 661 OFFCURVE",
"481 682 OFFCURVE",
"455 682 CURVE SMOOTH",
"430 682 OFFCURVE",
"409 661 OFFCURVE",
"409 635 CURVE SMOOTH",
"409 610 OFFCURVE",
"430 589 OFFCURVE",
"455 589 CURVE SMOOTH",
"481 589 OFFCURVE",
"502 610 OFFCURVE",
"502 635 CURVE SMOOTH"
);
},
{
closed = 1;
nodes = (
"461 473 LINE",
"397 473 LINE",
"322 0 LINE",
"386 0 LINE"
);
}
);
width = 504;
}
);
note = fi;
unicode = FB01;
},
{
glyphname = fl;
layers = (
{
layerId = "3C7D841C-FDC1-4B34-88F9-2F856A81F5AE";
paths = (
{
closed = 1;
nodes = (
"333 712 LINE",
"323 714 OFFCURVE",
"308 715 OFFCURVE",
"290 715 CURVE SMOOTH",
"212 715 OFFCURVE",
"165 681 OFFCURVE",
"152 599 CURVE SMOOTH",
"132 473 LINE",
"61 473 LINE",
"53 419 LINE",
"123 419 LINE",
"28 -183 LINE",
"94 -172 LINE",
"187 419 LINE",
"290 419 LINE",
"290 473 LINE",
"195 473 LINE",
"214 590 LINE SMOOTH",
"221 635 OFFCURVE",
"245 659 OFFCURVE",
"289 659 CURVE SMOOTH",
"307 659 OFFCURVE",
"323 657 OFFCURVE",
"333 655 CURVE"
);
},
{
closed = 1;
nodes = (
"499 718 LINE",
"433 706 LINE",
"322 0 LINE",
"386 0 LINE"
);
}
);
width = 504;
}
);
note = fl;
unicode = FB02;
},
{
glyphname = ordfeminine;
layers = (
{
layerId = "3C7D841C-FDC1-4B34-88F9-2F856A81F5AE";
paths = (
{
closed = 1;
nodes = (
"311 235 LINE",
"311 282 LINE",
"63 282 LINE",
"56 235 LINE"
);
},
{
closed = 1;
nodes = (
"283 450 LINE",
"238 411 OFFCURVE",
"206 394 OFFCURVE",
"178 394 CURVE SMOOTH",
"151 394 OFFCURVE",
"135 409 OFFCURVE",
"135 434 CURVE SMOOTH",
"135 479 OFFCURVE",
"171 514 OFFCURVE",
"295 524 CURVE"
);
},
{
closed = 1;
nodes = (
"301 560 LINE",
"132 548 OFFCURVE",
"83 496 OFFCURVE",
"83 431 CURVE SMOOTH",
"83 382 OFFCURVE",
"120 353 OFFCURVE",
"169 353 CURVE SMOOTH",
"209 353 OFFCURVE",
"247 377 OFFCURVE",
"283 407 CURVE",
"285 359 LINE",
"328 359 LINE",
"330 436 LINE",
"354 572 LINE SMOOTH",
"365 639 OFFCURVE",
"336 680 OFFCURVE",
"256 680 CURVE SMOOTH",
"216 680 OFFCURVE",
"177 669 OFFCURVE",
"141 654 CURVE",
"141 609 LINE",
"186 630 OFFCURVE",
"218 638 OFFCURVE",
"250 638 CURVE SMOOTH",
"293 638 OFFCURVE",
"311 618 OFFCURVE",
"304 574 CURVE"
);
}
);
width = 367;
}
);
note = ordfeminine;
unicode = 00AA;
},
{
glyphname = ordmasculine;
layers = (
{
layerId = "3C7D841C-FDC1-4B34-88F9-2F856A81F5AE";
paths = (
{
closed = 1;
nodes = (
"305 353 OFFCURVE",
"373 444 OFFCURVE",
"373 547 CURVE SMOOTH",
"373 631 OFFCURVE",
"326 680 OFFCURVE",
"252 680 CURVE SMOOTH",
"157 680 OFFCURVE",
"90 589 OFFCURVE",
"90 487 CURVE SMOOTH",
"90 403 OFFCURVE",
"136 353 OFFCURVE",
"210 353 CURVE SMOOTH"
);
},
{
closed = 1;
nodes = (
"322 235 LINE",
"322 282 LINE",
"65 282 LINE",
"57 235 LINE"
);
},
{
closed = 1;
nodes = (
"287 637 OFFCURVE",
"321 611 OFFCURVE",
"321 544 CURVE SMOOTH",
"321 471 OFFCURVE",
"280 397 OFFCURVE",
"214 397 CURVE SMOOTH",
"175 397 OFFCURVE",
"142 423 OFFCURVE",
"142 489 CURVE SMOOTH",
"142 562 OFFCURVE",
"183 637 OFFCURVE",
"249 637 CURVE SMOOTH"
);
}
);
width = 376;
}
);
note = ordmasculine;
unicode = 00BA;
},
{
glyphname = Delta;
layers = (
{
layerId = "3C7D841C-FDC1-4B34-88F9-2F856A81F5AE";
paths = (
{
closed = 1;
nodes = (
"25 -200 LINE",
"475 -200 LINE",
"475 800 LINE",
"25 800 LINE"
);
}
);
width = 500;
}
);
note = Delta;
unicode = 0394;
},
{
glyphname = Omega;
layers = (
{
layerId = "3C7D841C-FDC1-4B34-88F9-2F856A81F5AE";
paths = (
{
closed = 1;
nodes = (
"333 712 LINE",
"323 714 OFFCURVE",
"308 715 OFFCURVE",
"290 715 CURVE SMOOTH",
"212 715 OFFCURVE",
"165 681 OFFCURVE",
"152 599 CURVE SMOOTH",
"132 473 LINE",
"61 473 LINE",
"53 419 LINE",
"123 419 LINE",
"28 -183 LINE",
"94 -172 LINE",
"187 419 LINE",
"290 419 LINE",
"290 473 LINE",
"195 473 LINE",
"214 590 LINE SMOOTH",
"221 635 OFFCURVE",
"245 659 OFFCURVE",
"289 659 CURVE SMOOTH",
"307 659 OFFCURVE",
"323 657 OFFCURVE",
"333 655 CURVE"
);
},
{
closed = 1;
nodes = (
"613 712 LINE",
"603 714 OFFCURVE",
"589 715 OFFCURVE",
"571 715 CURVE SMOOTH",
"492 715 OFFCURVE",
"446 681 OFFCURVE",
"432 599 CURVE SMOOTH",
"412 473 LINE",
"341 473 LINE",
"333 419 LINE",
"403 419 LINE",
"309 -183 LINE",
"374 -172 LINE",
"468 419 LINE",
"570 419 LINE",
"570 473 LINE",
"475 473 LINE",
"494 590 LINE SMOOTH",
"501 635 OFFCURVE",
"525 659 OFFCURVE",
"569 659 CURVE SMOOTH",
"587 659 OFFCURVE",
"604 657 OFFCURVE",
"613 655 CURVE"
);
}
);
width = 560;
}
);
note = Omega;
unicode = 03A9;
},
{
glyphname = pi;
layers = (
{
layerId = "3C7D841C-FDC1-4B34-88F9-2F856A81F5AE";
paths = (
{
closed = 1;
nodes = (
"764 556 OFFCURVE",
"626 703 OFFCURVE",
"419 703 CURVE SMOOTH",
"213 703 OFFCURVE",
"74 555 OFFCURVE",
"74 345 CURVE SMOOTH",
"74 134 OFFCURVE",
"213 -13 OFFCURVE",
"419 -13 CURVE SMOOTH",
"626 -13 OFFCURVE",
"764 135 OFFCURVE",
"764 345 CURVE SMOOTH"
);
},
{
closed = 1;
nodes = (
"729 145 OFFCURVE",
"605 16 OFFCURVE",
"420 16 CURVE SMOOTH",
"237 16 OFFCURVE",
"110 145 OFFCURVE",
"110 345 CURVE SMOOTH",
"110 545 OFFCURVE",
"234 674 OFFCURVE",
"419 674 CURVE SMOOTH",
"602 674 OFFCURVE",
"729 545 OFFCURVE",
"729 345 CURVE SMOOTH"
);
},
{
closed = 1;
nodes = (
"559 500 OFFCURVE",
"505 543 OFFCURVE",
"425 543 CURVE SMOOTH",
"317 543 LINE",
"317 150 LINE",
"370 150 LINE",
"370 307 LINE",
"418 307 LINE SMOOTH",
"500 307 OFFCURVE",
"559 347 OFFCURVE",
"559 427 CURVE SMOOTH"
);
},
{
closed = 1;
nodes = (
"506 377 OFFCURVE",
"473 354 OFFCURVE",
"420 354 CURVE SMOOTH",
"370 354 LINE",
"370 496 LINE",
"423 496 LINE SMOOTH",
"474 496 OFFCURVE",
"506 472 OFFCURVE",
"506 425 CURVE SMOOTH"
);
}
);
width = 806;
}
);
note = pi;
unicode = 03C0;
},
{
glyphname = zero;
layers = (
{
layerId = "3C7D841C-FDC1-4B34-88F9-2F856A81F5AE";
paths = (
{
closed = 1;
nodes = (
"541 584 OFFCURVE",
"470 689 OFFCURVE",
"346 689 CURVE SMOOTH",
"184 689 OFFCURVE",
"64 498 OFFCURVE",
"64 246 CURVE SMOOTH",
"64 92 OFFCURVE",
"135 -13 OFFCURVE",
"260 -13 CURVE SMOOTH",
"421 -13 OFFCURVE",
"541 178 OFFCURVE",
"541 430 CURVE SMOOTH"
);
},
{
closed = 1;
nodes = (
"474 204 OFFCURVE",
"381 44 OFFCURVE",
"264 44 CURVE SMOOTH",
"182 44 OFFCURVE",
"131 117 OFFCURVE",
"131 249 CURVE SMOOTH",
"131 472 OFFCURVE",
"223 632 OFFCURVE",
"341 632 CURVE SMOOTH",
"423 632 OFFCURVE",
"474 559 OFFCURVE",
"474 427 CURVE SMOOTH"
);
}
);
width = 572;
}
);
note = zero;
unicode = 0030;
},
{
glyphname = one;
layers = (
{
layerId = "3C7D841C-FDC1-4B34-88F9-2F856A81F5AE";
paths = (
{
closed = 1;
nodes = (
"308 679 LINE",
"257 679 LINE",
"84 605 LINE",
"84 552 LINE",
"234 608 LINE",
"137 0 LINE",
"201 0 LINE"
);
}
);
width = 338;
}
);
note = one;
unicode = 0031;
},
{
glyphname = two;
layers = (
{
layerId = "3C7D841C-FDC1-4B34-88F9-2F856A81F5AE";
paths = (
{
closed = 1;
nodes = (
"488 623 OFFCURVE",
"425 689 OFFCURVE",
"313 689 CURVE SMOOTH",
"241 689 OFFCURVE",
"178 662 OFFCURVE",
"122 623 CURVE",
"122 559 LINE",
"187 604 OFFCURVE",
"249 630 OFFCURVE",
"307 630 CURVE SMOOTH",
"379 630 OFFCURVE",
"421 588 OFFCURVE",
"421 523 CURVE SMOOTH",
"421 458 OFFCURVE",
"386 406 OFFCURVE",
"312 334 CURVE SMOOTH",
"15 49 LINE",
"8 0 LINE",
"417 0 LINE",
"417 58 LINE",
"104 58 LINE",
"348 292 LINE SMOOTH",
"451 390 OFFCURVE",
"488 447 OFFCURVE",
"488 528 CURVE SMOOTH"
);
}
);
width = 510;
}
);
note = two;
unicode = 0032;
},
{
glyphname = three;
layers = (
{
layerId = "3C7D841C-FDC1-4B34-88F9-2F856A81F5AE";
paths = (
{
closed = 1;
nodes = (
"472 629 OFFCURVE",
"401 689 OFFCURVE",
"290 689 CURVE SMOOTH",
"223 689 OFFCURVE",
"166 668 OFFCURVE",
"111 633 CURVE",
"111 571 LINE",
"169 610 OFFCURVE",
"228 631 OFFCURVE",
"285 631 CURVE SMOOTH",
"357 631 OFFCURVE",
"405 594 OFFCURVE",
"405 528 CURVE SMOOTH",
"405 436 OFFCURVE",
"320 386 OFFCURVE",
"201 386 CURVE SMOOTH",
"199 386 OFFCURVE",
"172 386 OFFCURVE",
"172 386 CURVE",
"172 328 LINE",
"194 328 LINE SMOOTH",
"303 328 OFFCURVE",
"365 280 OFFCURVE",
"365 194 CURVE SMOOTH",
"365 100 OFFCURVE",
"296 44 OFFCURVE",
"202 44 CURVE SMOOTH",
"145 44 OFFCURVE",
"86 65 OFFCURVE",
"28 103 CURVE",
"8 43 LINE",
"64 9 OFFCURVE",
"130 -13 OFFCURVE",
"198 -13 CURVE SMOOTH",
"332 -13 OFFCURVE",
"431 71 OFFCURVE",
"431 197 CURVE SMOOTH",
"431 278 OFFCURVE",
"382 329 OFFCURVE",
"311 355 CURVE",
"392 377 OFFCURVE",
"472 429 OFFCURVE",
"472 536 CURVE SMOOTH"
);
}
);
width = 491;
}
);
note = three;
unicode = 0033;
},
{
glyphname = four;
layers = (
{
layerId = "3C7D841C-FDC1-4B34-88F9-2F856A81F5AE";
paths = (
{
closed = 1;
nodes = (
"535 215 LINE",
"422 215 LINE",
"497 678 LINE",
"418 678 LINE",
"35 206 LINE",
"28 161 LINE",
"355 161 LINE",
"328 0 LINE",
"388 0 LINE",
"414 161 LINE",
"526 161 LINE"
);
},
{
closed = 1;
nodes = (
"362 215 LINE",
"109 215 LINE",
"425 606 LINE"
);
}
);
width = 568;
}
);
note = four;
unicode = 0034;
},
{
glyphname = five;
layers = (
{
layerId = "3C7D841C-FDC1-4B34-88F9-2F856A81F5AE";
paths = (
{
closed = 1;
nodes = (
"483 620 LINE",
"483 676 LINE",
"168 676 LINE",
"98 366 LINE",
"293 348 OFFCURVE",
"372 295 OFFCURVE",
"372 194 CURVE SMOOTH",
"372 104 OFFCURVE",
"305 45 OFFCURVE",
"213 45 CURVE SMOOTH",
"149 45 OFFCURVE",
"94 64 OFFCURVE",
"36 97 CURVE",
"16 38 LINE",
"72 8 OFFCURVE",
"133 -13 OFFCURVE",
"209 -13 CURVE SMOOTH",
"333 -13 OFFCURVE",
"438 68 OFFCURVE",
"438 201 CURVE SMOOTH",
"438 323 OFFCURVE",
"349 393 OFFCURVE",
"167 417 CURVE",
"214 620 LINE"
);
}
);
width = 494;
}
);
note = five;
unicode = 0035;
},
{
glyphname = six;
layers = (
{
layerId = "3C7D841C-FDC1-4B34-88F9-2F856A81F5AE";
paths = (
{
closed = 1;
nodes = (
"178 488 OFFCURVE",
"294 596 OFFCURVE",
"469 631 CURVE",
"469 691 LINE",
"215 640 OFFCURVE",
"58 456 OFFCURVE",
"58 225 CURVE SMOOTH",
"58 74 OFFCURVE",
"135 -13 OFFCURVE",
"256 -13 CURVE SMOOTH",
"387 -13 OFFCURVE",
"493 95 OFFCURVE",
"493 229 CURVE SMOOTH",
"493 344 OFFCURVE",
"425 406 OFFCURVE",
"322 406 CURVE SMOOTH",
"254 406 OFFCURVE",
"193 381 OFFCURVE",
"138 346 CURVE"
);
},
{
closed = 1;
nodes = (
"185 325 OFFCURVE",
"247 350 OFFCURVE",
"308 350 CURVE SMOOTH",
"383 350 OFFCURVE",
"427 306 OFFCURVE",
"427 224 CURVE SMOOTH",
"427 122 OFFCURVE",
"354 43 OFFCURVE",
"260 43 CURVE SMOOTH",
"174 43 OFFCURVE",
"122 112 OFFCURVE",
"122 229 CURVE SMOOTH",
"122 247 OFFCURVE",
"123 265 OFFCURVE",
"125 283 CURVE"
);
}
);
width = 537;
}
);
note = six;
unicode = 0036;
},
{
glyphname = seven;
layers = (
{
layerId = "3C7D841C-FDC1-4B34-88F9-2F856A81F5AE";
paths = (
{
closed = 1;
nodes = (
"525 676 LINE",
"111 676 LINE",
"111 619 LINE",
"444 619 LINE",
"86 8 LINE",
"145 -7 LINE",
"517 629 LINE"
);
}
);
width = 506;
}
);
note = seven;
unicode = 0037;
},
{
glyphname = eight;
layers = (
{
layerId = "3C7D841C-FDC1-4B34-88F9-2F856A81F5AE";
paths = (
{
closed = 1;
nodes = (
"212 423 OFFCURVE",
"179 462 OFFCURVE",
"179 514 CURVE SMOOTH",
"179 576 OFFCURVE",
"229 634 OFFCURVE",
"318 634 CURVE SMOOTH",
"396 634 OFFCURVE",
"445 592 OFFCURVE",
"445 527 CURVE SMOOTH",
"445 463 OFFCURVE",
"398 413 OFFCURVE",
"311 376 CURVE"
);
},
{
closed = 1;
nodes = (
"383 281 OFFCURVE",
"415 242 OFFCURVE",
"415 179 CURVE SMOOTH",
"415 100 OFFCURVE",
"348 42 OFFCURVE",
"256 42 CURVE SMOOTH",
"167 42 OFFCURVE",
"102 94 OFFCURVE",
"102 167 CURVE SMOOTH",
"102 236 OFFCURVE",
"153 294 OFFCURVE",
"263 336 CURVE"
);
},
{
closed = 1;
nodes = (
"96 317 OFFCURVE",
"37 254 OFFCURVE",
"37 162 CURVE SMOOTH",
"37 65 OFFCURVE",
"114 -12 OFFCURVE",
"252 -12 CURVE SMOOTH",
"387 -12 OFFCURVE",
"482 72 OFFCURVE",
"482 184 CURVE SMOOTH",
"482 256 OFFCURVE",
"442 307 OFFCURVE",
"366 349 CURVE",
"450 388 OFFCURVE",
"509 443 OFFCURVE",
"509 531 CURVE SMOOTH",
"509 621 OFFCURVE",
"439 689 OFFCURVE",
"320 689 CURVE SMOOTH",
"191 689 OFFCURVE",
"114 606 OFFCURVE",
"114 509 CURVE SMOOTH",
"114 445 OFFCURVE",
"147 400 OFFCURVE",
"206 365 CURVE"
);
}
);
width = 535;
}
);
note = eight;
unicode = 0038;
},
{
glyphname = nine;
layers = (
{
layerId = "3C7D841C-FDC1-4B34-88F9-2F856A81F5AE";
paths = (
{
closed = 1;
nodes = (
"384 181 OFFCURVE",
"269 79 OFFCURVE",
"97 45 CURVE",
"97 -15 LINE",
"351 36 OFFCURVE",
"510 217 OFFCURVE",
"510 451 CURVE SMOOTH",
"510 602 OFFCURVE",
"434 689 OFFCURVE",
"312 689 CURVE SMOOTH",
"180 689 OFFCURVE",
"76 577 OFFCURVE",
"76 441 CURVE SMOOTH",
"76 325 OFFCURVE",
"142 262 OFFCURVE",
"247 262 CURVE SMOOTH",
"313 262 OFFCURVE",
"373 284 OFFCURVE",
"427 319 CURVE"
);
},
{
closed = 1;
nodes = (
"382 343 OFFCURVE",
"320 318 OFFCURVE",
"261 318 CURVE SMOOTH",
"184 318 OFFCURVE",
"142 364 OFFCURVE",
"142 447 CURVE SMOOTH",
"142 549 OFFCURVE",
"213 633 OFFCURVE",
"308 633 CURVE SMOOTH",
"395 633 OFFCURVE",
"446 564 OFFCURVE",
"446 447 CURVE SMOOTH",
"446 425 OFFCURVE",
"445 404 OFFCURVE",
"442 384 CURVE"
);
}
);
width = 537;
}
);
note = nine;
unicode = 0039;
},
{
glyphname = onesuperior;
layers = (
{
layerId = "3C7D841C-FDC1-4B34-88F9-2F856A81F5AE";
paths = (
{
closed = 1;
nodes = (
"25 -200 LINE",
"475 -200 LINE",
"475 800 LINE",
"25 800 LINE"
);
}
);
width = 500;
}
);
note = onesuperior;
unicode = 00B9;
},
{
glyphname = twosuperior;
layers = (
{
layerId = "3C7D841C-FDC1-4B34-88F9-2F856A81F5AE";
paths = (
{
closed = 1;
nodes = (
"25 -200 LINE",
"475 -200 LINE",
"475 800 LINE",
"25 800 LINE"
);
}
);
width = 500;
}
);
note = twosuperior;
unicode = 00B2;
},
{
glyphname = threesuperior;
layers = (
{
layerId = "3C7D841C-FDC1-4B34-88F9-2F856A81F5AE";
paths = (
{
closed = 1;
nodes = (
"25 -200 LINE",
"475 -200 LINE",
"475 800 LINE",
"25 800 LINE"
);
}
);
width = 500;
}
);
note = threesuperior;
unicode = 00B3;
},
{
glyphname = fraction;
layers = (
{
layerId = "3C7D841C-FDC1-4B34-88F9-2F856A81F5AE";
paths = (
{
closed = 1;
nodes = (
"603 771 LINE",
"545 784 LINE",
"-134 -95 LINE",
"-75 -108 LINE"
);
}
);
width = 440;
}
);
note = fraction;
unicode = 2044;
},
{
glyphname = onehalf;
layers = (
{
layerId = "3C7D841C-FDC1-4B34-88F9-2F856A81F5AE";
paths = (
{
closed = 1;
nodes = (
"25 -200 LINE",
"475 -200 LINE",
"475 800 LINE",
"25 800 LINE"
);
}
);
width = 500;
}
);
note = onehalf;
unicode = 00BD;
},
{
glyphname = onequarter;
layers = (
{
layerId = "3C7D841C-FDC1-4B34-88F9-2F856A81F5AE";
paths = (
{
closed = 1;
nodes = (
"25 -200 LINE",
"475 -200 LINE",
"475 800 LINE",
"25 800 LINE"
);
}
);
width = 500;
}
);
note = onequarter;
unicode = 00BC;
},
{
glyphname = threequarters;
layers = (
{
layerId = "3C7D841C-FDC1-4B34-88F9-2F856A81F5AE";
paths = (
{
closed = 1;
nodes = (
"25 -200 LINE",
"475 -200 LINE",
"475 800 LINE",
"25 800 LINE"
);
}
);
width = 500;
}
);
note = threequarters;
unicode = 00BE;
},
{
glyphname = period;
layers = (
{
layerId = "3C7D841C-FDC1-4B34-88F9-2F856A81F5AE";
paths = (
{
closed = 1;
nodes = (
"124 98 LINE",
"46 98 LINE",
"30 0 LINE",
"108 0 LINE"
);
}
);
width = 214;
}
);
note = period;
unicode = 002E;
},
{
glyphname = comma;
layers = (
{
layerId = "3C7D841C-FDC1-4B34-88F9-2F856A81F5AE";
paths = (
{
closed = 1;
nodes = (
"142 98 LINE",
"62 98 LINE",
"-24 -124 LINE",
"10 -133 LINE"
);
}
);
width = 214;
}
);
note = comma;
unicode = 002C;
},
{
glyphname = colon;
layers = (
{
layerId = "3C7D841C-FDC1-4B34-88F9-2F856A81F5AE";
paths = (
{
closed = 1;
nodes = (
"187 473 LINE",
"109 473 LINE",
"94 376 LINE",
"172 376 LINE"
);
},
{
closed = 1;
nodes = (
"129 98 LINE",
"51 98 LINE",
"36 0 LINE",
"114 0 LINE"
);
}
);
width = 223;
}
);
note = colon;
unicode = 003A;
},
{
glyphname = semicolon;
layers = (
{
layerId = "3C7D841C-FDC1-4B34-88F9-2F856A81F5AE";
paths = (
{
closed = 1;
nodes = (
"192 473 LINE",
"114 473 LINE",
"99 376 LINE",
"177 376 LINE"
);
},
{
closed = 1;
nodes = (
"137 98 LINE",
"57 98 LINE",
"-29 -124 LINE",
"5 -133 LINE"
);
}
);
width = 223;
}
);
note = semicolon;
unicode = 003B;
},
{
glyphname = ellipsis;
layers = (
{
layerId = "3C7D841C-FDC1-4B34-88F9-2F856A81F5AE";
paths = (
{
closed = 1;
nodes = (
"579 0 LINE",
"595 98 LINE",
"517 98 LINE",
"501 0 LINE"
);
},
{
closed = 1;
nodes = (
"348 0 LINE",
"364 98 LINE",
"286 98 LINE",
"270 0 LINE"
);
},
{
closed = 1;
nodes = (
"117 0 LINE",
"133 98 LINE",
"55 98 LINE",
"39 0 LINE"
);
}
);
width = 693;
}
);
note = ellipsis;
unicode = 2026;
},
{
glyphname = exclam;
layers = (
{
layerId = "3C7D841C-FDC1-4B34-88F9-2F856A81F5AE";
paths = (
{
closed = 1;
nodes = (
"243 690 LINE",
"163 690 LINE",
"101 190 LINE",
"148 200 LINE"
);
},
{
closed = 1;
nodes = (
"148 98 LINE",
"70 98 LINE",
"55 0 LINE",
"132 0 LINE"
);
}
);
width = 262;
}
);
note = exclam;
unicode = 0021;
},
{
glyphname = exclamdown;
layers = (
{
layerId = "3C7D841C-FDC1-4B34-88F9-2F856A81F5AE";
paths = (
{
closed = 1;
nodes = (
"242 690 LINE",
"165 690 LINE",
"149 592 LINE",
"226 592 LINE"
);
},
{
closed = 1;
nodes = (
"195 500 LINE",
"149 490 LINE",
"54 0 LINE",
"134 0 LINE"
);
}
);
width = 262;
}
);
note = exclamdown;
unicode = 00A1;
},
{
glyphname = question;
layers = (
{
layerId = "3C7D841C-FDC1-4B34-88F9-2F856A81F5AE";
paths = (
{
closed = 1;
nodes = (
"190 357 LINE",
"174 190 LINE",
"220 200 LINE",
"249 320 LINE",
"394 382 OFFCURVE",
"462 440 OFFCURVE",
"462 550 CURVE SMOOTH",
"462 642 OFFCURVE",
"397 703 OFFCURVE",
"289 703 CURVE SMOOTH",
"211 703 OFFCURVE",
"155 680 OFFCURVE",
"100 644 CURVE",
"100 578 LINE",
"163 620 OFFCURVE",
"219 643 OFFCURVE",
"280 643 CURVE SMOOTH",
"348 643 OFFCURVE",
"394 607 OFFCURVE",
"394 543 CURVE SMOOTH",
"394 465 OFFCURVE",
"341 418 OFFCURVE",
"214 367 CURVE SMOOTH"
);
},
{
closed = 1;
nodes = (
"221 98 LINE",
"144 98 LINE",
"129 0 LINE",
"205 0 LINE"
);
}
);
width = 459;
}
);
note = question;
unicode = 003F;
},
{
glyphname = questiondown;
layers = (
{
layerId = "3C7D841C-FDC1-4B34-88F9-2F856A81F5AE";
paths = (
{
closed = 1;
nodes = (
"303 333 LINE",
"319 500 LINE",
"273 490 LINE",
"244 370 LINE",
"100 308 OFFCURVE",
"31 250 OFFCURVE",
"31 140 CURVE SMOOTH",
"31 48 OFFCURVE",
"96 -13 OFFCURVE",
"204 -13 CURVE SMOOTH",
"282 -13 OFFCURVE",
"338 10 OFFCURVE",
"394 46 CURVE",
"394 112 LINE",
"330 70 OFFCURVE",
"274 47 OFFCURVE",
"213 47 CURVE SMOOTH",
"145 47 OFFCURVE",
"100 83 OFFCURVE",
"100 147 CURVE SMOOTH",
"100 225 OFFCURVE",
"151 272 OFFCURVE",
"279 323 CURVE SMOOTH"
);
},
{
closed = 1;
nodes = (
"272 592 LINE",
"350 592 LINE",
"365 690 LINE",
"288 690 LINE"
);
}
);
width = 459;
}
);
note = questiondown;
unicode = 00BF;
},
{
glyphname = periodcentered;
layers = (
{
layerId = "3C7D841C-FDC1-4B34-88F9-2F856A81F5AE";
paths = (
{
closed = 1;
nodes = (
"146 234 LINE",
"161 332 LINE",
"83 332 LINE",
"68 234 LINE"
);
}
);
width = 214;
}
);
note = periodcentered;
unicode = 00B7;
},
{
glyphname = bullet;
layers = (
{
layerId = "3C7D841C-FDC1-4B34-88F9-2F856A81F5AE";
paths = (
{
closed = 1;
nodes = (
"336 348 LINE",
"319 457 LINE",
"219 473 LINE",
"120 457 LINE",
"103 348 LINE",
"120 239 LINE",
"219 222 LINE",
"319 239 LINE"
);
}
);
width = 404;
}
);
note = bullet;
unicode = 2022;
},
{
glyphname = asterisk;
layers = (
{
layerId = "3C7D841C-FDC1-4B34-88F9-2F856A81F5AE";
paths = (
{
closed = 1;
nodes = (
"397 576 LINE",
"390 596 LINE",
"266 570 LINE",
"254 696 LINE",
"231 696 LINE",
"219 570 LINE",
"95 596 LINE",
"89 576 LINE",
"204 525 LINE",
"140 413 LINE",
"157 401 LINE",
"243 498 LINE",
"327 401 LINE",
"345 413 LINE",
"280 525 LINE"
);
}
);
width = 401;
}
);
note = asterisk;
unicode = 002A;
},
{
glyphname = numbersign;
layers = (
{
layerId = "3C7D841C-FDC1-4B34-88F9-2F856A81F5AE";
paths = (
{
closed = 1;
nodes = (
"617 440 LINE",
"617 497 LINE",
"508 497 LINE",
"543 672 LINE",
"493 683 LINE",
"456 497 LINE",
"271 497 LINE",
"307 678 LINE",
"252 678 LINE",
"217 497 LINE",
"77 497 LINE",
"87 440 LINE",
"206 440 LINE",
"165 236 LINE",
"47 236 LINE",
"47 179 LINE",
"155 179 LINE",
"120 4 LINE",
"171 -7 LINE",
"208 179 LINE",
"394 179 LINE",
"358 -2 LINE",
"411 -2 LINE",
"446 179 LINE",
"586 179 LINE",
"576 236 LINE",
"457 236 LINE",
"498 440 LINE"
);
},
{
closed = 1;
nodes = (
"445 440 LINE",
"404 236 LINE",
"219 236 LINE",
"260 440 LINE"
);
}
);
width = 639;
}
);
note = numbersign;
unicode = 0023;
},
{
glyphname = slash;
layers = (
{
layerId = "3C7D841C-FDC1-4B34-88F9-2F856A81F5AE";
paths = (
{
closed = 1;
nodes = (
"562 684 LINE",
"502 697 LINE",
"-92 -111 LINE",
"-33 -124 LINE"
);
}
);
width = 512;
}
);
note = slash;
unicode = 002F;
},
{
glyphname = backslash;
layers = (
{
layerId = "3C7D841C-FDC1-4B34-88F9-2F856A81F5AE";
paths = (
{
closed = 1;
nodes = (
"550 -112 LINE",
"78 696 LINE",
"18 684 LINE",
"491 -125 LINE"
);
}
);
width = 512;
}
);
note = backslash;
unicode = 005C;
},
{
glyphname = parenleft;
layers = (
{
layerId = "3C7D841C-FDC1-4B34-88F9-2F856A81F5AE";
paths = (
{
closed = 1;
nodes = (
"400 727 LINE",
"165 592 OFFCURVE",
"74 427 OFFCURVE",
"74 237 CURVE SMOOTH",
"74 100 OFFCURVE",
"134 6 OFFCURVE",
"230 -96 CURVE",
"292 -82 LINE",
"188 34 OFFCURVE",
"143 121 OFFCURVE",
"143 243 CURVE SMOOTH",
"143 413 OFFCURVE",
"223 555 OFFCURVE",
"396 662 CURVE"
);
}
);
width = 393;
}
);
note = parenleft;
unicode = 0028;
},
{
glyphname = parenright;
layers = (
{
layerId = "3C7D841C-FDC1-4B34-88F9-2F856A81F5AE";
paths = (
{
closed = 1;
nodes = (
"343 526 OFFCURVE",
"283 620 OFFCURVE",
"187 723 CURVE",
"125 709 LINE",
"229 592 OFFCURVE",
"274 506 OFFCURVE",
"274 383 CURVE SMOOTH",
"274 213 OFFCURVE",
"194 72 OFFCURVE",
"22 -35 CURVE",
"18 -101 LINE",
"253 34 OFFCURVE",
"343 200 OFFCURVE",
"343 390 CURVE SMOOTH"
);
}
);
width = 393;
}
);
note = parenright;
unicode = 0029;
},
{
glyphname = braceleft;
layers = (
{
layerId = "3C7D841C-FDC1-4B34-88F9-2F856A81F5AE";
paths = (
{
closed = 1;
nodes = (
"472 690 LINE",
"385 690 LINE SMOOTH",
"274 690 OFFCURVE",
"222 639 OFFCURVE",
"220 541 CURVE SMOOTH",
"220 519 OFFCURVE",
"218 469 OFFCURVE",
"218 449 CURVE SMOOTH",
"215 350 OFFCURVE",
"168 317 OFFCURVE",
"89 317 CURVE SMOOTH",
"54 317 LINE",
"54 268 LINE",
"79 268 LINE SMOOTH",
"148 268 OFFCURVE",
"177 244 OFFCURVE",
"177 193 CURVE SMOOTH",
"177 136 OFFCURVE",
"137 51 OFFCURVE",
"137 -5 CURVE SMOOTH",
"137 -75 OFFCURVE",
"184 -105 OFFCURVE",
"259 -105 CURVE SMOOTH",
"350 -105 LINE",
"350 -55 LINE",
"273 -55 LINE SMOOTH",
"224 -55 OFFCURVE",
"197 -35 OFFCURVE",
"197 2 CURVE SMOOTH",
"197 52 OFFCURVE",
"239 141 OFFCURVE",
"239 198 CURVE SMOOTH",
"239 252 OFFCURVE",
"208 278 OFFCURVE",
"153 290 CURVE",
"153 292 LINE",
"228 307 OFFCURVE",
"278 341 OFFCURVE",
"281 446 CURVE SMOOTH",
"281 467 OFFCURVE",
"281 516 OFFCURVE",
"282 539 CURVE SMOOTH",
"283 601 OFFCURVE",
"310 640 OFFCURVE",
"381 640 CURVE SMOOTH",
"465 640 LINE"
);
}
);
width = 457;
}
);
note = braceleft;
unicode = 007B;
},
{
glyphname = braceright;
layers = (
{
layerId = "3C7D841C-FDC1-4B34-88F9-2F856A81F5AE";
paths = (
{
closed = 1;
nodes = (
"420 268 LINE",
"420 317 LINE",
"395 317 LINE SMOOTH",
"326 317 OFFCURVE",
"298 341 OFFCURVE",
"298 392 CURVE SMOOTH",
"298 449 OFFCURVE",
"338 534 OFFCURVE",
"338 590 CURVE SMOOTH",
"338 660 OFFCURVE",
"290 690 OFFCURVE",
"215 690 CURVE SMOOTH",
"124 690 LINE",
"124 640 LINE",
"201 640 LINE SMOOTH",
"251 640 OFFCURVE",
"277 620 OFFCURVE",
"277 583 CURVE SMOOTH",
"277 533 OFFCURVE",
"237 443 OFFCURVE",
"237 387 CURVE SMOOTH",
"237 334 OFFCURVE",
"266 307 OFFCURVE",
"321 296 CURVE",
"321 294 LINE",
"247 278 OFFCURVE",
"196 243 OFFCURVE",
"194 139 CURVE SMOOTH",
"194 117 OFFCURVE",
"193 69 OFFCURVE",
"193 46 CURVE SMOOTH",
"191 -17 OFFCURVE",
"164 -55 OFFCURVE",
"94 -55 CURVE SMOOTH",
"11 -55 LINE",
"3 -105 LINE",
"90 -105 LINE SMOOTH",
"200 -105 OFFCURVE",
"253 -54 OFFCURVE",
"255 44 CURVE SMOOTH",
"255 66 OFFCURVE",
"256 116 OFFCURVE",
"257 137 CURVE SMOOTH",
"259 236 OFFCURVE",
"306 268 OFFCURVE",
"386 268 CURVE SMOOTH"
);
}
);
width = 457;
}
);
note = braceright;
unicode = 007D;
},
{
glyphname = bracketleft;
layers = (
{
layerId = "3C7D841C-FDC1-4B34-88F9-2F856A81F5AE";
paths = (
{
closed = 1;
nodes = (
"409 690 LINE",
"166 690 LINE",
"41 -105 LINE",
"287 -105 LINE",
"287 -54 LINE",
"111 -54 LINE",
"220 639 LINE",
"401 639 LINE"
);
}
);
width = 387;
}
);
note = bracketleft;
unicode = 005B;
},
{
glyphname = bracketright;
layers = (
{
layerId = "3C7D841C-FDC1-4B34-88F9-2F856A81F5AE";
paths = (
{
closed = 1;
nodes = (
"363 690 LINE",
"117 690 LINE",
"117 639 LINE",
"293 639 LINE",
"183 -54 LINE",
"3 -54 LINE",
"-5 -105 LINE",
"238 -105 LINE"
);
}
);
width = 387;
}
);
note = bracketright;
unicode = 005D;
},
{
glyphname = hyphen;
layers = (
{
layerId = "3C7D841C-FDC1-4B34-88F9-2F856A81F5AE";
paths = (
{
closed = 1;
nodes = (
"312 316 LINE",
"69 316 LINE",
"61 250 LINE",
"303 250 LINE"
);
}
);
width = 360;
}
);
note = hyphen;
unicode = 002D;
},
{
glyphname = endash;
layers = (
{
layerId = "3C7D841C-FDC1-4B34-88F9-2F856A81F5AE";
paths = (
{
closed = 1;
nodes = (
"399 251 LINE",
"409 315 LINE",
"71 315 LINE",
"61 251 LINE"
);
}
);
width = 456;
}
);
note = endash;
unicode = 2013;
},
{
glyphname = emdash;
layers = (
{
layerId = "3C7D841C-FDC1-4B34-88F9-2F856A81F5AE";
paths = (
{
closed = 1;
nodes = (
"855 252 LINE",
"865 315 LINE",
"71 315 LINE",
"61 252 LINE"
);
}
);
width = 912;
}
);
note = emdash;
unicode = 2014;
},
{
glyphname = underscore;
layers = (
{
layerId = "3C7D841C-FDC1-4B34-88F9-2F856A81F5AE";
paths = (
{
closed = 1;
nodes = (
"417 -52 LINE",
"-47 -52 LINE",
"-56 -105 LINE",
"409 -105 LINE"
);
}
);
width = 461;
}
);
note = underscore;
unicode = 005F;
},
{
glyphname = quotesinglbase;
layers = (
{
layerId = "3C7D841C-FDC1-4B34-88F9-2F856A81F5AE";
paths = (
{
closed = 1;
nodes = (
"137 98 LINE",
"57 98 LINE",
"-11 -116 LINE",
"24 -124 LINE"
);
}
);
width = 214;
}
);
note = quotesinglbase;
unicode = 201A;
},
{
glyphname = quotedblbase;
layers = (
{
layerId = "3C7D841C-FDC1-4B34-88F9-2F856A81F5AE";
paths = (
{
closed = 1;
nodes = (
"137 98 LINE",
"57 98 LINE",
"-11 -116 LINE",
"24 -124 LINE"
);
},
{
closed = 1;
nodes = (
"302 98 LINE",
"222 98 LINE",
"154 -116 LINE",
"189 -124 LINE"
);
}
);
width = 379;
}
);
note = quotedblbase;
unicode = 201E;
},
{
glyphname = quotedblleft;
layers = (
{
layerId = "3C7D841C-FDC1-4B34-88F9-2F856A81F5AE";
paths = (
{
closed = 1;
nodes = (
"87 473 LINE",
"167 473 LINE",
"235 687 LINE",
"200 696 LINE"
);
},
{
closed = 1;
nodes = (
"252 473 LINE",
"332 473 LINE",
"400 687 LINE",
"365 696 LINE"
);
}
);
width = 379;
}
);
note = quotedblleft;
unicode = 201C;
},
{
glyphname = quotedblright;
layers = (
{
layerId = "3C7D841C-FDC1-4B34-88F9-2F856A81F5AE";
paths = (
{
closed = 1;
nodes = (
"236 690 LINE",
"156 690 LINE",
"88 476 LINE",
"123 467 LINE"
);
},
{
closed = 1;
nodes = (
"401 690 LINE",
"321 690 LINE",
"253 476 LINE",
"288 467 LINE"
);
}
);
width = 379;
}
);
note = quotedblright;
unicode = 201D;
},
{
glyphname = quoteleft;
layers = (
{
layerId = "3C7D841C-FDC1-4B34-88F9-2F856A81F5AE";
paths = (
{
closed = 1;
nodes = (
"87 473 LINE",
"167 473 LINE",
"235 687 LINE",
"200 696 LINE"
);
}
);
width = 214;
}
);
note = quoteleft;
unicode = 2018;
},
{
glyphname = quoteright;
layers = (
{
layerId = "3C7D841C-FDC1-4B34-88F9-2F856A81F5AE";
paths = (
{
closed = 1;
nodes = (
"236 690 LINE",
"156 690 LINE",
"88 476 LINE",
"123 467 LINE"
);
}
);
width = 214;
}
);
note = quoteright;
unicode = 2019;
},
{
glyphname = guillemetleft;
layers = (
{
layerId = "3C7D841C-FDC1-4B34-88F9-2F856A81F5AE";
paths = (
{
closed = 1;
nodes = (
"499 473 LINE",
"440 473 LINE",
"242 237 LINE",
"368 -5 LINE",
"420 7 LINE",
"316 232 LINE"
);
},
{
closed = 1;
nodes = (
"297 473 LINE",
"238 473 LINE",
"39 237 LINE",
"166 -5 LINE",
"218 7 LINE",
"114 232 LINE"
);
}
);
width = 514;
}
);
note = guillemotleft;
unicode = 00AB;
},
{
glyphname = guillemetright;
layers = (
{
layerId = "3C7D841C-FDC1-4B34-88F9-2F856A81F5AE";
paths = (
{
closed = 1;
nodes = (
"217 0 LINE",
"276 0 LINE",
"474 236 LINE",
"348 478 LINE",
"295 467 LINE",
"400 241 LINE"
);
},
{
closed = 1;
nodes = (
"14 0 LINE",
"74 0 LINE",
"272 236 LINE",
"147 478 LINE",
"93 467 LINE",
"198 241 LINE"
);
}
);
width = 514;
}
);
note = guillemotright;
unicode = 00BB;
},
{
glyphname = guilsinglleft;
layers = (
{
layerId = "3C7D841C-FDC1-4B34-88F9-2F856A81F5AE";
paths = (
{
closed = 1;
nodes = (
"297 473 LINE",
"238 473 LINE",
"39 237 LINE",
"166 -5 LINE",
"218 7 LINE",
"114 232 LINE"
);
}
);
width = 312;
}
);
note = guilsinglleft;
unicode = 2039;
},
{
glyphname = guilsinglright;
layers = (
{
layerId = "3C7D841C-FDC1-4B34-88F9-2F856A81F5AE";
paths = (
{
closed = 1;
nodes = (
"14 0 LINE",
"74 0 LINE",
"272 236 LINE",
"147 478 LINE",
"93 467 LINE",
"198 241 LINE"
);
}
);
width = 312;
}
);
note = guilsinglright;
unicode = 203A;
},
{
glyphname = quotedbl;
layers = (
{
layerId = "3C7D841C-FDC1-4B34-88F9-2F856A81F5AE";
paths = (
{
closed = 1;
nodes = (
"385 676 LINE",
"305 676 LINE",
"298 500 LINE",
"334 491 LINE"
);
},
{
closed = 1;
nodes = (
"217 676 LINE",
"137 676 LINE",
"130 500 LINE",
"166 491 LINE"
);
}
);
width = 382;
}
);
note = quotedbl;
unicode = 0022;
},
{
glyphname = quotesingle;
layers = (
{
layerId = "3C7D841C-FDC1-4B34-88F9-2F856A81F5AE";
paths = (
{
closed = 1;
nodes = (
"217 676 LINE",
"137 676 LINE",
"130 500 LINE",
"166 491 LINE"
);
}
);
width = 214;
}
);
note = quotesingle;
unicode = 0027;
},
{
glyphname = apple;
layers = (
{
layerId = "3C7D841C-FDC1-4B34-88F9-2F856A81F5AE";
paths = (
{
closed = 1;
nodes = (
"644 -200 LINE",
"644 721 LINE",
"543 721 LINE",
"514 800 LINE",
"180 800 LINE",
"150 721 LINE",
"50 721 LINE",
"50 167 LINE",
"68 167 OFFCURVE",
"82 152 OFFCURVE",
"82 135 CURVE SMOOTH",
"82 117 OFFCURVE",
"68 103 OFFCURVE",
"50 103 CURVE",
"50 -200 LINE",
"257 -200 LINE",
"265 -186 LINE",
"428 -186 LINE",
"436 -200 LINE"
);
},
{
closed = 1;
nodes = (
"400 563 LINE",
"458 563 LINE",
"458 549 LINE",
"415 549 LINE",
"415 483 LINE",
"453 483 LINE",
"453 469 LINE",
"415 469 LINE",
"415 391 LINE",
"400 391 LINE"
);
},
{
closed = 1;
nodes = (
"184 563 LINE",
"199 563 LINE",
"199 484 LINE",
"246 484 LINE",
"246 563 LINE",
"261 563 LINE",
"261 391 LINE",
"246 391 LINE",
"246 470 LINE",
"199 470 LINE",
"199 391 LINE",
"184 391 LINE"
);
},
{
closed = 1;
nodes = (
"460 410 LINE",
"465 407 OFFCURVE",
"475 404 OFFCURVE",
"480 404 CURVE SMOOTH",
"491 404 OFFCURVE",
"496 410 OFFCURVE",
"496 426 CURVE SMOOTH",
"496 563 LINE",
"512 563 LINE",
"512 426 LINE SMOOTH",
"512 401 OFFCURVE",
"501 390 OFFCURVE",
"481 390 CURVE SMOOTH",
"475 390 OFFCURVE",
"464 392 OFFCURVE",
"460 394 CURVE"
);
},
{
closed = 1;
nodes = (
"523 323 LINE",
"531 323 LINE",
"531 299 LINE",
"552 323 LINE",
"562 323 LINE",
"544 303 LINE",
"563 277 LINE",
"554 277 LINE",
"538 297 LINE",
"531 290 LINE",
"531 277 LINE",
"523 277 LINE"
);
},
{
closed = 1;
nodes = (
"488 292 LINE",
"476 292 LINE",
"476 277 LINE",
"468 277 LINE",
"468 323 LINE",
"489 323 LINE SMOOTH",
"499 323 OFFCURVE",
"505 315 OFFCURVE",
"505 309 CURVE SMOOTH",
"505 302 OFFCURVE",
"501 296 OFFCURVE",
"495 294 CURVE",
"507 277 LINE",
"498 277 LINE"
);
},
{
closed = 1;
nodes = (
"412 276 OFFCURVE",
"403 287 OFFCURVE",
"403 300 CURVE SMOOTH",
"403 312 OFFCURVE",
"412 324 OFFCURVE",
"426 324 CURVE SMOOTH",
"440 324 OFFCURVE",
"450 312 OFFCURVE",
"450 300 CURVE SMOOTH",
"450 287 OFFCURVE",
"441 276 OFFCURVE",
"426 276 CURVE SMOOTH"
);
},
{
closed = 1;
nodes = (
"370 301 LINE",
"383 323 LINE",
"392 323 LINE",
"374 294 LINE",
"374 277 LINE",
"366 277 LINE",
"366 294 LINE",
"348 323 LINE",
"357 323 LINE"
);
},
{
closed = 1;
nodes = (
"193 323 LINE",
"226 323 LINE",
"226 316 LINE",
"201 316 LINE",
"201 304 LINE",
"223 304 LINE",
"223 297 LINE",
"201 297 LINE",
"201 284 LINE",
"226 284 LINE",
"226 277 LINE",
"193 277 LINE"
);
},
{
closed = 1;
nodes = (
"132 323 LINE",
"139 323 LINE",
"164 291 LINE",
"164 323 LINE",
"172 323 LINE",
"172 277 LINE",
"165 277 LINE",
"140 309 LINE",
"140 277 LINE",
"132 277 LINE"
);
},
{
closed = 1;
nodes = (
"241 323 LINE",
"249 323 LINE",
"259 288 LINE",
"260 288 LINE",
"271 323 LINE",
"279 323 LINE",
"289 288 LINE",
"290 288 LINE",
"300 323 LINE",
"308 323 LINE",
"294 276 LINE",
"286 276 LINE",
"275 310 LINE",
"274 310 LINE",
"264 276 LINE",
"256 276 LINE"
);
},
{
closed = 1;
nodes = (
"337 490 OFFCURVE",
"342 499 OFFCURVE",
"342 511 CURVE SMOOTH",
"342 521 OFFCURVE",
"337 530 OFFCURVE",
"329 530 CURVE SMOOTH",
"321 530 OFFCURVE",
"315 521 OFFCURVE",
"315 511 CURVE SMOOTH",
"315 501 OFFCURVE",
"320 492 OFFCURVE",
"327 479 CURVE"
);
},
{
closed = 1;
nodes = (
"322 462 LINE",
"313 453 OFFCURVE",
"307 440 OFFCURVE",
"307 429 CURVE SMOOTH",
"307 414 OFFCURVE",
"314 402 OFFCURVE",
"324 402 CURVE SMOOTH",
"331 402 OFFCURVE",
"339 413 OFFCURVE",
"342 423 CURVE"
);
},
{
closed = 1;
nodes = (
"488 299 LINE SMOOTH",
"493 299 OFFCURVE",
"497 303 OFFCURVE",
"497 308 CURVE SMOOTH",
"497 313 OFFCURVE",
"493 316 OFFCURVE",
"487 316 CURVE SMOOTH",
"476 316 LINE",
"476 299 LINE"
);
},
{
closed = 1;
nodes = (
"435 283 OFFCURVE",
"442 291 OFFCURVE",
"442 300 CURVE SMOOTH",
"442 308 OFFCURVE",
"435 317 OFFCURVE",
"426 317 CURVE SMOOTH",
"417 317 OFFCURVE",
"411 308 OFFCURVE",
"411 300 CURVE SMOOTH",
"411 291 OFFCURVE",
"417 283 OFFCURVE",
"426 283 CURVE SMOOTH"
);
},
{
closed = 1;
nodes = (
"349 438 LINE",
"352 447 OFFCURVE",
"356 459 OFFCURVE",
"358 468 CURVE",
"371 465 LINE",
"368 451 OFFCURVE",
"363 438 OFFCURVE",
"358 426 CURVE",
"374 396 LINE",
"363 388 LINE",
"351 412 LINE",
"350 412 LINE",
"345 400 OFFCURVE",
"336 388 OFFCURVE",
"323 388 CURVE SMOOTH",
"305 388 OFFCURVE",
"292 405 OFFCURVE",
"292 427 CURVE SMOOTH",
"292 444 OFFCURVE",
"300 460 OFFCURVE",
"315 472 CURVE",
"307 487 OFFCURVE",
"301 496 OFFCURVE",
"301 511 CURVE SMOOTH",
"301 526 OFFCURVE",
"312 542 OFFCURVE",
"329 542 CURVE SMOOTH",
"347 542 OFFCURVE",
"356 526 OFFCURVE",
"356 511 CURVE SMOOTH",
"356 495 OFFCURVE",
"346 481 OFFCURVE",
"333 469 CURVE"
);
}
);
width = 694;
}
);
note = apple;
unicode = F8FF;
},
{
glyphname = at;
layers = (
{
layerId = "3C7D841C-FDC1-4B34-88F9-2F856A81F5AE";
paths = (
{
closed = 1;
nodes = (
"485 206 LINE",
"422 129 OFFCURVE",
"387 99 OFFCURVE",
"351 99 CURVE SMOOTH",
"316 99 OFFCURVE",
"293 125 OFFCURVE",
"293 183 CURVE SMOOTH",
"293 312 OFFCURVE",
"373 395 OFFCURVE",
"451 395 CURVE SMOOTH",
"477 395 OFFCURVE",
"494 391 OFFCURVE",
"516 382 CURVE"
);
},
{
closed = 1;
nodes = (
"488 83 OFFCURVE",
"532 47 OFFCURVE",
"600 47 CURVE SMOOTH",
"698 47 OFFCURVE",
"777 148 OFFCURVE",
"777 312 CURVE SMOOTH",
"777 503 OFFCURVE",
"659 625 OFFCURVE",
"461 625 CURVE SMOOTH",
"229 625 OFFCURVE",
"51 435 OFFCURVE",
"51 183 CURVE SMOOTH",
"51 -24 OFFCURVE",
"173 -140 OFFCURVE",
"373 -140 CURVE SMOOTH",
"463 -140 OFFCURVE",
"542 -120 OFFCURVE",
"598 -92 CURVE",
"593 -63 LINE",
"534 -93 OFFCURVE",
"460 -111 OFFCURVE",
"377 -111 CURVE SMOOTH",
"204 -111 OFFCURVE",
"87 -15 OFFCURVE",
"87 184 CURVE SMOOTH",
"87 427 OFFCURVE",
"253 595 OFFCURVE",
"458 595 CURVE SMOOTH",
"632 595 OFFCURVE",
"743 493 OFFCURVE",
"743 311 CURVE SMOOTH",
"743 165 OFFCURVE",
"681 84 OFFCURVE",
"608 84 CURVE SMOOTH",
"560 84 OFFCURVE",
"539 113 OFFCURVE",
"539 153 CURVE SMOOTH",
"539 171 OFFCURVE",
"542 192 OFFCURVE",
"544 206 CURVE SMOOTH",
"580 417 LINE",
"543 433 OFFCURVE",
"501 445 OFFCURVE",
"457 445 CURVE SMOOTH",
"343 445 OFFCURVE",
"233 335 OFFCURVE",
"233 176 CURVE SMOOTH",
"233 92 OFFCURVE",
"281 47 OFFCURVE",
"336 47 CURVE SMOOTH",
"387 47 OFFCURVE",
"426 80 OFFCURVE",
"481 145 CURVE"
);
}
);
width = 829;
}
);
note = at;
unicode = 0040;
},
{
glyphname = ampersand;
layers = (
{
layerId = "3C7D841C-FDC1-4B34-88F9-2F856A81F5AE";
paths = (
{
closed = 1;
nodes = (
"487 165 LINE",
"527 225 OFFCURVE",
"561 300 OFFCURVE",
"590 388 CURVE",
"530 402 LINE",
"508 328 OFFCURVE",
"481 265 OFFCURVE",
"451 214 CURVE",
"304 413 LINE SMOOTH",
"266 464 OFFCURVE",
"248 500 OFFCURVE",
"248 541 CURVE SMOOTH",
"248 602 OFFCURVE",
"291 645 OFFCURVE",
"358 645 CURVE SMOOTH",
"402 645 OFFCURVE",
"448 629 OFFCURVE",
"495 600 CURVE",
"512 663 LINE",
"467 688 OFFCURVE",
"418 703 OFFCURVE",
"361 703 CURVE SMOOTH",
"256 703 OFFCURVE",
"182 633 OFFCURVE",
"182 535 CURVE SMOOTH",
"182 483 OFFCURVE",
"200 441 OFFCURVE",
"238 388 CURVE",
"107 339 OFFCURVE",
"32 262 OFFCURVE",
"32 156 CURVE SMOOTH",
"32 51 OFFCURVE",
"109 -13 OFFCURVE",
"215 -13 CURVE SMOOTH",
"301 -13 OFFCURVE",
"379 30 OFFCURVE",
"446 109 CURVE",
"532 -6 LINE",
"602 10 LINE"
);
},
{
closed = 1;
nodes = (
"412 155 LINE",
"354 81 OFFCURVE",
"288 44 OFFCURVE",
"222 44 CURVE SMOOTH",
"148 44 OFFCURVE",
"100 89 OFFCURVE",
"100 160 CURVE SMOOTH",
"100 239 OFFCURVE",
"153 302 OFFCURVE",
"272 343 CURVE"
);
}
);
width = 641;
}
);
note = ampersand;
unicode = 0026;
},
{
glyphname = paragraph;
layers = (
{
layerId = "3C7D841C-FDC1-4B34-88F9-2F856A81F5AE";
paths = (
{
closed = 1;
nodes = (
"387 0 LINE",
"494 676 LINE",
"333 676 LINE SMOOTH",
"170 676 OFFCURVE",
"78 587 OFFCURVE",
"78 464 CURVE SMOOTH",
"78 358 OFFCURVE",
"153 306 OFFCURVE",
"264 300 CURVE",
"323 483 LINE",
"346 627 LINE",
"429 627 LINE",
"330 0 LINE"
);
}
);
width = 512;
}
);
note = paragraph;
unicode = 00B6;
},
{
glyphname = section;
layers = (
{
layerId = "3C7D841C-FDC1-4B34-88F9-2F856A81F5AE";
paths = (
{
closed = 1;
nodes = (
"482 419 OFFCURVE",
"441 448 OFFCURVE",
"361 473 CURVE SMOOTH",
"297 492 LINE SMOOTH",
"238 510 OFFCURVE",
"210 527 OFFCURVE",
"210 564 CURVE SMOOTH",
"210 602 OFFCURVE",
"245 632 OFFCURVE",
"305 632 CURVE SMOOTH",
"359 632 OFFCURVE",
"404 618 OFFCURVE",
"451 594 CURVE",
"469 649 LINE",
"424 669 OFFCURVE",
"372 684 OFFCURVE",
"312 684 CURVE SMOOTH",
"214 684 OFFCURVE",
"149 633 OFFCURVE",
"149 559 CURVE SMOOTH",
"149 492 OFFCURVE",
"194 463 OFFCURVE",
"272 440 CURVE SMOOTH",
"339 420 LINE SMOOTH",
"405 400 OFFCURVE",
"420 381 OFFCURVE",
"420 354 CURVE SMOOTH",
"420 324 OFFCURVE",
"404 295 OFFCURVE",
"387 274 CURVE",
"440 259 LINE",
"461 283 OFFCURVE",
"482 320 OFFCURVE",
"482 362 CURVE SMOOTH"
);
},
{
closed = 1;
nodes = (
"66 257 OFFCURVE",
"106 228 OFFCURVE",
"187 203 CURVE SMOOTH",
"250 184 LINE SMOOTH",
"310 166 OFFCURVE",
"338 149 OFFCURVE",
"338 112 CURVE SMOOTH",
"338 74 OFFCURVE",
"302 44 OFFCURVE",
"243 44 CURVE SMOOTH",
"189 44 OFFCURVE",
"143 58 OFFCURVE",
"97 82 CURVE",
"79 27 LINE",
"123 7 OFFCURVE",
"175 -8 OFFCURVE",
"236 -8 CURVE SMOOTH",
"333 -8 OFFCURVE",
"399 43 OFFCURVE",
"399 117 CURVE SMOOTH",
"399 184 OFFCURVE",
"354 213 OFFCURVE",
"276 236 CURVE SMOOTH",
"209 256 LINE SMOOTH",
"143 275 OFFCURVE",
"127 295 OFFCURVE",
"127 322 CURVE SMOOTH",
"127 352 OFFCURVE",
"144 381 OFFCURVE",
"161 402 CURVE",
"107 417 LINE",
"87 393 OFFCURVE",
"66 356 OFFCURVE",
"66 314 CURVE SMOOTH"
);
}
);
width = 515;
}
);
note = section;
unicode = 00A7;
},
{
glyphname = copyright;
layers = (
{
layerId = "3C7D841C-FDC1-4B34-88F9-2F856A81F5AE";
paths = (
{
closed = 1;
nodes = (
"764 556 OFFCURVE",
"626 703 OFFCURVE",
"419 703 CURVE SMOOTH",
"213 703 OFFCURVE",
"74 555 OFFCURVE",
"74 345 CURVE SMOOTH",
"74 134 OFFCURVE",
"213 -13 OFFCURVE",
"419 -13 CURVE SMOOTH",
"626 -13 OFFCURVE",
"764 135 OFFCURVE",
"764 345 CURVE SMOOTH"
);
},
{
closed = 1;
nodes = (
"729 145 OFFCURVE",
"605 16 OFFCURVE",
"420 16 CURVE SMOOTH",
"237 16 OFFCURVE",
"110 145 OFFCURVE",
"110 345 CURVE SMOOTH",
"110 545 OFFCURVE",
"234 674 OFFCURVE",
"419 674 CURVE SMOOTH",
"602 674 OFFCURVE",
"729 545 OFFCURVE",
"729 345 CURVE SMOOTH"
);
},
{
closed = 1;
nodes = (
"546 238 LINE",
"505 208 OFFCURVE",
"468 193 OFFCURVE",
"428 193 CURVE SMOOTH",
"352 193 OFFCURVE",
"301 256 OFFCURVE",
"301 348 CURVE SMOOTH",
"301 440 OFFCURVE",
"350 503 OFFCURVE",
"428 503 CURVE SMOOTH",
"467 503 OFFCURVE",
"501 490 OFFCURVE",
"538 462 CURVE",
"547 516 LINE",
"512 538 OFFCURVE",
"474 552 OFFCURVE",
"429 552 CURVE SMOOTH",
"323 552 OFFCURVE",
"248 468 OFFCURVE",
"248 348 CURVE SMOOTH",
"248 228 OFFCURVE",
"321 145 OFFCURVE",
"427 145 CURVE SMOOTH",
"474 145 OFFCURVE",
"518 162 OFFCURVE",
"553 187 CURVE"
);
}
);
width = 806;
}
);
note = copyright;
unicode = 00A9;
},
{
glyphname = registered;
layers = (
{
layerId = "3C7D841C-FDC1-4B34-88F9-2F856A81F5AE";
paths = (
{
closed = 1;
nodes = (
"546 604 OFFCURVE",
"454 700 OFFCURVE",
"320 700 CURVE SMOOTH",
"186 700 OFFCURVE",
"93 604 OFFCURVE",
"93 468 CURVE SMOOTH",
"93 331 OFFCURVE",
"185 235 OFFCURVE",
"320 235 CURVE SMOOTH",
"453 235 OFFCURVE",
"546 331 OFFCURVE",
"546 467 CURVE SMOOTH"
);
},
{
closed = 1;
nodes = (
"520 341 OFFCURVE",
"436 258 OFFCURVE",
"320 258 CURVE SMOOTH",
"204 258 OFFCURVE",
"120 341 OFFCURVE",
"120 468 CURVE SMOOTH",
"120 594 OFFCURVE",
"203 677 OFFCURVE",
"320 677 CURVE SMOOTH",
"435 677 OFFCURVE",
"520 594 OFFCURVE",
"520 467 CURVE SMOOTH"
);
},
{
closed = 1;
nodes = (
"427 353 LINE",
"350 459 LINE",
"382 468 OFFCURVE",
"405 492 OFFCURVE",
"405 530 CURVE SMOOTH",
"405 577 OFFCURVE",
"370 605 OFFCURVE",
"316 605 CURVE SMOOTH",
"246 605 LINE",
"246 347 LINE",
"283 347 LINE",
"283 454 LINE",
"310 454 LINE",
"388 344 LINE"
);
},
{
closed = 1;
nodes = (
"368 499 OFFCURVE",
"346 484 OFFCURVE",
"313 484 CURVE SMOOTH",
"282 484 LINE",
"282 571 LINE",
"315 571 LINE SMOOTH",
"349 571 OFFCURVE",
"368 556 OFFCURVE",
"368 528 CURVE SMOOTH"
);
}
);
width = 566;
}
);
note = registered;
unicode = 00AE;
},
{
glyphname = trademark;
layers = (
{
layerId = "3C7D841C-FDC1-4B34-88F9-2F856A81F5AE";
paths = (
{
closed = 1;
nodes = (
"783 345 LINE",
"756 690 LINE",
"701 690 LINE",
"591 407 LINE",
"481 690 LINE",
"425 690 LINE",
"399 345 LINE",
"444 345 LINE",
"465 610 LINE",
"571 344 LINE",
"609 344 LINE",
"716 610 LINE",
"736 345 LINE"
);
},
{
closed = 1;
nodes = (
"350 647 LINE",
"343 690 LINE",
"85 690 LINE",
"85 647 LINE",
"194 647 LINE",
"194 345 LINE",
"241 345 LINE",
"241 647 LINE"
);
}
);
width = 801;
}
);
note = trademark;
unicode = 2122;
},
{
glyphname = degree;
layers = (
{
layerId = "3C7D841C-FDC1-4B34-88F9-2F856A81F5AE";
paths = (
{
closed = 1;
nodes = (
"416 614 OFFCURVE",
"348 681 OFFCURVE",
"257 681 CURVE SMOOTH",
"167 681 OFFCURVE",
"98 614 OFFCURVE",
"98 523 CURVE SMOOTH",
"98 431 OFFCURVE",
"167 365 OFFCURVE",
"257 365 CURVE SMOOTH",
"348 365 OFFCURVE",
"416 431 OFFCURVE",
"416 523 CURVE SMOOTH"
);
},
{
closed = 1;
nodes = (
"363 460 OFFCURVE",
"319 412 OFFCURVE",
"258 412 CURVE SMOOTH",
"196 412 OFFCURVE",
"151 460 OFFCURVE",
"151 523 CURVE SMOOTH",
"151 585 OFFCURVE",
"195 634 OFFCURVE",
"256 634 CURVE SMOOTH",
"318 634 OFFCURVE",
"363 585 OFFCURVE",
"363 523 CURVE SMOOTH"
);
}
);
width = 423;
}
);
note = degree;
unicode = 00B0;
},
{
glyphname = bar;
layers = (
{
layerId = "3C7D841C-FDC1-4B34-88F9-2F856A81F5AE";
paths = (
{
closed = 1;
nodes = (
"163 -179 LINE",
"163 723 LINE",
"103 713 LINE",
"103 -189 LINE"
);
}
);
width = 266;
}
);
note = bar;
unicode = 007C;
},
{
glyphname = brokenbar;
layers = (
{
layerId = "3C7D841C-FDC1-4B34-88F9-2F856A81F5AE";
paths = (
{
closed = 1;
nodes = (
"25 -200 LINE",
"475 -200 LINE",
"475 800 LINE",
"25 800 LINE"
);
}
);
width = 500;
}
);
note = brokenbar;
unicode = 00A6;
},
{
glyphname = dagger;
layers = (
{
layerId = "3C7D841C-FDC1-4B34-88F9-2F856A81F5AE";
paths = (
{
closed = 1;
nodes = (
"334 587 LINE",
"350 690 LINE",
"291 690 LINE",
"275 584 LINE",
"275 473 LINE",
"297 473 LINE"
);
},
{
closed = 1;
nodes = (
"475 414 LINE",
"484 472 LINE",
"434 472 LINE",
"314 453 LINE",
"312 432 LINE",
"425 414 LINE"
);
},
{
closed = 1;
nodes = (
"248 432 LINE",
"251 453 LINE",
"138 472 LINE",
"88 472 LINE",
"79 414 LINE",
"129 414 LINE"
);
},
{
closed = 1;
nodes = (
"239 -1 LINE",
"288 310 LINE",
"288 413 LINE",
"266 413 LINE",
"233 310 LINE",
"184 -1 LINE",
"184 -116 LINE",
"203 -116 LINE"
);
}
);
width = 498;
}
);
note = dagger;
unicode = 2020;
},
{
glyphname = daggerdbl;
layers = (
{
layerId = "3C7D841C-FDC1-4B34-88F9-2F856A81F5AE";
paths = (
{
closed = 1;
nodes = (
"343 587 LINE",
"359 690 LINE",
"301 690 LINE",
"285 585 LINE",
"285 473 LINE",
"307 473 LINE"
);
},
{
closed = 1;
nodes = (
"484 414 LINE",
"493 472 LINE",
"444 472 LINE",
"324 453 LINE",
"321 432 LINE",
"434 414 LINE"
);
},
{
closed = 1;
nodes = (
"257 432 LINE",
"261 453 LINE",
"147 472 LINE",
"97 472 LINE",
"88 414 LINE",
"138 414 LINE"
);
},
{
closed = 1;
nodes = (
"279 196 LINE",
"298 313 LINE",
"298 413 LINE",
"275 413 LINE",
"242 310 LINE",
"224 193 LINE",
"224 93 LINE",
"247 93 LINE"
);
},
{
closed = 1;
nodes = (
"424 34 LINE",
"433 92 LINE",
"384 92 LINE",
"264 73 LINE",
"260 52 LINE",
"374 34 LINE"
);
},
{
closed = 1;
nodes = (
"197 52 LINE",
"201 73 LINE",
"87 92 LINE",
"37 92 LINE",
"28 34 LINE",
"78 34 LINE"
);
},
{
closed = 1;
nodes = (
"221 -185 LINE",
"236 -79 LINE",
"236 32 LINE",
"215 32 LINE",
"178 -82 LINE",
"162 -185 LINE"
);
}
);
width = 517;
}
);
note = daggerdbl;
unicode = 2021;
},
{
glyphname = cent;
layers = (
{
layerId = "3C7D841C-FDC1-4B34-88F9-2F856A81F5AE";
paths = (
{
closed = 1;
nodes = (
"363 572 OFFCURVE",
"396 675 OFFCURVE",
"396 675 CURVE",
"348 685 LINE",
"315 579 LINE",
"312 579 OFFCURVE",
"308 579 OFFCURVE",
"305 579 CURVE SMOOTH",
"163 579 OFFCURVE",
"59 445 OFFCURVE",
"59 294 CURVE SMOOTH",
"59 204 OFFCURVE",
"104 140 OFFCURVE",
"168 113 CURVE",
"132 1 LINE",
"180 -10 LINE",
"214 99 LINE",
"226 97 OFFCURVE",
"237 96 OFFCURVE",
"249 96 CURVE SMOOTH",
"306 96 OFFCURVE",
"353 115 OFFCURVE",
"392 139 CURVE",
"392 194 LINE",
"348 166 OFFCURVE",
"302 149 OFFCURVE",
"255 149 CURVE SMOOTH",
"246 149 OFFCURVE",
"238 150 OFFCURVE",
"229 151 CURVE",
"230 151 OFFCURVE",
"345 520 OFFCURVE",
"345 519 CURVE",
"375 511 OFFCURVE",
"403 495 OFFCURVE",
"427 473 CURVE",
"446 528 LINE",
"425 546 OFFCURVE",
"397 562 OFFCURVE",
"363 571 CURVE"
);
},
{
closed = 1;
nodes = (
"299 526 OFFCURVE",
"186 166 OFFCURVE",
"185 166 CURVE",
"147 189 OFFCURVE",
"122 232 OFFCURVE",
"122 298 CURVE SMOOTH",
"122 415 OFFCURVE",
"192 526 OFFCURVE",
"297 526 CURVE SMOOTH",
"298 526 OFFCURVE",
"298 526 OFFCURVE",
"299 526 CURVE"
);
}
);
width = 453;
}
);
note = cent;
unicode = 00A2;
},
{
glyphname = currency;
layers = (
{
layerId = "3C7D841C-FDC1-4B34-88F9-2F856A81F5AE";
paths = (
{
closed = 1;
nodes = (
"452 404 LINE",
"452 456 LINE",
"224 456 LINE",
"263 558 OFFCURVE",
"336 633 OFFCURVE",
"425 633 CURVE SMOOTH",
"486 633 OFFCURVE",
"528 611 OFFCURVE",
"576 569 CURVE",
"591 631 LINE",
"550 667 OFFCURVE",
"499 689 OFFCURVE",
"429 689 CURVE SMOOTH",
"304 689 OFFCURVE",
"205 589 OFFCURVE",
"158 456 CURVE",
"64 456 LINE",
"55 404 LINE",
"55 404 OFFCURVE",
"143 404 OFFCURVE",
"142 404 CURVE",
"133 366 OFFCURVE",
"128 327 OFFCURVE",
"127 287 CURVE",
"35 287 LINE",
"35 236 LINE",
"35 236 OFFCURVE",
"129 236 OFFCURVE",
"128 236 CURVE",
"140 80 OFFCURVE",
"222 -13 OFFCURVE",
"350 -13 CURVE SMOOTH",
"405 -13 OFFCURVE",
"461 6 OFFCURVE",
"509 37 CURVE",
"509 98 LINE",
"449 57 OFFCURVE",
"406 43 OFFCURVE",
"356 43 CURVE SMOOTH",
"266 43 OFFCURVE",
"204 110 OFFCURVE",
"193 236 CURVE",
"423 236 LINE",
"432 287 LINE",
"191 287 LINE",
"192 327 OFFCURVE",
"197 367 OFFCURVE",
"207 404 CURVE"
);
}
);
width = 577;
}
);
note = currency;
unicode = 00A4;
},
{
glyphname = dollar;
layers = (
{
layerId = "3C7D841C-FDC1-4B34-88F9-2F856A81F5AE";
paths = (
{
closed = 1;
nodes = (
"427 743 LINE",
"378 755 LINE",
"354 679 LINE",
"340 680 OFFCURVE",
"326 681 OFFCURVE",
"311 681 CURVE SMOOTH",
"186 681 OFFCURVE",
"105 608 OFFCURVE",
"105 505 CURVE SMOOTH",
"105 422 OFFCURVE",
"157 378 OFFCURVE",
"246 332 CURVE",
"159 56 LINE",
"111 68 OFFCURVE",
"67 89 OFFCURVE",
"28 113 CURVE",
"14 51 LINE",
"46 33 OFFCURVE",
"90 14 OFFCURVE",
"141 3 CURVE",
"105 -112 LINE",
"153 -123 LINE",
"153 -123 OFFCURVE",
"191 -4 OFFCURVE",
"190 -4 CURVE",
"203 -5 OFFCURVE",
"215 -6 OFFCURVE",
"228 -6 CURVE SMOOTH",
"356 -6 OFFCURVE",
"455 67 OFFCURVE",
"455 190 CURVE SMOOTH",
"455 268 OFFCURVE",
"414 316 OFFCURVE",
"308 371 CURVE",
"386 618 LINE",
"423 608 OFFCURVE",
"458 594 OFFCURVE",
"484 577 CURVE",
"499 638 LINE",
"472 651 OFFCURVE",
"441 663 OFFCURVE",
"404 671 CURVE"
);
},
{
closed = 1;
nodes = (
"207 48 OFFCURVE",
"289 311 OFFCURVE",
"289 310 CURVE",
"367 269 OFFCURVE",
"394 236 OFFCURVE",
"394 185 CURVE SMOOTH",
"394 101 OFFCURVE",
"326 47 OFFCURVE",
"232 47 CURVE SMOOTH",
"223 47 OFFCURVE",
"215 47 OFFCURVE",
"207 48 CURVE"
);
},
{
closed = 1;
nodes = (
"265 392 LINE",
"191 431 OFFCURVE",
"164 463 OFFCURVE",
"164 509 CURVE SMOOTH",
"164 580 OFFCURVE",
"216 629 OFFCURVE",
"308 629 CURVE SMOOTH",
"318 629 OFFCURVE",
"328 628 OFFCURVE",
"339 627 CURVE"
);
}
);
width = 509;
}
);
note = dollar;
unicode = 0024;
},
{
glyphname = florin;
layers = (
{
layerId = "3C7D841C-FDC1-4B34-88F9-2F856A81F5AE";
paths = (
{
closed = 1;
nodes = (
"347 681 LINE",
"338 683 OFFCURVE",
"325 684 OFFCURVE",
"306 684 CURVE SMOOTH",
"225 684 OFFCURVE",
"176 646 OFFCURVE",
"163 557 CURVE SMOOTH",
"146 453 LINE",
"76 453 LINE",
"67 398 LINE",
"137 398 LINE",
"73 0 LINE",
"138 0 LINE",
"201 398 LINE",
"304 398 LINE",
"304 453 LINE",
"210 453 LINE",
"226 551 LINE SMOOTH",
"235 605 OFFCURVE",
"262 626 OFFCURVE",
"304 626 CURVE SMOOTH",
"320 626 OFFCURVE",
"334 625 OFFCURVE",
"347 623 CURVE"
);
}
);
width = 360;
}
);
note = florin;
unicode = 0192;
},
{
glyphname = sterling;
layers = (
{
layerId = "3C7D841C-FDC1-4B34-88F9-2F856A81F5AE";
paths = (
{
closed = 1;
nodes = (
"169 361 LINE",
"71 361 LINE",
"62 305 LINE",
"145 305 LINE",
"37 50 LINE",
"29 0 LINE",
"456 0 LINE",
"456 56 LINE",
"105 56 LINE",
"210 305 LINE",
"411 305 LINE",
"411 361 LINE",
"411 361 OFFCURVE",
"234 361 OFFCURVE",
"233 361 CURVE",
"303 526 LINE SMOOTH",
"331 593 OFFCURVE",
"365 631 OFFCURVE",
"422 631 CURVE SMOOTH",
"455 631 OFFCURVE",
"480 625 OFFCURVE",
"509 614 CURVE",
"523 672 LINE",
"498 681 OFFCURVE",
"466 689 OFFCURVE",
"428 689 CURVE SMOOTH",
"333 689 OFFCURVE",
"286 637 OFFCURVE",
"244 538 CURVE SMOOTH"
);
}
);
width = 523;
}
);
note = sterling;
unicode = 00A3;
},
{
glyphname = yen;
layers = (
{
layerId = "3C7D841C-FDC1-4B34-88F9-2F856A81F5AE";
paths = (
{
closed = 1;
nodes = (
"321 243 LINE",
"487 243 LINE",
"487 294 LINE",
"339 294 LINE",
"621 676 LINE",
"549 676 LINE",
"306 335 LINE",
"165 683 LINE",
"101 667 LINE",
"259 294 LINE",
"105 294 LINE",
"96 243 LINE",
"260 243 LINE",
"246 152 LINE",
"247 152 OFFCURVE",
"78 152 OFFCURVE",
"78 152 CURVE",
"78 100 LINE",
"78 100 OFFCURVE",
"239 100 OFFCURVE",
"238 100 CURVE",
"223 0 LINE",
"283 0 LINE",
"299 100 LINE",
"461 100 LINE",
"469 152 LINE",
"307 152 LINE"
);
}
);
width = 579;
}
);
note = yen;
unicode = 00A5;
},
{
glyphname = plus;
layers = (
{
layerId = "3C7D841C-FDC1-4B34-88F9-2F856A81F5AE";
paths = (
{
closed = 1;
nodes = (
"525 311 LINE",
"533 365 LINE",
"335 365 LINE",
"366 567 LINE",
"309 567 LINE",
"277 365 LINE",
"78 365 LINE",
"70 311 LINE",
"269 311 LINE",
"237 109 LINE",
"295 109 LINE",
"326 311 LINE"
);
}
);
width = 570;
}
);
note = plus;
unicode = 002B;
},
{
glyphname = minus;
layers = (
{
layerId = "3C7D841C-FDC1-4B34-88F9-2F856A81F5AE";
paths = (
{
closed = 1;
nodes = (
"25 -200 LINE",
"475 -200 LINE",
"475 800 LINE",
"25 800 LINE"
);
}
);
width = 500;
}
);
note = minus;
unicode = 2212;
},
{
glyphname = multiply;
layers = (
{
layerId = "3C7D841C-FDC1-4B34-88F9-2F856A81F5AE";
paths = (
{
closed = 1;
nodes = (
"25 -200 LINE",
"475 -200 LINE",
"475 800 LINE",
"25 800 LINE"
);
}
);
width = 500;
}
);
note = multiply;
unicode = 00D7;
},
{
glyphname = divide;
layers = (
{
layerId = "3C7D841C-FDC1-4B34-88F9-2F856A81F5AE";
paths = (
{
closed = 1;
nodes = (
"362 477 LINE",
"376 567 LINE",
"299 567 LINE",
"285 477 LINE"
);
},
{
closed = 1;
nodes = (
"525 311 LINE",
"533 365 LINE",
"78 365 LINE",
"70 311 LINE"
);
},
{
closed = 1;
nodes = (
"304 109 LINE",
"318 199 LINE",
"242 199 LINE",
"228 109 LINE"
);
}
);
width = 570;
}
);
note = divide;
unicode = 00F7;
},
{
glyphname = equal;
layers = (
{
layerId = "3C7D841C-FDC1-4B34-88F9-2F856A81F5AE";
paths = (
{
closed = 1;
nodes = (
"554 418 LINE",
"564 478 LINE",
"114 478 LINE",
"104 418 LINE"
);
},
{
closed = 1;
nodes = (
"519 198 LINE",
"529 258 LINE",
"79 258 LINE",
"69 198 LINE"
);
}
);
width = 604;
}
);
note = equal;
unicode = 003D;
},
{
glyphname = notequal;
layers = (
{
layerId = "3C7D841C-FDC1-4B34-88F9-2F856A81F5AE";
paths = (
{
closed = 1;
nodes = (
"431 314 OFFCURVE",
"358 372 OFFCURVE",
"244 383 CURVE",
"492 629 LINE",
"500 676 LINE",
"117 676 LINE",
"117 619 LINE",
"406 619 LINE",
"165 380 LINE",
"165 333 LINE",
"185 333 LINE SMOOTH",
"298 333 OFFCURVE",
"365 292 OFFCURVE",
"365 199 CURVE SMOOTH",
"365 104 OFFCURVE",
"295 44 OFFCURVE",
"203 44 CURVE SMOOTH",
"146 44 OFFCURVE",
"86 65 OFFCURVE",
"28 103 CURVE",
"8 43 LINE",
"64 9 OFFCURVE",
"131 -13 OFFCURVE",
"198 -13 CURVE SMOOTH",
"332 -13 OFFCURVE",
"431 72 OFFCURVE",
"431 204 CURVE SMOOTH"
);
}
);
width = 492;
}
);
note = notequal;
unicode = 2260;
},
{
glyphname = greater;
layers = (
{
layerId = "3C7D841C-FDC1-4B34-88F9-2F856A81F5AE";
paths = (
{
closed = 1;
nodes = (
"131 587 LINE",
"120 525 LINE",
"461 340 LINE",
"62 156 LINE",
"51 89 LINE",
"525 312 LINE",
"533 364 LINE"
);
}
);
width = 570;
}
);
note = greater;
unicode = 003E;
},
{
glyphname = less;
layers = (
{
layerId = "3C7D841C-FDC1-4B34-88F9-2F856A81F5AE";
paths = (
{
closed = 1;
nodes = (
"472 89 LINE",
"482 151 LINE",
"142 336 LINE",
"541 520 LINE",
"552 587 LINE",
"78 364 LINE",
"70 312 LINE"
);
}
);
width = 570;
}
);
note = less;
unicode = 003C;
},
{
glyphname = greaterequal;
layers = (
{
layerId = "3C7D841C-FDC1-4B34-88F9-2F856A81F5AE";
paths = (
{
closed = 1;
nodes = (
"634 690 LINE",
"567 690 LINE",
"481 150 LINE",
"402 87 OFFCURVE",
"329 51 OFFCURVE",
"261 51 CURVE SMOOTH",
"186 51 OFFCURVE",
"144 91 OFFCURVE",
"144 170 CURVE SMOOTH",
"144 183 OFFCURVE",
"145 198 OFFCURVE",
"148 214 CURVE SMOOTH",
"223 690 LINE",
"156 690 LINE",
"80 210 LINE SMOOTH",
"77 191 OFFCURVE",
"76 171 OFFCURVE",
"76 154 CURVE SMOOTH",
"76 44 OFFCURVE",
"142 -8 OFFCURVE",
"250 -8 CURVE SMOOTH",
"331 -8 OFFCURVE",
"407 32 OFFCURVE",
"475 84 CURVE",
"475 0 LINE",
"524 0 LINE"
);
}
);
width = 652;
}
);
note = greaterequal;
unicode = 2265;
},
{
glyphname = lessequal;
layers = (
{
layerId = "3C7D841C-FDC1-4B34-88F9-2F856A81F5AE";
paths = (
{
closed = 1;
nodes = (
"717 0 LINE",
"826 690 LINE",
"744 690 LINE",
"397 90 LINE",
"241 690 LINE",
"159 690 LINE",
"50 0 LINE",
"111 0 LINE",
"203 578 LINE",
"357 -3 LINE",
"404 -3 LINE",
"744 578 LINE",
"653 0 LINE"
);
}
);
width = 842;
}
);
note = lessequal;
unicode = 2264;
},
{
glyphname = plusminus;
layers = (
{
layerId = "3C7D841C-FDC1-4B34-88F9-2F856A81F5AE";
paths = (
{
closed = 1;
nodes = (
"526 161 LINE",
"535 215 LINE",
"422 215 LINE",
"455 417 LINE",
"392 403 LINE",
"362 215 LINE",
"112 215 LINE",
"477 668 LINE",
"418 682 LINE",
"35 206 LINE",
"28 161 LINE",
"355 161 LINE",
"328 0 LINE",
"388 0 LINE",
"414 161 LINE"
);
}
);
width = 571;
}
);
note = plusminus;
unicode = 00B1;
},
{
glyphname = approxequal;
layers = (
{
layerId = "3C7D841C-FDC1-4B34-88F9-2F856A81F5AE";
paths = (
{
closed = 1;
nodes = (
"333 712 LINE",
"323 714 OFFCURVE",
"308 715 OFFCURVE",
"290 715 CURVE SMOOTH",
"212 715 OFFCURVE",
"165 681 OFFCURVE",
"152 599 CURVE SMOOTH",
"132 473 LINE",
"61 473 LINE",
"53 419 LINE",
"123 419 LINE",
"28 -183 LINE",
"94 -172 LINE",
"187 419 LINE",
"290 419 LINE",
"290 473 LINE",
"195 473 LINE",
"214 590 LINE SMOOTH",
"221 635 OFFCURVE",
"245 659 OFFCURVE",
"289 659 CURVE SMOOTH",
"307 659 OFFCURVE",
"323 657 OFFCURVE",
"333 655 CURVE"
);
},
{
closed = 1;
nodes = (
"613 712 LINE",
"603 714 OFFCURVE",
"589 715 OFFCURVE",
"571 715 CURVE SMOOTH",
"492 715 OFFCURVE",
"446 681 OFFCURVE",
"432 599 CURVE SMOOTH",
"412 473 LINE",
"341 473 LINE",
"333 419 LINE",
"403 419 LINE",
"309 -183 LINE",
"374 -172 LINE",
"468 419 LINE",
"570 419 LINE",
"570 473 LINE",
"475 473 LINE",
"494 590 LINE SMOOTH",
"501 635 OFFCURVE",
"525 659 OFFCURVE",
"569 659 CURVE SMOOTH",
"587 659 OFFCURVE",
"604 657 OFFCURVE",
"613 655 CURVE"
);
},
{
closed = 1;
nodes = (
"782 661 OFFCURVE",
"761 682 OFFCURVE",
"735 682 CURVE SMOOTH",
"710 682 OFFCURVE",
"689 661 OFFCURVE",
"689 635 CURVE SMOOTH",
"689 610 OFFCURVE",
"710 589 OFFCURVE",
"735 589 CURVE SMOOTH",
"761 589 OFFCURVE",
"782 610 OFFCURVE",
"782 635 CURVE SMOOTH"
);
},
{
closed = 1;
nodes = (
"742 473 LINE",
"678 473 LINE",
"602 0 LINE",
"666 0 LINE"
);
}
);
width = 784;
}
);
note = approxequal;
unicode = 2248;
},
{
glyphname = asciitilde;
layers = (
{
layerId = "3C7D841C-FDC1-4B34-88F9-2F856A81F5AE";
paths = (
{
closed = 1;
nodes = (
"321 339 LINE",
"307 301 OFFCURVE",
"292 285 OFFCURVE",
"277 285 CURVE SMOOTH",
"261 285 OFFCURVE",
"251 291 OFFCURVE",
"217 311 CURVE SMOOTH",
"190 328 OFFCURVE",
"174 337 OFFCURVE",
"147 337 CURVE SMOOTH",
"108 337 OFFCURVE",
"74 301 OFFCURVE",
"52 233 CURVE",
"96 224 LINE",
"111 262 OFFCURVE",
"125 277 OFFCURVE",
"140 277 CURVE SMOOTH",
"156 277 OFFCURVE",
"166 272 OFFCURVE",
"200 251 CURVE SMOOTH",
"228 234 OFFCURVE",
"244 226 OFFCURVE",
"270 226 CURVE SMOOTH",
"310 226 OFFCURVE",
"343 261 OFFCURVE",
"365 329 CURVE"
);
}
);
width = 403;
}
);
note = asciitilde;
unicode = 007E;
},
{
glyphname = logicalnot;
layers = (
{
layerId = "3C7D841C-FDC1-4B34-88F9-2F856A81F5AE";
paths = (
{
closed = 1;
nodes = (
"525 310 LINE",
"533 366 LINE",
"78 366 LINE",
"70 310 LINE"
);
}
);
width = 570;
}
);
note = logicalnot;
unicode = 00AC;
},
{
glyphname = asciicircum;
layers = (
{
layerId = "3C7D841C-FDC1-4B34-88F9-2F856A81F5AE";
paths = (
{
closed = 1;
nodes = (
"408 554 LINE",
"331 695 LINE",
"270 695 LINE",
"142 550 LINE",
"186 550 LINE",
"292 632 LINE",
"374 547 LINE"
);
}
);
width = 456;
}
);
note = asciicircum;
unicode = 005E;
},
{
glyphname = infinity;
layers = (
{
layerId = "3C7D841C-FDC1-4B34-88F9-2F856A81F5AE";
paths = (
{
closed = 1;
nodes = (
"305 133 LINE",
"242 73 OFFCURVE",
"194 44 OFFCURVE",
"151 44 CURVE SMOOTH",
"110 44 OFFCURVE",
"87 70 OFFCURVE",
"87 110 CURVE SMOOTH",
"87 181 OFFCURVE",
"140 238 OFFCURVE",
"325 252 CURVE"
);
},
{
closed = 1;
nodes = (
"307 0 LINE",
"363 0 LINE",
"366 113 LINE",
"400 322 LINE SMOOTH",
"417 423 OFFCURVE",
"377 483 OFFCURVE",
"266 483 CURVE SMOOTH",
"209 483 OFFCURVE",
"155 467 OFFCURVE",
"106 445 CURVE",
"106 386 LINE",
"165 415 OFFCURVE",
"212 428 OFFCURVE",
"257 428 CURVE SMOOTH",
"322 428 OFFCURVE",
"348 397 OFFCURVE",
"337 323 CURVE SMOOTH",
"333 299 LINE",
"93 284 OFFCURVE",
"22 205 OFFCURVE",
"22 106 CURVE SMOOTH",
"22 33 OFFCURVE",
"72 -9 OFFCURVE",
"138 -9 CURVE SMOOTH",
"198 -9 OFFCURVE",
"253 29 OFFCURVE",
"305 79 CURVE"
);
}
);
width = 454;
}
);
note = infinity;
unicode = 221E;
},
{
glyphname = integral;
layers = (
{
layerId = "3C7D841C-FDC1-4B34-88F9-2F856A81F5AE";
paths = (
{
closed = 1;
nodes = (
"160 40 OFFCURVE",
"176 35 OFFCURVE",
"195 30 CURVE SMOOTH",
"240 18 LINE SMOOTH",
"314 -2 OFFCURVE",
"339 -19 OFFCURVE",
"339 -51 CURVE SMOOTH",
"339 -92 OFFCURVE",
"283 -135 OFFCURVE",
"190 -135 CURVE SMOOTH",
"92 -135 OFFCURVE",
"36 -105 OFFCURVE",
"36 -59 CURVE SMOOTH",
"36 -23 OFFCURVE",
"70 14 OFFCURVE",
"145 45 CURVE"
);
},
{
closed = 1;
nodes = (
"344 270 OFFCURVE",
"298 208 OFFCURVE",
"223 208 CURVE SMOOTH",
"162 208 OFFCURVE",
"126 247 OFFCURVE",
"126 307 CURVE SMOOTH",
"126 371 OFFCURVE",
"172 433 OFFCURVE",
"246 433 CURVE SMOOTH",
"307 433 OFFCURVE",
"344 396 OFFCURVE",
"344 334 CURVE SMOOTH"
);
},
{
closed = 1;
nodes = (
"363 441 LINE",
"334 467 OFFCURVE",
"295 482 OFFCURVE",
"249 482 CURVE SMOOTH",
"147 482 OFFCURVE",
"62 403 OFFCURVE",
"62 304 CURVE SMOOTH",
"62 252 OFFCURVE",
"86 211 OFFCURVE",
"124 186 CURVE",
"91 164 OFFCURVE",
"69 142 OFFCURVE",
"70 116 CURVE",
"70 98 OFFCURVE",
"79 83 OFFCURVE",
"96 70 CURVE",
"5 26 OFFCURVE",
"-28 -13 OFFCURVE",
"-28 -67 CURVE SMOOTH",
"-28 -139 OFFCURVE",
"61 -185 OFFCURVE",
"188 -185 CURVE SMOOTH",
"312 -185 OFFCURVE",
"403 -124 OFFCURVE",
"403 -42 CURVE SMOOTH",
"403 17 OFFCURVE",
"358 48 OFFCURVE",
"262 74 CURVE SMOOTH",
"223 84 LINE SMOOTH",
"152 102 OFFCURVE",
"137 111 OFFCURVE",
"136 129 CURVE SMOOTH",
"135 141 OFFCURVE",
"146 153 OFFCURVE",
"167 167 CURVE",
"183 162 OFFCURVE",
"201 160 OFFCURVE",
"220 160 CURVE SMOOTH",
"320 160 OFFCURVE",
"407 236 OFFCURVE",
"407 336 CURVE SMOOTH",
"407 363 OFFCURVE",
"401 386 OFFCURVE",
"390 406 CURVE",
"487 416 LINE",
"487 480 LINE"
);
}
);
width = 477;
}
);
note = integral;
unicode = 222B;
},
{
glyphname = product;
layers = (
{
layerId = "3C7D841C-FDC1-4B34-88F9-2F856A81F5AE";
paths = (
{
closed = 1;
nodes = (
"25 -200 LINE",
"475 -200 LINE",
"475 800 LINE",
"25 800 LINE"
);
}
);
width = 500;
}
);
note = product;
unicode = 220F;
},
{
glyphname = summation;
layers = (
{
layerId = "3C7D841C-FDC1-4B34-88F9-2F856A81F5AE";
paths = (
{
closed = 1;
nodes = (
"513 408 LINE",
"601 -4 LINE",
"655 -4 LINE",
"1010 690 LINE",
"937 690 LINE",
"643 95 LINE",
"523 697 LINE",
"455 682 LINE",
"495 497 LINE",
"288 95 LINE",
"173 697 LINE",
"104 682 LINE",
"245 -4 LINE",
"299 -4 LINE"
);
}
);
width = 972;
}
);
note = summation;
unicode = 2211;
},
{
glyphname = radical;
layers = (
{
layerId = "3C7D841C-FDC1-4B34-88F9-2F856A81F5AE";
paths = (
{
closed = 1;
nodes = (
"333 712 LINE",
"323 714 OFFCURVE",
"308 715 OFFCURVE",
"290 715 CURVE SMOOTH",
"212 715 OFFCURVE",
"165 681 OFFCURVE",
"152 599 CURVE SMOOTH",
"132 473 LINE",
"61 473 LINE",
"53 419 LINE",
"123 419 LINE",
"28 -183 LINE",
"94 -172 LINE",
"187 419 LINE",
"290 419 LINE",
"290 473 LINE",
"195 473 LINE",
"214 590 LINE SMOOTH",
"221 635 OFFCURVE",
"245 659 OFFCURVE",
"289 659 CURVE SMOOTH",
"307 659 OFFCURVE",
"323 657 OFFCURVE",
"333 655 CURVE"
);
},
{
closed = 1;
nodes = (
"613 712 LINE",
"603 714 OFFCURVE",
"589 715 OFFCURVE",
"571 715 CURVE SMOOTH",
"492 715 OFFCURVE",
"446 681 OFFCURVE",
"432 599 CURVE SMOOTH",
"412 473 LINE",
"341 473 LINE",
"333 419 LINE",
"403 419 LINE",
"309 -183 LINE",
"374 -172 LINE",
"468 419 LINE",
"570 419 LINE",
"570 473 LINE",
"475 473 LINE",
"494 590 LINE SMOOTH",
"501 635 OFFCURVE",
"525 659 OFFCURVE",
"569 659 CURVE SMOOTH",
"587 659 OFFCURVE",
"604 657 OFFCURVE",
"613 655 CURVE"
);
},
{
closed = 1;
nodes = (
"780 718 LINE",
"714 706 LINE",
"602 0 LINE",
"666 0 LINE"
);
}
);
width = 784;
}
);
note = radical;
unicode = 221A;
},
{
glyphname = micro;
layers = (
{
layerId = "3C7D841C-FDC1-4B34-88F9-2F856A81F5AE";
paths = (
{
closed = 1;
nodes = (
"437 132 LINE",
"481 170 LINE",
"339 337 LINE",
"534 504 LINE",
"499 545 LINE",
"305 376 LINE",
"165 545 LINE",
"121 507 LINE",
"263 340 LINE",
"68 173 LINE",
"103 132 LINE",
"297 301 LINE"
);
}
);
width = 570;
}
);
note = mu;
unicode = 00B5;
},
{
glyphname = partialdiff;
layers = (
{
layerId = "3C7D841C-FDC1-4B34-88F9-2F856A81F5AE";
paths = (
{
closed = 1;
nodes = (
"474 105 LINE",
"432 68 OFFCURVE",
"381 46 OFFCURVE",
"326 46 CURVE SMOOTH",
"207 46 OFFCURVE",
"132 142 OFFCURVE",
"132 288 CURVE SMOOTH",
"132 489 OFFCURVE",
"248 644 OFFCURVE",
"395 644 CURVE SMOOTH",
"515 644 OFFCURVE",
"590 548 OFFCURVE",
"590 402 CURVE SMOOTH",
"590 303 OFFCURVE",
"562 215 OFFCURVE",
"515 151 CURVE",
"399 255 LINE",
"315 240 LINE"
);
},
{
closed = 1;
nodes = (
"562 110 LINE",
"623 185 OFFCURVE",
"660 289 OFFCURVE",
"660 404 CURVE SMOOTH",
"660 575 OFFCURVE",
"566 703 OFFCURVE",
"398 703 CURVE SMOOTH",
"211 703 OFFCURVE",
"62 518 OFFCURVE",
"62 286 CURVE SMOOTH",
"62 115 OFFCURVE",
"156 -13 OFFCURVE",
"323 -13 CURVE SMOOTH",
"397 -13 OFFCURVE",
"465 16 OFFCURVE",
"520 65 CURVE",
"608 -14 LINE",
"631 50 LINE"
);
}
);
width = 690;
}
);
note = partialdiff;
unicode = 2202;
},
{
glyphname = percent;
layers = (
{
layerId = "3C7D841C-FDC1-4B34-88F9-2F856A81F5AE";
paths = (
{
closed = 1;
nodes = (
"366 620 OFFCURVE",
"323 684 OFFCURVE",
"239 684 CURVE SMOOTH",
"147 684 OFFCURVE",
"77 578 OFFCURVE",
"77 461 CURVE SMOOTH",
"77 367 OFFCURVE",
"121 304 OFFCURVE",
"203 304 CURVE SMOOTH",
"295 304 OFFCURVE",
"366 410 OFFCURVE",
"366 527 CURVE SMOOTH"
);
},
{
closed = 1;
nodes = (
"728 671 LINE",
"675 683 LINE",
"139 5 LINE",
"192 -7 LINE"
);
},
{
closed = 1;
nodes = (
"278 637 OFFCURVE",
"309 602 OFFCURVE",
"309 530 CURVE SMOOTH",
"309 437 OFFCURVE",
"266 351 OFFCURVE",
"204 351 CURVE SMOOTH",
"163 351 OFFCURVE",
"134 386 OFFCURVE",
"134 457 CURVE SMOOTH",
"134 550 OFFCURVE",
"177 637 OFFCURVE",
"238 637 CURVE SMOOTH"
);
},
{
closed = 1;
nodes = (
"790 309 OFFCURVE",
"746 372 OFFCURVE",
"664 372 CURVE SMOOTH",
"572 372 OFFCURVE",
"501 266 OFFCURVE",
"501 149 CURVE SMOOTH",
"501 56 OFFCURVE",
"544 -8 OFFCURVE",
"627 -8 CURVE SMOOTH",
"719 -8 OFFCURVE",
"790 98 OFFCURVE",
"790 215 CURVE SMOOTH"
);
},
{
closed = 1;
nodes = (
"733 126 OFFCURVE",
"690 39 OFFCURVE",
"628 39 CURVE SMOOTH",
"588 39 OFFCURVE",
"558 74 OFFCURVE",
"558 146 CURVE SMOOTH",
"558 239 OFFCURVE",
"601 325 OFFCURVE",
"663 325 CURVE SMOOTH",
"704 325 OFFCURVE",
"733 290 OFFCURVE",
"733 219 CURVE SMOOTH"
);
}
);
width = 834;
}
);
note = percent;
unicode = 0025;
},
{
glyphname = perthousand;
layers = (
{
layerId = "3C7D841C-FDC1-4B34-88F9-2F856A81F5AE";
paths = (
{
closed = 1;
nodes = (
"764 556 OFFCURVE",
"626 703 OFFCURVE",
"419 703 CURVE SMOOTH",
"213 703 OFFCURVE",
"74 555 OFFCURVE",
"74 345 CURVE SMOOTH",
"74 134 OFFCURVE",
"213 -13 OFFCURVE",
"419 -13 CURVE SMOOTH",
"626 -13 OFFCURVE",
"764 135 OFFCURVE",
"764 345 CURVE SMOOTH"
);
},
{
closed = 1;
nodes = (
"729 145 OFFCURVE",
"605 16 OFFCURVE",
"420 16 CURVE SMOOTH",
"237 16 OFFCURVE",
"110 145 OFFCURVE",
"110 345 CURVE SMOOTH",
"110 545 OFFCURVE",
"234 674 OFFCURVE",
"419 674 CURVE SMOOTH",
"602 674 OFFCURVE",
"729 545 OFFCURVE",
"729 345 CURVE SMOOTH"
);
},
{
closed = 1;
nodes = (
"461 323 LINE",
"510 338 OFFCURVE",
"546 375 OFFCURVE",
"546 433 CURVE SMOOTH",
"546 504 OFFCURVE",
"493 548 OFFCURVE",
"413 548 CURVE SMOOTH",
"304 548 LINE",
"304 154 LINE",
"357 154 LINE",
"357 315 LINE",
"406 315 LINE",
"526 151 LINE",
"583 162 LINE"
);
},
{
closed = 1;
nodes = (
"412 500 LINE SMOOTH",
"464 500 OFFCURVE",
"492 474 OFFCURVE",
"492 432 CURVE SMOOTH",
"492 386 OFFCURVE",
"459 361 OFFCURVE",
"407 361 CURVE SMOOTH",
"357 361 LINE",
"357 500 LINE"
);
}
);
width = 806;
}
);
note = perthousand;
unicode = 2030;
},
{
glyphname = lozenge;
layers = (
{
layerId = "3C7D841C-FDC1-4B34-88F9-2F856A81F5AE";
paths = (
{
closed = 1;
nodes = (
"783 345 LINE",
"756 690 LINE",
"701 690 LINE",
"591 407 LINE",
"481 690 LINE",
"425 690 LINE",
"399 345 LINE",
"444 345 LINE",
"465 610 LINE",
"571 344 LINE",
"609 344 LINE",
"716 610 LINE",
"736 345 LINE"
);
},
{
closed = 1;
nodes = (
"277 340 OFFCURVE",
"326 376 OFFCURVE",
"326 437 CURVE SMOOTH",
"326 491 OFFCURVE",
"298 516 OFFCURVE",
"233 544 CURVE SMOOTH",
"184 565 OFFCURVE",
"167 579 OFFCURVE",
"167 609 CURVE SMOOTH",
"167 635 OFFCURVE",
"189 654 OFFCURVE",
"225 654 CURVE SMOOTH",
"253 654 OFFCURVE",
"278 645 OFFCURVE",
"302 630 CURVE",
"310 675 LINE",
"288 687 OFFCURVE",
"260 695 OFFCURVE",
"227 695 CURVE SMOOTH",
"167 695 OFFCURVE",
"123 658 OFFCURVE",
"123 605 CURVE SMOOTH",
"123 553 OFFCURVE",
"149 532 OFFCURVE",
"218 502 CURVE SMOOTH",
"263 483 OFFCURVE",
"281 466 OFFCURVE",
"281 434 CURVE SMOOTH",
"281 400 OFFCURVE",
"252 381 OFFCURVE",
"216 381 CURVE SMOOTH",
"181 381 OFFCURVE",
"152 393 OFFCURVE",
"124 410 CURVE",
"119 364 LINE",
"144 350 OFFCURVE",
"176 340 OFFCURVE",
"214 340 CURVE SMOOTH"
);
}
);
width = 801;
}
);
note = lozenge;
unicode = 25CA;
},
{
glyphname = dieresis;
layers = (
{
layerId = "3C7D841C-FDC1-4B34-88F9-2F856A81F5AE";
paths = (
{
closed = 1;
nodes = (
"407 557 LINE",
"421 645 LINE",
"338 645 LINE",
"324 557 LINE"
);
},
{
closed = 1;
nodes = (
"234 557 LINE",
"249 645 LINE",
"166 645 LINE",
"152 557 LINE"
);
}
);
width = 456;
}
);
note = dieresis;
unicode = 00A8;
},
{
glyphname = dotaccent;
layers = (
{
layerId = "3C7D841C-FDC1-4B34-88F9-2F856A81F5AE";
paths = (
{
closed = 1;
nodes = (
"321 554 LINE",
"335 644 LINE",
"251 644 LINE",
"236 554 LINE"
);
}
);
width = 456;
}
);
note = dotaccent;
unicode = 02D9;
},
{
glyphname = grave;
layers = (
{
layerId = "3C7D841C-FDC1-4B34-88F9-2F856A81F5AE";
paths = (
{
closed = 1;
nodes = (
"360 550 LINE",
"286 703 LINE",
"200 684 LINE",
"316 550 LINE"
);
}
);
width = 456;
}
);
note = grave;
unicode = 0060;
},
{
glyphname = acute;
layers = (
{
layerId = "3C7D841C-FDC1-4B34-88F9-2F856A81F5AE";
paths = (
{
closed = 1;
nodes = (
"399 684 LINE",
"309 703 LINE",
"190 550 LINE",
"244 550 LINE"
);
}
);
width = 456;
}
);
note = acute;
unicode = 00B4;
},
{
glyphname = hungarumlaut;
layers = (
{
layerId = "3C7D841C-FDC1-4B34-88F9-2F856A81F5AE";
paths = (
{
closed = 1;
nodes = (
"467 688 LINE",
"388 706 LINE",
"268 554 LINE",
"313 554 LINE"
);
},
{
closed = 1;
nodes = (
"304 688 LINE",
"224 706 LINE",
"105 554 LINE",
"149 554 LINE"
);
}
);
width = 456;
}
);
note = hungarumlaut;
unicode = 02DD;
},
{
glyphname = circumflex;
layers = (
{
layerId = "3C7D841C-FDC1-4B34-88F9-2F856A81F5AE";
paths = (
{
closed = 1;
nodes = (
"408 554 LINE",
"331 695 LINE",
"270 695 LINE",
"142 550 LINE",
"186 550 LINE",
"292 633 LINE",
"374 547 LINE"
);
}
);
width = 456;
}
);
note = circumflex;
unicode = 02C6;
},
{
glyphname = caron;
layers = (
{
layerId = "3C7D841C-FDC1-4B34-88F9-2F856A81F5AE";
paths = (
{
closed = 1;
nodes = (
"434 695 LINE",
"390 695 LINE",
"286 611 LINE",
"204 698 LINE",
"169 690 LINE",
"246 550 LINE",
"307 550 LINE"
);
}
);
width = 456;
}
);
note = caron;
unicode = 02C7;
},
{
glyphname = breve;
layers = (
{
layerId = "3C7D841C-FDC1-4B34-88F9-2F856A81F5AE";
paths = (
{
closed = 1;
nodes = (
"377 695 LINE",
"364 643 OFFCURVE",
"333 614 OFFCURVE",
"294 614 CURVE SMOOTH",
"245 614 OFFCURVE",
"227 644 OFFCURVE",
"226 698 CURVE",
"175 688 LINE",
"162 608 OFFCURVE",
"203 551 OFFCURVE",
"282 551 CURVE SMOOTH",
"360 551 OFFCURVE",
"414 603 OFFCURVE",
"427 695 CURVE"
);
}
);
width = 456;
}
);
note = breve;
unicode = 02D8;
},
{
glyphname = ring;
layers = (
{
layerId = "3C7D841C-FDC1-4B34-88F9-2F856A81F5AE";
paths = (
{
closed = 1;
nodes = (
"388 699 OFFCURVE",
"347 743 OFFCURVE",
"291 743 CURVE SMOOTH",
"234 743 OFFCURVE",
"193 699 OFFCURVE",
"193 644 CURVE SMOOTH",
"193 588 OFFCURVE",
"234 548 OFFCURVE",
"291 548 CURVE SMOOTH",
"347 548 OFFCURVE",
"388 588 OFFCURVE",
"388 644 CURVE SMOOTH"
);
},
{
closed = 1;
nodes = (
"348 610 OFFCURVE",
"323 585 OFFCURVE",
"291 585 CURVE SMOOTH",
"258 585 OFFCURVE",
"233 610 OFFCURVE",
"233 644 CURVE SMOOTH",
"233 679 OFFCURVE",
"258 705 OFFCURVE",
"291 705 CURVE SMOOTH",
"323 705 OFFCURVE",
"348 679 OFFCURVE",
"348 644 CURVE SMOOTH"
);
}
);
width = 456;
}
);
note = ring;
unicode = 02DA;
},
{
glyphname = tilde;
layers = (
{
layerId = "3C7D841C-FDC1-4B34-88F9-2F856A81F5AE";
paths = (
{
closed = 1;
nodes = (
"400 669 LINE",
"386 631 OFFCURVE",
"371 616 OFFCURVE",
"356 616 CURVE SMOOTH",
"340 616 OFFCURVE",
"330 621 OFFCURVE",
"296 642 CURVE SMOOTH",
"269 658 OFFCURVE",
"253 667 OFFCURVE",
"226 667 CURVE SMOOTH",
"187 667 OFFCURVE",
"153 632 OFFCURVE",
"131 563 CURVE",
"175 554 LINE",
"190 593 OFFCURVE",
"204 607 OFFCURVE",
"219 607 CURVE SMOOTH",
"235 607 OFFCURVE",
"245 602 OFFCURVE",
"279 581 CURVE SMOOTH",
"307 565 OFFCURVE",
"323 556 OFFCURVE",
"349 556 CURVE SMOOTH",
"388 556 OFFCURVE",
"422 591 OFFCURVE",
"444 660 CURVE"
);
}
);
width = 456;
}
);
note = tilde;
unicode = 02DC;
},
{
glyphname = macron;
layers = (
{
layerId = "3C7D841C-FDC1-4B34-88F9-2F856A81F5AE";
paths = (
{
closed = 1;
nodes = (
"406 578 LINE",
"414 639 LINE",
"167 639 LINE",
"159 578 LINE"
);
}
);
width = 456;
}
);
note = macron;
unicode = 00AF;
},
{
glyphname = cedilla;
layers = (
{
layerId = "3C7D841C-FDC1-4B34-88F9-2F856A81F5AE";
paths = (
{
closed = 1;
nodes = (
"249 -70 LINE",
"166 -50 LINE",
"60 -185 LINE",
"109 -185 LINE"
);
}
);
width = 456;
}
);
note = cedilla;
unicode = 00B8;
},
{
glyphname = ogonek;
layers = (
{
layerId = "3C7D841C-FDC1-4B34-88F9-2F856A81F5AE";
paths = (
{
closed = 1;
nodes = (
"260 -185 LINE",
"199 -50 LINE",
"114 -70 LINE",
"218 -185 LINE"
);
}
);
width = 456;
}
);
note = ogonek;
unicode = 02DB;
},
